<?xml version="1.0" encoding="utf-8"?>
<!-- Generator: Adobe Illustrator 15.1.0, SVG Export Plug-In . SVG Version: 6.00 Build 0)  -->
<!DOCTYPE svg PUBLIC "-//W3C//DTD SVG 1.1//EN" "http://www.w3.org/Graphics/SVG/1.1/DTD/svg11.dtd">
<svg version="1.1" id="Layer_1" xmlns="http://www.w3.org/2000/svg" xmlns:xlink="http://www.w3.org/1999/xlink" x="0px" y="0px"
	 width="32px" height="54px" viewBox="0 0 32 54" enable-background="new 0 0 32 54" xml:space="preserve">
<polygon fill="#F37E20" points="20.564,6.19 19.051,11.459 31.105,6.19 19.051,0.925 "/>
<g>
	<defs>
		<rect id="SVGID_1_" x="0.177" y="0.838" width="31.027" height="10.707"/>
	</defs>
	<clipPath id="SVGID_2_">
		<use xlink:href="#SVGID_1_"  overflow="visible"/>
	</clipPath>
	
		<line clip-path="url(#SVGID_2_)" fill="none" stroke="#F37E20" stroke-width="1.8" stroke-miterlimit="10" x1="23.479" y1="6.427" x2="0.177" y2="6.427"/>
</g>
<polygon fill="#ADD138" points="20.564,20.353 19.051,25.621 31.105,20.353 19.051,15.087 "/>
<g>
	<defs>
		<rect id="SVGID_3_" x="0.177" y="15" width="31.027" height="10.707"/>
	</defs>
	<clipPath id="SVGID_4_">
		<use xlink:href="#SVGID_3_"  overflow="visible"/>
	</clipPath>
	
		<line clip-path="url(#SVGID_4_)" fill="none" stroke="#ADD138" stroke-width="1.8" stroke-miterlimit="10" x1="23.479" y1="20.589" x2="0.177" y2="20.589"/>
</g>
<polygon fill="#A8288D" points="20.564,33.353 19.051,38.621 31.105,33.353 19.051,28.087 "/>
<g>
	<defs>
		<rect id="SVGID_5_" x="0.177" y="28" width="31.027" height="10.707"/>
	</defs>
	<clipPath id="SVGID_6_">
		<use xlink:href="#SVGID_5_"  overflow="visible"/>
	</clipPath>
	
		<line clip-path="url(#SVGID_6_)" fill="none" stroke="#A8288D" stroke-width="1.8" stroke-miterlimit="10" x1="23.479" y1="33.589" x2="0.177" y2="33.589"/>
</g>
<polygon fill="#07B3DA" points="20.564,48.353 19.051,53.621 31.105,48.353 19.051,43.087 "/>
<g>
	<defs>
		<rect id="SVGID_7_" x="0.177" y="43" width="31.027" height="10.707"/>
	</defs>
	<clipPath id="SVGID_8_">
		<use xlink:href="#SVGID_7_"  overflow="visible"/>
	</clipPath>
	
		<line clip-path="url(#SVGID_8_)" fill="none" stroke="#07B3DA" stroke-width="1.8" stroke-miterlimit="10" x1="23.479" y1="48.589" x2="0.177" y2="48.589"/>
</g>
</svg>
