<?xml version="1.0" encoding="utf-8"?>
<!-- Generator: Adobe Illustrator 15.1.0, SVG Export Plug-In . SVG Version: 6.00 Build 0)  -->
<!DOCTYPE svg PUBLIC "-//W3C//DTD SVG 1.1//EN" "http://www.w3.org/Graphics/SVG/1.1/DTD/svg11.dtd">
<svg version="1.1" id="Layer_1" xmlns="http://www.w3.org/2000/svg" xmlns:xlink="http://www.w3.org/1999/xlink" x="0px" y="0px"
	 width="80px" height="296.709px" viewBox="0 0 80 296.709" enable-background="new 0 0 80 296.709" xml:space="preserve">
<g>
	<defs>
		<rect id="SVGID_1_" y="-0.137" width="80" height="296.846"/>
	</defs>
	<clipPath id="SVGID_2_">
		<use xlink:href="#SVGID_1_"  overflow="visible"/>
	</clipPath>
	<g clip-path="url(#SVGID_2_)">
		<defs>
			<rect id="SVGID_3_" y="-0.137" width="80" height="296.846"/>
		</defs>
		<clipPath id="SVGID_4_">
			<use xlink:href="#SVGID_3_"  overflow="visible"/>
		</clipPath>
		<g clip-path="url(#SVGID_4_)">
			<g>
				<defs>
					<rect id="SVGID_5_" x="0.623" y="0.486" width="78.755" height="296.223"/>
				</defs>
				<clipPath id="SVGID_6_">
					<use xlink:href="#SVGID_5_"  overflow="visible"/>
				</clipPath>
				<g clip-path="url(#SVGID_6_)">
					<defs>
						<polygon id="SVGID_7_" points="79.377,31.976 59.689,16.23 40,0.486 20.312,16.23 0.623,31.976 8.896,30.792 8.896,281.949 
							71.104,296.709 71.104,30.792 						"/>
					</defs>
					<clipPath id="SVGID_8_">
						<use xlink:href="#SVGID_7_"  overflow="visible"/>
					</clipPath>
					<defs>
						<filter id="Adobe_OpacityMaskFilter" filterUnits="userSpaceOnUse" x="-59.619" y="-15.53" width="199.239" height="328.255">
							<feColorMatrix  type="matrix" values="1 0 0 0 0  0 1 0 0 0  0 0 1 0 0  0 0 0 1 0"/>
						</filter>
					</defs>
					<mask maskUnits="userSpaceOnUse" x="-59.619" y="-15.53" width="199.239" height="328.255" id="SVGID_9_">
						<g filter="url(#Adobe_OpacityMaskFilter)">
							
								<linearGradient id="SVGID_10_" gradientUnits="userSpaceOnUse" x1="-26.6533" y1="396.335" x2="-26.055" y2="396.335" gradientTransform="matrix(98.433 -463.0908 -463.0908 -98.433 186174.0312 26953.5176)">
								<stop  offset="0" style="stop-color:#000000"/>
								<stop  offset="0.026" style="stop-color:#0A0A0A"/>
								<stop  offset="0.0709" style="stop-color:#262626"/>
								<stop  offset="0.1293" style="stop-color:#545454"/>
								<stop  offset="0.1988" style="stop-color:#939393"/>
								<stop  offset="0.277" style="stop-color:#E2E2E2"/>
								<stop  offset="0.3043" style="stop-color:#FFFFFF"/>
								<stop  offset="1" style="stop-color:#FFFFFF"/>
							</linearGradient>
							<polygon clip-path="url(#SVGID_8_)" fill="url(#SVGID_10_)" points="-59.619,283.903 4.027,-15.53 139.62,13.292 
								75.973,312.726 							"/>
						</g>
					</mask>
					
						<linearGradient id="SVGID_11_" gradientUnits="userSpaceOnUse" x1="-26.6533" y1="396.335" x2="-26.055" y2="396.335" gradientTransform="matrix(98.433 -463.0908 -463.0908 -98.433 186174.0312 26953.5176)">
						<stop  offset="0" style="stop-color:#FFFFFF"/>
						<stop  offset="0.3043" style="stop-color:#FFFFFF"/>
						<stop  offset="0.3922" style="stop-color:#FFFFFF"/>
						<stop  offset="1" style="stop-color:#FFFFFF"/>
					</linearGradient>
					<polygon clip-path="url(#SVGID_8_)" mask="url(#SVGID_9_)" fill="url(#SVGID_11_)" points="-59.619,283.903 4.027,-15.53 
						139.62,13.292 75.973,312.726 					"/>
				</g>
			</g>
		</g>
		<path clip-path="url(#SVGID_4_)" fill="#616264" d="M71.079,285.916L70.481,30.792c0-0.343,0.276-0.622,0.62-0.623
			c0.029,0,0.062,0.003,0.092,0.007l8.272,1.184l-0.477,1.103L39.611,0.973h0.777L1.011,32.462L0.534,31.36l8.274-1.184
			c0.339-0.049,0.655,0.185,0.704,0.525c0.004,0.029,0.006,0.062,0.006,0.091L8.917,271.157c0,0.011-0.009,0.021-0.02,0.021
			c-0.011,0-0.021-0.01-0.021-0.021L8.273,30.792l0.711,0.616l-8.273,1.184c-0.34,0.048-0.656-0.188-0.705-0.528
			c-0.032-0.226,0.062-0.441,0.228-0.574L39.611,0c0.231-0.185,0.556-0.178,0.777,0l39.378,31.49
			c0.269,0.214,0.312,0.607,0.097,0.875c-0.142,0.178-0.363,0.258-0.574,0.228l-8.273-1.184l0.711-0.616l-0.598,255.124
			c0,0.014-0.011,0.025-0.024,0.024C71.09,285.94,71.079,285.93,71.079,285.916"/>
	</g>
</g>
</svg>
