<?xml version="1.0" encoding="utf-8"?>
<!-- Generator: Adobe Illustrator 15.1.0, SVG Export Plug-In . SVG Version: 6.00 Build 0)  -->
<!DOCTYPE svg PUBLIC "-//W3C//DTD SVG 1.1//EN" "http://www.w3.org/Graphics/SVG/1.1/DTD/svg11.dtd">
<svg version="1.1" id="Layer_1" xmlns="http://www.w3.org/2000/svg" xmlns:xlink="http://www.w3.org/1999/xlink" x="0px" y="0px"
	 width="46.163px" height="49.731px" viewBox="0 0 46.163 49.731" enable-background="new 0 0 46.163 49.731" xml:space="preserve">
<g>
	<defs>
		<rect id="SVGID_1_" x="0" y="0" width="46.161" height="61.972"/>
	</defs>
	<clipPath id="SVGID_2_">
		<use xlink:href="#SVGID_1_"  overflow="visible"/>
	</clipPath>
	<g clip-path="url(#SVGID_2_)">
		<defs>
			<path id="SVGID_3_" d="M0.852,26.65c0,12.276,9.953,22.228,22.23,22.228c12.277,0,22.229-9.952,22.229-22.228
				c0-12.277-9.952-22.229-22.229-22.229C10.805,4.421,0.852,14.373,0.852,26.65"/>
		</defs>
		<clipPath id="SVGID_4_">
			<use xlink:href="#SVGID_3_"  overflow="visible"/>
		</clipPath>
		<path clip-path="url(#SVGID_4_)" fill="#FFFFFF" d="M45.311,26.65c0,12.276-9.952,22.229-22.229,22.229
			c-12.278,0-22.23-9.952-22.23-22.229c0-12.277,9.952-22.229,22.23-22.229C35.359,4.421,45.311,14.373,45.311,26.65"/>
		<path clip-path="url(#SVGID_4_)" fill="#E9E4C0" d="M41.191,61.972H4.97V45.826c0-4.647,4.46-8.415,9.961-8.415H31.23
			c5.501,0,9.961,3.768,9.961,8.415V61.972z"/>
	</g>
	<g clip-path="url(#SVGID_2_)">
		<defs>
			<rect id="SVGID_5_" x="0" width="46.162" height="61.972"/>
		</defs>
		<clipPath id="SVGID_6_">
			<use xlink:href="#SVGID_5_"  overflow="visible"/>
		</clipPath>
		<path clip-path="url(#SVGID_6_)" fill="#035563" d="M23.082,49.731c-6.166,0-11.961-2.4-16.321-6.762
			C2.401,38.612,0,32.814,0,26.65c0-6.165,2.401-11.961,6.76-16.32c4.36-4.36,10.156-6.761,16.321-6.761
			c6.163,0,11.961,2.401,16.32,6.761c4.359,4.359,6.76,10.155,6.76,16.32c0,6.164-2.4,11.962-6.76,16.319
			C35.042,47.331,29.245,49.731,23.082,49.731 M23.082,5.272c-5.71,0-11.08,2.224-15.116,6.262
			c-4.038,4.037-6.262,9.405-6.262,15.116c0,5.71,2.224,11.077,6.262,15.115c4.037,4.037,9.406,6.262,15.116,6.262
			c5.71,0,11.077-2.225,15.114-6.262c4.038-4.038,6.263-9.405,6.263-15.115c0-5.711-2.225-11.079-6.263-15.116
			C34.159,7.496,28.792,5.272,23.082,5.272"/>
	</g>
	<g clip-path="url(#SVGID_2_)">
		<defs>
			<path id="SVGID_7_" d="M16.654,24.869v13.539c0,3.586,2.906,6.49,6.489,6.49c3.541,0,6.411-2.87,6.411-6.411V24.869H16.654z"/>
		</defs>
		<clipPath id="SVGID_8_">
			<use xlink:href="#SVGID_7_"  overflow="visible"/>
		</clipPath>
		<path clip-path="url(#SVGID_8_)" fill="#DEAE8B" d="M29.555,38.488c0,3.54-2.87,6.41-6.411,6.41c-3.583,0-6.488-2.905-6.488-6.489
			v-13.54h12.899V38.488z"/>
		<g opacity="0.4" clip-path="url(#SVGID_8_)">
			<g>
				<defs>
					<rect id="SVGID_9_" x="16.248" y="34.321" width="14.446" height="9.629"/>
				</defs>
				<clipPath id="SVGID_10_">
					<use xlink:href="#SVGID_9_"  overflow="visible"/>
				</clipPath>
				<path clip-path="url(#SVGID_10_)" fill="#E58871" d="M16.56,36.086c5.801,1.438,8.923,3.539,10.568,7.863l3.566-2.125
					l-0.096-7.442l-14.351-0.062L16.56,36.086z"/>
			</g>
		</g>
	</g>
	<g clip-path="url(#SVGID_2_)">
		<defs>
			<rect id="SVGID_11_" x="0" width="46.162" height="61.972"/>
		</defs>
		<clipPath id="SVGID_12_">
			<use xlink:href="#SVGID_11_"  overflow="visible"/>
		</clipPath>
		<path clip-path="url(#SVGID_12_)" fill="#DEAE8B" d="M15.798,18.826c0,1.706-1.383,3.088-3.087,3.088
			c-1.706,0-3.088-1.382-3.088-3.088c0-1.704,1.382-3.088,3.088-3.088C14.416,15.738,15.798,17.122,15.798,18.826"/>
		<g opacity="0.2" clip-path="url(#SVGID_12_)">
			<g>
				<defs>
					<rect id="SVGID_13_" x="10.688" y="16.803" width="4.045" height="4.046"/>
				</defs>
				<clipPath id="SVGID_14_">
					<use xlink:href="#SVGID_13_"  overflow="visible"/>
				</clipPath>
				<path clip-path="url(#SVGID_14_)" fill="#E58871" d="M14.734,18.826c0,1.118-0.906,2.023-2.023,2.023s-2.022-0.905-2.022-2.023
					c0-1.116,0.905-2.022,2.022-2.022S14.734,17.709,14.734,18.826"/>
			</g>
		</g>
		<path clip-path="url(#SVGID_12_)" fill="#DEAE8B" d="M36.539,18.826c0,1.706-1.383,3.088-3.089,3.088
			c-1.704,0-3.088-1.382-3.088-3.088c0-1.704,1.384-3.088,3.088-3.088C35.156,15.738,36.539,17.122,36.539,18.826"/>
		<g opacity="0.2" clip-path="url(#SVGID_12_)">
			<g>
				<defs>
					<rect id="SVGID_15_" x="31.427" y="16.803" width="4.046" height="4.046"/>
				</defs>
				<clipPath id="SVGID_16_">
					<use xlink:href="#SVGID_15_"  overflow="visible"/>
				</clipPath>
				<path clip-path="url(#SVGID_16_)" fill="#E58871" d="M35.473,18.826c0,1.118-0.904,2.023-2.022,2.023s-2.023-0.905-2.023-2.023
					c0-1.116,0.905-2.022,2.023-2.022S35.473,17.709,35.473,18.826"/>
			</g>
		</g>
	</g>
	<g clip-path="url(#SVGID_2_)">
		<defs>
			<path id="SVGID_17_" d="M20.822,2.345c-4.683,0-8.478,3.796-8.478,8.478v18.915c0,2.304,1.553,4.32,3.781,4.908l0.203,0.053
				c4.445,1.172,9.117,1.171,13.56-0.004l0.185-0.049c2.234-0.591,3.792-2.618,3.792-4.932V10.822c0-4.681-3.796-8.477-8.479-8.477
				H20.822z"/>
		</defs>
		<clipPath id="SVGID_18_">
			<use xlink:href="#SVGID_17_"  overflow="visible"/>
		</clipPath>
		<path clip-path="url(#SVGID_18_)" fill="#DEAE8B" d="M33.865,34.131c0,1.311-1.062,2.374-2.374,5.359H14.778
			c-1.345-2.985-2.434-4.076-2.434-5.42V10.824c0-4.683,3.796-8.479,8.479-8.479h4.563c4.683,0,8.479,3.796,8.479,8.479V34.131z"/>
		<g opacity="0.5" clip-path="url(#SVGID_18_)">
			<g>
				<defs>
					<rect id="SVGID_19_" x="23.104" y="14.236" width="2.953" height="6.151"/>
				</defs>
				<clipPath id="SVGID_20_">
					<use xlink:href="#SVGID_19_"  overflow="visible"/>
				</clipPath>
				<polygon clip-path="url(#SVGID_20_)" fill="#E58871" points="23.104,20.387 23.104,14.236 26.057,20.146 				"/>
			</g>
		</g>
		<path clip-path="url(#SVGID_18_)" fill="#E58871" d="M25.166,21.347c-0.548,0.547-1.288,0.854-2.062,0.854
			c-0.773,0-1.515-0.308-2.061-0.854l-0.816-0.817c-0.101-0.101-0.131-0.253-0.077-0.385c0.055-0.132,0.184-0.218,0.327-0.218h5.255
			c0.144,0,0.272,0.086,0.327,0.218c0.054,0.133,0.024,0.284-0.077,0.385L25.166,21.347z"/>
		<g opacity="0.5" clip-path="url(#SVGID_18_)">
			<g>
				<defs>
					<rect id="SVGID_21_" x="12.436" y="13.059" width="21.338" height="3.755"/>
				</defs>
				<clipPath id="SVGID_22_">
					<use xlink:href="#SVGID_21_"  overflow="visible"/>
				</clipPath>
				<path clip-path="url(#SVGID_22_)" fill="#E58871" d="M33.774,16.814c0-2.073-1.681-3.755-3.755-3.755H16.19
					c-2.074,0-3.755,1.682-3.755,3.755H33.774z"/>
			</g>
		</g>
		<g opacity="0.2" clip-path="url(#SVGID_18_)">
			<g>
				<defs>
					<rect id="SVGID_23_" x="16.1" y="6.05" width="14.01" height="7.005"/>
				</defs>
				<clipPath id="SVGID_24_">
					<use xlink:href="#SVGID_23_"  overflow="visible"/>
				</clipPath>
				<path clip-path="url(#SVGID_24_)" fill="#E58871" d="M16.1,13.055c0-3.867,3.136-7.005,7.005-7.005
					c3.869,0,7.005,3.138,7.005,7.005"/>
			</g>
		</g>
		<g opacity="0.5" clip-path="url(#SVGID_18_)">
			<g>
				<defs>
					<rect id="SVGID_25_" x="22.158" y="18.976" width="1.893" height="0.945"/>
				</defs>
				<clipPath id="SVGID_26_">
					<use xlink:href="#SVGID_25_"  overflow="visible"/>
				</clipPath>
				<path clip-path="url(#SVGID_26_)" fill="#E58871" d="M22.158,19.921c0-0.521,0.424-0.945,0.946-0.945
					c0.523,0,0.947,0.424,0.947,0.945H22.158z"/>
			</g>
		</g>
		<g opacity="0.2" clip-path="url(#SVGID_18_)">
			<g>
				<defs>
					<rect id="SVGID_27_" x="9.793" y="20.3" width="26.745" height="20.153"/>
				</defs>
				<clipPath id="SVGID_28_">
					<use xlink:href="#SVGID_27_"  overflow="visible"/>
				</clipPath>
				<path clip-path="url(#SVGID_28_)" fill="#E58871" d="M36.539,36.99l-1.32-16.689l-6.739,1.385
					c-0.183,0.037-0.342,0.151-0.438,0.312c-0.097,0.16-0.119,0.354-0.066,0.533l0.739,2.438c0.273,0.907,0.414,1.849,0.414,2.796
					v0.015c0,1.028-0.432,2.011-1.188,2.708c-1.391,1.282-3.383,1.87-4.751,1.87c-1.851,0-4.264-0.864-5.559-2.744
					c-0.305-0.441-0.469-0.966-0.469-1.502v-0.015c0-1.167,0.177-2.327,0.524-3.441l0.663-2.12c0.056-0.18,0.033-0.375-0.062-0.537
					c-0.096-0.162-0.256-0.277-0.44-0.315l-6.733-1.383L9.793,36.99h5.478l-0.14,3.464c0,0,17.674-0.425,17.632-0.554
					c-0.004-0.01,0.046-2.782,0.013-2.91H36.539z"/>
			</g>
		</g>
	</g>
	<g clip-path="url(#SVGID_2_)">
		<defs>
			<rect id="SVGID_29_" x="0" width="46.162" height="61.972"/>
		</defs>
		<clipPath id="SVGID_30_">
			<use xlink:href="#SVGID_29_"  overflow="visible"/>
		</clipPath>
		<rect x="12.313" y="6.95" clip-path="url(#SVGID_30_)" fill="#574639" width="0.374" height="9.598"/>
		<rect x="33.494" y="9.317" clip-path="url(#SVGID_30_)" fill="#574639" width="0.373" height="7.23"/>
		<path clip-path="url(#SVGID_30_)" fill="#574639" d="M14.244,12.063c-0.22,0-0.407-0.17-0.423-0.394
			c-0.019-0.235,0.156-0.438,0.391-0.457l5.198-0.406c0.235-0.018,0.439,0.157,0.457,0.393c0.018,0.233-0.157,0.438-0.392,0.457
			l-5.196,0.405C14.267,12.062,14.256,12.063,14.244,12.063"/>
		<path clip-path="url(#SVGID_30_)" fill="#574639" d="M31.552,11.975c-0.01,0-0.019,0-0.027-0.001l-5.202-0.338
			c-0.235-0.015-0.413-0.219-0.396-0.453c0.015-0.234,0.217-0.413,0.452-0.398l5.201,0.339c0.235,0.017,0.412,0.219,0.398,0.454
			C31.962,11.803,31.776,11.975,31.552,11.975"/>
		<g opacity="0.2" clip-path="url(#SVGID_30_)">
			<g>
				<defs>
					<rect id="SVGID_31_" x="15.333" y="16.25" width="3.36" height="2.35"/>
				</defs>
				<clipPath id="SVGID_32_">
					<use xlink:href="#SVGID_31_"  overflow="visible"/>
				</clipPath>
				<path clip-path="url(#SVGID_32_)" fill="#E58871" d="M18.693,17.424c0,0.648-0.752,1.175-1.68,1.175
					c-0.928,0-1.68-0.527-1.68-1.175c0-0.649,0.752-1.175,1.68-1.175C17.941,16.25,18.693,16.775,18.693,17.424"/>
			</g>
		</g>
		<g opacity="0.2" clip-path="url(#SVGID_30_)">
			<g>
				<defs>
					<rect id="SVGID_33_" x="27.426" y="16.25" width="3.359" height="2.35"/>
				</defs>
				<clipPath id="SVGID_34_">
					<use xlink:href="#SVGID_33_"  overflow="visible"/>
				</clipPath>
				<path clip-path="url(#SVGID_34_)" fill="#E58871" d="M30.786,17.424c0,0.648-0.752,1.175-1.68,1.175
					c-0.927,0-1.68-0.527-1.68-1.175c0-0.649,0.753-1.175,1.68-1.175C30.034,16.25,30.786,16.775,30.786,17.424"/>
			</g>
		</g>
		<path clip-path="url(#SVGID_30_)" fill="#333334" d="M18.544,19.969h-2.101c-2.025,0-3.672-1.647-3.672-3.672v-1.74
			c0-1.139,0.926-2.064,2.063-2.064h5.319c1.139,0,2.064,0.925,2.064,2.064v1.74C22.217,18.322,20.57,19.969,18.544,19.969
			 M14.834,13.6c-0.527,0-0.956,0.43-0.956,0.957v1.74c0,1.414,1.151,2.566,2.565,2.566h2.101c1.415,0,2.566-1.152,2.566-2.566
			v-1.74c0-0.527-0.429-0.957-0.957-0.957H14.834z"/>
		<rect x="11.915" y="14.691" clip-path="url(#SVGID_30_)" fill="#333334" width="1.468" height="1.116"/>
		<path clip-path="url(#SVGID_30_)" fill="#333334" d="M29.766,19.969h-2.102c-2.024,0-3.672-1.647-3.672-3.672v-1.74
			c0-1.139,0.925-2.064,2.063-2.064h5.318c1.138,0,2.064,0.925,2.064,2.064v1.74C33.439,18.322,31.791,19.969,29.766,19.969
			 M26.056,13.6c-0.527,0-0.956,0.43-0.956,0.957v1.74c0,1.414,1.149,2.566,2.564,2.566h2.102c1.414,0,2.564-1.152,2.564-2.566
			v-1.74c0-0.527-0.427-0.957-0.956-0.957H26.056z"/>
		<rect x="32.828" y="14.691" clip-path="url(#SVGID_30_)" fill="#333334" width="1.468" height="1.116"/>
		<rect x="21.898" y="14.691" clip-path="url(#SVGID_30_)" fill="#333334" width="2.761" height="1.116"/>
		<path clip-path="url(#SVGID_30_)" fill="#FFFFFF" d="M18.741,25.64c0,1.646,1.734,2.97,4.485,2.97c2.85,0,4.486-1.324,4.486-2.97
			H18.741z"/>
		<path clip-path="url(#SVGID_30_)" fill="#574639" d="M15.721,4.809c2.214,2.1,14.467,1.266,14.467,1.266
			c-0.212-0.303-0.808-0.484-1.166-0.515c1.989,0.095,4.468,2.16,4.468,3.721c0,0.511,0.368,0.361,0.359,0.34
			C34.446-2.26,18.053-0.943,15.437,2.068c-2.768,0.596-3.383,2.71-3.072,6.493C12.365,8.561,15.494,6.171,15.721,4.809"/>
		<path clip-path="url(#SVGID_30_)" d="M29.298,15.849c0,0.378-0.308,0.685-0.687,0.685c-0.377,0-0.684-0.307-0.684-0.685
			s0.307-0.686,0.684-0.686C28.991,15.163,29.298,15.471,29.298,15.849"/>
		<path clip-path="url(#SVGID_30_)" d="M18.282,15.849c0,0.378-0.307,0.685-0.685,0.685s-0.685-0.307-0.685-0.685
			s0.307-0.686,0.685-0.686S18.282,15.471,18.282,15.849"/>
		<path clip-path="url(#SVGID_30_)" fill="#939598" d="M23.197,27.221c-1.125,0-2.311-0.073-3.813-0.243l0.01-0.085
			c3.162,0.357,4.92,0.289,7.667,0l0.009,0.085C25.62,27.13,24.447,27.221,23.197,27.221"/>
	</g>
</g>
</svg>
