<?xml version="1.0" encoding="utf-8"?>
<!-- Generator: Adobe Illustrator 15.1.0, SVG Export Plug-In . SVG Version: 6.00 Build 0)  -->
<!DOCTYPE svg PUBLIC "-//W3C//DTD SVG 1.1//EN" "http://www.w3.org/Graphics/SVG/1.1/DTD/svg11.dtd">
<svg version="1.1" id="Layer_1" xmlns="http://www.w3.org/2000/svg" xmlns:xlink="http://www.w3.org/1999/xlink" x="0px" y="0px"
	 width="50.391px" height="51.834px" viewBox="0 0 50.391 51.834" enable-background="new 0 0 50.391 51.834" xml:space="preserve">
<g>
	<defs>
		<rect id="SVGID_1_" y="-4.003" width="50.391" height="65.963"/>
	</defs>
	<clipPath id="SVGID_2_">
		<use xlink:href="#SVGID_1_"  overflow="visible"/>
	</clipPath>
	<g clip-path="url(#SVGID_2_)">
		<defs>
			<rect id="SVGID_3_" y="-4.003" width="50.391" height="65.963"/>
		</defs>
		<clipPath id="SVGID_4_">
			<use xlink:href="#SVGID_3_"  overflow="visible"/>
		</clipPath>
		<path clip-path="url(#SVGID_4_)" fill="none" stroke="#00B3D9" stroke-width="2" stroke-miterlimit="10" d="M40.897,10.836
			c4.019,4.018,6.505,9.569,6.505,15.702c0,12.264-9.943,22.207-22.207,22.207c-12.264,0-22.207-9.943-22.207-22.207
			c0-12.265,9.942-22.205,22.207-22.205C31.327,4.333,36.878,6.817,40.897,10.836z"/>
		<path clip-path="url(#SVGID_4_)" fill="none" stroke="#F9C415" stroke-width="2" stroke-miterlimit="10" d="M42.302,9.43
			c4.381,4.377,7.09,10.426,7.09,17.108c0,13.364-10.833,24.197-24.196,24.197C11.833,50.734,1,39.901,1,26.538
			C1,13.173,11.833,2.344,25.195,2.344C31.875,2.344,37.924,5.051,42.302,9.43z"/>
	</g>
	<g clip-path="url(#SVGID_2_)">
		<defs>
			<path id="SVGID_5_" d="M2.965,26.632c0,12.279,9.953,22.233,22.232,22.233c12.277,0,22.232-9.954,22.232-22.233
				c0-12.278-9.955-22.231-22.232-22.231C12.918,4.401,2.965,14.354,2.965,26.632"/>
		</defs>
		<clipPath id="SVGID_6_">
			<use xlink:href="#SVGID_5_"  overflow="visible"/>
		</clipPath>
		<path clip-path="url(#SVGID_6_)" fill="#FFFFFF" d="M47.431,26.632c0,12.279-9.955,22.233-22.233,22.233
			c-12.279,0-22.233-9.954-22.233-22.233c0-12.278,9.954-22.231,22.233-22.231C37.476,4.401,47.431,14.354,47.431,26.632"/>
		<path clip-path="url(#SVGID_6_)" fill="#558DB8" d="M40.501,61.96H9.896V45.812c0-4.647,3.768-8.416,8.416-8.416h13.773
			c4.646,0,8.416,3.769,8.416,8.416V61.96z"/>
		<path clip-path="url(#SVGID_6_)" fill="#D7D6DE" d="M15.924,24.753c0.367,5.61-4.728,17.635,0.979,25.344
			c2.344,3.165,8.903,2.214,8.903,2.214s5.359,3.841-3.834-8.348c-3.663-4.855-2.3-12.309-2.3-12.309L15.924,24.753z"/>
	</g>
	<g clip-path="url(#SVGID_2_)">
		<defs>
			<rect id="SVGID_7_" y="-4.003" width="50.391" height="65.963"/>
		</defs>
		<clipPath id="SVGID_8_">
			<use xlink:href="#SVGID_7_"  overflow="visible"/>
		</clipPath>
		
			<circle clip-path="url(#SVGID_8_)" fill="none" stroke="#00B3D9" stroke-width="2" stroke-miterlimit="10" cx="25.198" cy="26.632" r="22.233"/>
	</g>
	<g clip-path="url(#SVGID_2_)">
		<defs>
			<path id="SVGID_9_" d="M19.571,24.467v12.614c0,3.097,2.511,5.606,5.608,5.606c3.06,0,5.54-2.479,5.54-5.538V24.467H19.571z"/>
		</defs>
		<clipPath id="SVGID_10_">
			<use xlink:href="#SVGID_9_"  overflow="visible"/>
		</clipPath>
		<path clip-path="url(#SVGID_10_)" fill="#F3B09D" d="M30.719,37.148c0,3.06-2.479,5.54-5.539,5.54
			c-3.098,0-5.607-2.511-5.607-5.607V24.466h11.146V37.148z"/>
		<g opacity="0.4" clip-path="url(#SVGID_10_)">
			<g>
				<defs>
					<rect id="SVGID_11_" x="17.744" y="30.212" width="15.592" height="11.309"/>
				</defs>
				<clipPath id="SVGID_12_">
					<use xlink:href="#SVGID_11_"  overflow="visible"/>
				</clipPath>
				<path clip-path="url(#SVGID_12_)" fill="#E58871" d="M18.082,32.118c6.261,1.552,9.632,4.735,11.407,9.402l3.849-2.295
					l-0.102-8.945l-15.492-0.068L18.082,32.118z"/>
			</g>
		</g>
	</g>
	<g clip-path="url(#SVGID_2_)">
		<defs>
			<rect id="SVGID_13_" y="-4.003" width="50.391" height="65.963"/>
		</defs>
		<clipPath id="SVGID_14_">
			<use xlink:href="#SVGID_13_"  overflow="visible"/>
		</clipPath>
		<path clip-path="url(#SVGID_14_)" fill="#F3B09D" d="M38.855,15.952c0,1.33-1.016,2.408-2.268,2.408
			c-1.253,0-2.266-1.078-2.266-2.408c0-1.328,1.013-2.405,2.266-2.405C37.84,13.547,38.855,14.624,38.855,15.952"/>
		<path clip-path="url(#SVGID_14_)" fill="#F3B09D" d="M16.408,15.952c0,1.33-1.015,2.408-2.267,2.408
			c-1.251,0-2.266-1.078-2.266-2.408c0-1.328,1.015-2.405,2.266-2.405C15.393,13.547,16.408,14.624,16.408,15.952"/>
	</g>
	<g clip-path="url(#SVGID_2_)">
		<defs>
			<path id="SVGID_15_" d="M16.936,3.624c-2.108,2.145-3.265,5.049-3.21,8.057l0.181,10.162c0.053,2.896,1.461,5.597,3.807,7.297
				l5.169,3.746c1.449,1.052,3.41,1.055,4.862,0.008l5.228-3.761c2.355-1.694,3.774-4.399,3.83-7.299l0.183-9.276
				c0.063-3.236-1.179-6.364-3.446-8.674c-2.266-2.311-5.366-3.615-8.605-3.615C21.926,0.269,19.044,1.478,16.936,3.624"/>
		</defs>
		<clipPath id="SVGID_16_">
			<use xlink:href="#SVGID_15_"  overflow="visible"/>
		</clipPath>
		<path clip-path="url(#SVGID_16_)" fill="#F3B09D" d="M36.803,21.834c-0.057,2.9-1.476,5.604-3.829,7.299l-5.229,3.762
			c-1.453,1.046-3.413,1.043-4.863-0.008l-5.169-3.747c-2.345-1.7-3.754-4.402-3.806-7.296l-0.182-10.163
			c-0.054-3.008,1.103-5.911,3.211-8.057c2.108-2.145,4.99-3.354,7.998-3.354c3.238,0,6.339,1.302,8.605,3.614
			c2.269,2.31,3.509,5.437,3.446,8.674L36.803,21.834z"/>
		<g opacity="0.2" clip-path="url(#SVGID_16_)">
			<g>
				<defs>
					<rect id="SVGID_17_" x="18.349" y="6.923" width="14.014" height="7.007"/>
				</defs>
				<clipPath id="SVGID_18_">
					<use xlink:href="#SVGID_17_"  overflow="visible"/>
				</clipPath>
				<path clip-path="url(#SVGID_18_)" fill="#E58871" d="M18.349,13.93c0-3.869,3.137-7.007,7.006-7.007
					c3.87,0,7.008,3.138,7.008,7.007"/>
			</g>
		</g>
		<path clip-path="url(#SVGID_16_)" fill="#7A6353" d="M34.46,13.14c0,0-0.018-0.01-0.051-0.031
			c-0.033-0.019-0.081-0.053-0.144-0.084c-0.032-0.016-0.066-0.032-0.104-0.051c-0.037-0.018-0.077-0.037-0.126-0.054
			c-0.046-0.017-0.095-0.035-0.146-0.055c-0.052-0.016-0.108-0.031-0.167-0.048c-0.06-0.019-0.119-0.033-0.185-0.047
			c-0.063-0.013-0.13-0.031-0.199-0.041c-0.068-0.01-0.141-0.022-0.215-0.033c-0.071-0.011-0.146-0.017-0.223-0.025
			c-0.075-0.01-0.153-0.014-0.231-0.018c-0.08-0.005-0.159-0.013-0.239-0.013c-0.161-0.006-0.325-0.009-0.489-0.004
			c-0.163,0-0.328,0.012-0.489,0.019c-0.161,0.011-0.318,0.022-0.473,0.038c-0.153,0.016-0.301,0.028-0.441,0.048
			c-0.14,0.019-0.271,0.035-0.393,0.054c-0.246,0.038-0.447,0.07-0.588,0.097c-0.143,0.026-0.222,0.041-0.222,0.041l-0.006,0.001
			c-0.141,0.025-0.271-0.067-0.298-0.207c-0.024-0.138,0.068-0.272,0.206-0.297c0.005-0.001,0.014-0.002,0.02-0.002
			c0,0,0.084-0.009,0.229-0.025c0.147-0.017,0.357-0.035,0.608-0.056c0.126-0.01,0.263-0.016,0.407-0.023
			c0.145-0.01,0.297-0.012,0.455-0.017c0.157-0.004,0.32-0.003,0.486-0.003c0.167,0.006,0.335,0.006,0.503,0.02
			c0.17,0.007,0.337,0.022,0.502,0.04c0.084,0.005,0.165,0.021,0.246,0.031c0.08,0.011,0.161,0.021,0.241,0.038
			c0.076,0.015,0.154,0.027,0.227,0.043c0.075,0.018,0.148,0.033,0.22,0.051c0.071,0.015,0.139,0.039,0.204,0.058
			c0.066,0.019,0.13,0.039,0.189,0.062s0.118,0.042,0.172,0.064c0.054,0.026,0.103,0.049,0.151,0.071
			c0.047,0.02,0.09,0.044,0.129,0.068c0.04,0.022,0.078,0.043,0.11,0.062c0.062,0.041,0.104,0.076,0.139,0.098
			c0.032,0.023,0.048,0.036,0.048,0.036c0.027,0.018,0.032,0.054,0.013,0.079C34.521,13.151,34.485,13.158,34.46,13.14"/>
		<path clip-path="url(#SVGID_16_)" fill="#D7D6DE" d="M16.187,13.046c0,0,0.017-0.014,0.048-0.036
			c0.033-0.023,0.077-0.058,0.139-0.098c0.034-0.019,0.07-0.04,0.11-0.062c0.039-0.025,0.083-0.048,0.13-0.069
			c0.048-0.021,0.098-0.045,0.151-0.07c0.054-0.022,0.111-0.041,0.172-0.064c0.059-0.023,0.122-0.043,0.189-0.062
			c0.065-0.019,0.133-0.043,0.204-0.059c0.071-0.017,0.144-0.033,0.219-0.05c0.075-0.016,0.151-0.029,0.229-0.043
			c0.079-0.017,0.159-0.028,0.239-0.038c0.081-0.01,0.163-0.026,0.246-0.032c0.165-0.017,0.333-0.032,0.502-0.04
			c0.169-0.013,0.337-0.013,0.504-0.019c0.165,0,0.328-0.001,0.486,0.003c0.158,0.005,0.311,0.007,0.455,0.016
			c0.145,0.008,0.282,0.014,0.408,0.024c0.252,0.02,0.462,0.039,0.607,0.055c0.147,0.017,0.231,0.026,0.231,0.026
			c0.14,0.014,0.242,0.139,0.227,0.281c-0.015,0.141-0.14,0.242-0.281,0.228c-0.007,0-0.012-0.002-0.018-0.003l-0.006-0.001
			c0,0-0.081-0.015-0.222-0.041c-0.141-0.028-0.344-0.059-0.588-0.097c-0.122-0.02-0.254-0.035-0.394-0.055
			c-0.14-0.019-0.288-0.031-0.441-0.048c-0.153-0.015-0.312-0.026-0.473-0.038c-0.16-0.006-0.324-0.018-0.489-0.018
			c-0.164-0.005-0.327-0.002-0.488,0.004c-0.081,0-0.16,0.008-0.239,0.012s-0.157,0.009-0.233,0.019
			c-0.076,0.008-0.151,0.014-0.224,0.024c-0.072,0.012-0.144,0.024-0.213,0.034c-0.069,0.009-0.134,0.028-0.199,0.041
			c-0.064,0.013-0.126,0.028-0.184,0.047c-0.059,0.017-0.116,0.032-0.168,0.047c-0.052,0.021-0.101,0.038-0.147,0.056
			c-0.048,0.017-0.088,0.036-0.125,0.054c-0.038,0.018-0.072,0.035-0.104,0.05c-0.063,0.032-0.111,0.066-0.144,0.084
			c-0.034,0.022-0.052,0.032-0.052,0.032c-0.026,0.018-0.062,0.01-0.079-0.018C16.155,13.096,16.163,13.063,16.187,13.046"/>
		<g opacity="0.5" clip-path="url(#SVGID_16_)">
			<g>
				<defs>
					<rect id="SVGID_19_" x="14.28" y="13.891" width="22.152" height="3.499"/>
				</defs>
				<clipPath id="SVGID_20_">
					<use xlink:href="#SVGID_19_"  overflow="visible"/>
				</clipPath>
				<path clip-path="url(#SVGID_20_)" fill="#E58871" d="M36.432,17.39c0-1.933-1.744-3.499-3.897-3.499H18.178
					c-2.153,0-3.898,1.566-3.898,3.499H36.432z"/>
			</g>
		</g>
		<g opacity="0.2" clip-path="url(#SVGID_16_)">
			<g>
				<defs>
					<rect id="SVGID_21_" x="22.477" y="9.775" width="25.557" height="29.784"/>
				</defs>
				<clipPath id="SVGID_22_">
					<use xlink:href="#SVGID_21_"  overflow="visible"/>
				</clipPath>
				<path clip-path="url(#SVGID_22_)" fill="#E58871" d="M22.477,34.053l6.943,5.507l9.172-3.511c0,0,9.631-17.225,9.439-17.471
					c-0.193-0.246-6.49-8.802-6.49-8.802l-7.343,3.446C32.977,28.565,22.477,34.053,22.477,34.053"/>
			</g>
		</g>
		<path clip-path="url(#SVGID_16_)" fill="#5A5B5D" d="M33.677,16.762c-0.019,0-0.037-0.005-0.056-0.014
			c-0.207-0.102-0.403-0.123-0.673-0.127h-0.083l-0.034-0.078c-0.29-0.702-0.97-1.155-1.73-1.155c-0.76,0-1.439,0.453-1.731,1.155
			c-0.027,0.065-0.101,0.097-0.168,0.07c-0.065-0.028-0.095-0.103-0.068-0.168c0.331-0.798,1.104-1.314,1.968-1.314
			c0.837,0,1.586,0.484,1.934,1.236c0.221,0.005,0.455,0.031,0.7,0.153c0.063,0.031,0.09,0.108,0.058,0.17
			C33.771,16.736,33.725,16.762,33.677,16.762"/>
	</g>
	<g clip-path="url(#SVGID_2_)">
		<defs>
			<path id="SVGID_23_" d="M29.133,16.444c-0.026,0.066,0.004,0.141,0.068,0.169c0.066,0.027,0.142-0.006,0.169-0.07
				c0.291-0.702,0.972-1.155,1.729-1.155c0.762,0,1.441,0.453,1.731,1.155l0.034,0.078h0.084c0.269,0.004,0.465,0.025,0.672,0.127
				c0.018,0.009,0.038,0.014,0.056,0.014c0.047,0,0.093-0.027,0.115-0.073c0.033-0.061,0.007-0.139-0.058-0.169
				c-0.245-0.123-0.479-0.148-0.699-0.153c-0.35-0.753-1.099-1.236-1.936-1.236C30.236,15.131,29.464,15.647,29.133,16.444"/>
		</defs>
		<clipPath id="SVGID_24_">
			<use xlink:href="#SVGID_23_"  overflow="visible"/>
		</clipPath>
		<path clip-path="url(#SVGID_24_)" fill="#5A5B5D" d="M32.951,16.621c-0.051,0-0.099-0.029-0.119-0.078
			c-0.29-0.702-0.972-1.155-1.732-1.155c-0.758,0-1.438,0.453-1.729,1.155c-0.027,0.064-0.103,0.097-0.168,0.069
			c-0.065-0.027-0.097-0.102-0.068-0.168c0.331-0.798,1.103-1.313,1.966-1.313c0.866,0,1.638,0.515,1.968,1.313
			c0.028,0.066-0.004,0.141-0.068,0.168C32.982,16.618,32.967,16.621,32.951,16.621"/>
	</g>
	<g clip-path="url(#SVGID_2_)">
		<defs>
			<path id="SVGID_25_" d="M16.936,3.624c-2.108,2.145-3.265,5.049-3.21,8.057l0.181,10.162c0.053,2.896,1.461,5.597,3.807,7.297
				l5.169,3.746c1.449,1.052,3.41,1.055,4.862,0.008l5.228-3.761c2.355-1.694,3.774-4.399,3.83-7.299l0.183-9.276
				c0.063-3.236-1.179-6.364-3.446-8.674c-2.266-2.311-5.366-3.615-8.605-3.615C21.926,0.269,19.044,1.478,16.936,3.624"/>
		</defs>
		<clipPath id="SVGID_26_">
			<use xlink:href="#SVGID_25_"  overflow="visible"/>
		</clipPath>
		<path clip-path="url(#SVGID_26_)" fill="#5A5B5D" d="M17.069,16.762c-0.047,0-0.092-0.026-0.114-0.072
			c-0.032-0.062-0.006-0.139,0.057-0.17c0.245-0.122,0.479-0.148,0.7-0.153c0.348-0.752,1.098-1.236,1.934-1.236
			c0.864,0,1.636,0.516,1.967,1.314c0.028,0.065-0.003,0.14-0.068,0.168c-0.066,0.027-0.141-0.005-0.167-0.07
			c-0.292-0.702-0.972-1.155-1.732-1.155c-0.761,0-1.44,0.453-1.732,1.155l-0.032,0.078h-0.085
			c-0.269,0.004-0.465,0.025-0.671,0.127C17.108,16.757,17.088,16.762,17.069,16.762"/>
	</g>
	<g clip-path="url(#SVGID_2_)">
		<defs>
			<path id="SVGID_27_" d="M17.712,16.367c-0.22,0.005-0.454,0.03-0.7,0.153c-0.063,0.03-0.088,0.108-0.057,0.169
				c0.022,0.046,0.068,0.073,0.114,0.073c0.019,0,0.039-0.005,0.057-0.014c0.206-0.102,0.402-0.123,0.672-0.127h0.084l0.033-0.078
				c0.291-0.702,0.971-1.155,1.731-1.155c0.761,0,1.44,0.453,1.732,1.155c0.027,0.064,0.101,0.097,0.167,0.07
				c0.066-0.028,0.096-0.103,0.068-0.169c-0.331-0.797-1.103-1.313-1.967-1.313C18.811,15.131,18.06,15.614,17.712,16.367"/>
		</defs>
		<clipPath id="SVGID_28_">
			<use xlink:href="#SVGID_27_"  overflow="visible"/>
		</clipPath>
		<path clip-path="url(#SVGID_28_)" fill="#5A5B5D" d="M21.496,16.621c-0.05,0-0.097-0.029-0.118-0.078
			c-0.291-0.702-0.971-1.155-1.731-1.155c-0.761,0-1.441,0.453-1.732,1.155c-0.027,0.064-0.102,0.097-0.167,0.069
			c-0.065-0.027-0.096-0.102-0.069-0.168c0.331-0.798,1.103-1.313,1.968-1.313c0.864,0,1.636,0.515,1.967,1.313
			c0.028,0.066-0.003,0.141-0.069,0.168C21.529,16.618,21.513,16.621,21.496,16.621"/>
	</g>
	<g clip-path="url(#SVGID_2_)">
		<defs>
			<path id="SVGID_29_" d="M16.936,3.624c-2.108,2.145-3.265,5.049-3.21,8.057l0.181,10.162c0.053,2.896,1.461,5.597,3.807,7.297
				l5.169,3.746c1.449,1.052,3.41,1.055,4.862,0.008l5.228-3.761c2.355-1.694,3.774-4.399,3.83-7.299l0.183-9.276
				c0.063-3.236-1.179-6.364-3.446-8.674c-2.266-2.311-5.366-3.615-8.605-3.615C21.926,0.269,19.044,1.478,16.936,3.624"/>
		</defs>
		<clipPath id="SVGID_30_">
			<use xlink:href="#SVGID_29_"  overflow="visible"/>
		</clipPath>
		<g opacity="0.2" clip-path="url(#SVGID_30_)">
			<g>
				<defs>
					<rect id="SVGID_31_" x="15.936" y="17.808" width="4.576" height="4.577"/>
				</defs>
				<clipPath id="SVGID_32_">
					<use xlink:href="#SVGID_31_"  overflow="visible"/>
				</clipPath>
				<path clip-path="url(#SVGID_32_)" fill="#E58871" d="M20.512,20.096c0,1.264-1.024,2.289-2.288,2.289
					c-1.263,0-2.288-1.025-2.288-2.289s1.025-2.288,2.288-2.288C19.488,17.808,20.512,18.832,20.512,20.096"/>
			</g>
		</g>
		<g opacity="0.2" clip-path="url(#SVGID_30_)">
			<g>
				<defs>
					<rect id="SVGID_33_" x="30.199" y="17.808" width="4.575" height="4.577"/>
				</defs>
				<clipPath id="SVGID_34_">
					<use xlink:href="#SVGID_33_"  overflow="visible"/>
				</clipPath>
				<path clip-path="url(#SVGID_34_)" fill="#E58871" d="M34.774,20.096c0,1.264-1.023,2.289-2.286,2.289
					c-1.266,0-2.288-1.025-2.288-2.289s1.022-2.288,2.288-2.288C33.751,17.808,34.774,18.832,34.774,20.096"/>
			</g>
		</g>
		<path clip-path="url(#SVGID_30_)" fill="#ED877B" d="M26.797,22.218c-0.796,0.795-2.084,0.795-2.879,0l-0.571-0.571
			c-0.071-0.071-0.092-0.177-0.053-0.269c0.038-0.092,0.128-0.152,0.228-0.152h3.671c0.1,0,0.19,0.06,0.228,0.152
			c0.038,0.092,0.019,0.198-0.053,0.269L26.797,22.218z"/>
		<g opacity="0.5" clip-path="url(#SVGID_30_)">
			<g>
				<defs>
					<rect id="SVGID_35_" x="24.522" y="20.303" width="1.893" height="0.946"/>
				</defs>
				<clipPath id="SVGID_36_">
					<use xlink:href="#SVGID_35_"  overflow="visible"/>
				</clipPath>
				<path clip-path="url(#SVGID_36_)" fill="#E58871" d="M24.522,21.249c0-0.522,0.424-0.946,0.947-0.946
					c0.523,0,0.947,0.424,0.947,0.946H24.522z"/>
			</g>
		</g>
		<g opacity="0.5" clip-path="url(#SVGID_30_)">
			<g>
				<defs>
					<rect id="SVGID_37_" x="25.554" y="16.508" width="1.804" height="5.036"/>
				</defs>
				<clipPath id="SVGID_38_">
					<use xlink:href="#SVGID_37_"  overflow="visible"/>
				</clipPath>
				<polygon clip-path="url(#SVGID_38_)" fill="#E58871" points="25.554,21.544 25.554,16.508 27.357,21.397 				"/>
			</g>
		</g>
	</g>
	<g clip-path="url(#SVGID_2_)">
		<defs>
			<path id="SVGID_39_" d="M22.712,25.195c-0.134,0-0.26,0.066-0.337,0.175c-0.077,0.109-0.096,0.249-0.051,0.376
				c0.347,0.982,1.604,1.709,3.101,1.709c1.498,0,2.754-0.727,3.103-1.709c0.044-0.127,0.025-0.267-0.053-0.376
				c-0.076-0.109-0.202-0.175-0.336-0.175H22.712z"/>
		</defs>
		<clipPath id="SVGID_40_">
			<use xlink:href="#SVGID_39_"  overflow="visible"/>
		</clipPath>
		<path clip-path="url(#SVGID_40_)" fill="#D46A6B" d="M28.139,25.195c0.134,0,0.26,0.065,0.337,0.175
			c0.076,0.109,0.097,0.249,0.052,0.376c-0.348,0.981-1.605,1.709-3.103,1.709c-1.497,0-2.753-0.728-3.102-1.709
			c-0.045-0.127-0.025-0.267,0.052-0.376c0.077-0.11,0.203-0.175,0.337-0.175H28.139z"/>
		<path clip-path="url(#SVGID_40_)" fill="#FFFFFF" d="M28.353,24.805c0,0.771-1.311,1.397-2.925,1.397
			c-1.615,0-2.923-0.626-2.923-1.397c0-0.772,1.308-1.399,2.923-1.399C27.042,23.406,28.353,24.033,28.353,24.805"/>
	</g>
	<g clip-path="url(#SVGID_2_)">
		<defs>
			<path id="SVGID_41_" d="M16.685,3.752c-3.211,2.198-3.879,6.246-3.018,11.584c2.183-2.187,3.402-4.548,4.265-8.893
				c4.343,4.79,10.315,8.154,18.771,11.091C39.509,6.081,32.041-0.002,24.985-0.003C21.811-0.003,18.721,1.227,16.685,3.752"/>
		</defs>
		<clipPath id="SVGID_42_">
			<use xlink:href="#SVGID_41_"  overflow="visible"/>
		</clipPath>
		<path clip-path="url(#SVGID_42_)" fill="#D7D6DE" d="M17.933,6.442c4.343,4.791,10.202,8.438,18.77,11.092
			C40.771,0.928,23.249-4.387,16.686,3.752c-3.211,2.198-3.88,6.205-3.019,11.541C15.85,13.106,17.07,10.789,17.933,6.442"/>
		<path clip-path="url(#SVGID_42_)" fill="#E3E2E8" d="M13.141,9.485c3.692-8.632,23.115,0.257,23.256-8.036L26.232-4.002
			l-13.744,4.97L13.141,9.485z"/>
	</g>
</g>
</svg>
