<svg version="1.1" id="Layer_1" xmlns="http://www.w3.org/2000/svg" xmlns:xlink="http://www.w3.org/1999/xlink" x="0px" y="0px" width="46.648px" height="49.739px" viewBox="0 0 46.648 49.739" enable-background="new 0 0 46.648 49.739" xml:space="preserve">
<g>
	<g>
		<defs>
			<path id="SVGID_1_" d="M1.035,26.151c0,12.312,9.979,22.29,22.289,22.29c12.31,0,22.289-9.979,22.289-22.29
				c0-12.309-9.979-22.287-22.289-22.287C11.014,3.864,1.035,13.842,1.035,26.151"/>
		</defs>
		<clipPath id="SVGID_2_">
			<use xlink:href="#SVGID_1_"  overflow="visible"/>
		</clipPath>
		<path clip-path="url(#SVGID_2_)" fill="#FFFFFF" d="M45.613,26.151c0,12.312-9.979,22.29-22.289,22.29
			c-12.31,0-22.29-9.979-22.29-22.29c0-12.309,9.98-22.287,22.29-22.287C35.635,3.864,45.613,13.842,45.613,26.151"/>
		<polygon clip-path="url(#SVGID_2_)" fill="#655243" points="36.162,15.216 37.144,43.527 9.304,43.527 10.072,16.368 		"/>
		<path clip-path="url(#SVGID_2_)" fill="#4B7CA2" d="M38.665,61.572H7.981V45.381c0-4.66,3.778-8.438,8.438-8.438h13.808
			c4.66,0,8.438,3.778,8.438,8.438V61.572z"/>
	</g>
	<g>
		<defs>
			<rect id="SVGID_3_" y="0" width="46.648" height="61.572"/>
		</defs>
		<clipPath id="SVGID_4_">
			<use xlink:href="#SVGID_3_"  overflow="visible"/>
		</clipPath>
		
			<circle clip-path="url(#SVGID_4_)" fill="none" stroke="#F37E20" stroke-width="2" stroke-miterlimit="10" cx="23.324" cy="26.152" r="22.324"/>
	</g>
	<g>
		<defs>
			<path id="SVGID_5_" d="M17.686,25.439v11.729c0,3.105,2.516,5.622,5.62,5.622c3.068,0,5.555-2.486,5.555-5.554V25.439H17.686z"/>
		</defs>
		<clipPath id="SVGID_6_">
			<use xlink:href="#SVGID_5_"  overflow="visible"/>
		</clipPath>
		<path clip-path="url(#SVGID_6_)" fill="#F3B09D" d="M28.86,37.236c0,3.067-2.486,5.554-5.554,5.554
			c-3.104,0-5.621-2.517-5.621-5.621V25.439H28.86V37.236z"/>
		<g opacity="0.4" clip-path="url(#SVGID_6_)">
			<g>
				<defs>
					<rect id="SVGID_7_" x="15.852" y="31.198" width="15.632" height="10.422"/>
				</defs>
				<clipPath id="SVGID_8_">
					<use xlink:href="#SVGID_7_"  overflow="visible"/>
				</clipPath>
				<path clip-path="url(#SVGID_8_)" fill="#E58871" d="M16.191,33.109c6.276,1.556,9.656,3.831,11.435,8.511l3.858-2.303
					l-0.104-8.053l-15.529-0.066L16.191,33.109z"/>
			</g>
		</g>
	</g>
	<g>
		<defs>
			<rect id="SVGID_9_" y="0" width="46.648" height="61.572"/>
		</defs>
		<clipPath id="SVGID_10_">
			<use xlink:href="#SVGID_9_"  overflow="visible"/>
		</clipPath>
		<path clip-path="url(#SVGID_10_)" fill="#F3B09D" d="M37.017,16.902c0,1.332-1.018,2.414-2.272,2.414s-2.273-1.082-2.273-2.414
			s1.019-2.411,2.273-2.411S37.017,15.57,37.017,16.902"/>
		<path clip-path="url(#SVGID_10_)" fill="#F3B09D" d="M14.513,16.902c0,1.332-1.017,2.414-2.272,2.414
			c-1.256,0-2.273-1.082-2.273-2.414s1.017-2.411,2.273-2.411C13.496,14.491,14.513,15.57,14.513,16.902"/>
		<path clip-path="url(#SVGID_10_)" fill="#558DB8" d="M11.652,18.59c0,0.165-0.134,0.299-0.299,0.299s-0.298-0.134-0.298-0.299
			c0-0.166,0.133-0.299,0.298-0.299S11.652,18.424,11.652,18.59"/>
		<path clip-path="url(#SVGID_10_)" fill="#558DB8" d="M35.906,18.59c0,0.165-0.135,0.299-0.3,0.299
			c-0.164,0-0.298-0.134-0.298-0.299c0-0.166,0.134-0.299,0.298-0.299C35.771,18.291,35.906,18.424,35.906,18.59"/>
	</g>
	<g>
		<defs>
			<path id="SVGID_11_" d="M23.06,1.179c-3.016,0-5.905,1.213-8.017,3.364c-2.114,2.151-3.274,5.06-3.22,8.076l0.183,10.19
				c0.052,2.902,1.466,5.611,3.816,7.315l5.182,3.756c1.454,1.053,3.417,1.058,4.875,0.008l5.241-3.77
				c2.362-1.699,3.786-4.411,3.842-7.321l0.18-9.299c0.064-3.244-1.181-6.378-3.453-8.695C29.416,2.485,26.307,1.179,23.06,1.179
				L23.06,1.179z"/>
		</defs>
		<clipPath id="SVGID_12_">
			<use xlink:href="#SVGID_11_"  overflow="visible"/>
		</clipPath>
		<path clip-path="url(#SVGID_12_)" fill="#F3B09D" d="M34.962,22.798c-0.057,2.909-1.48,5.621-3.842,7.32l-5.241,3.77
			c-1.457,1.049-3.421,1.045-4.875-0.008l-5.182-3.756c-2.35-1.703-3.764-4.412-3.816-7.314l-0.182-10.191
			c-0.054-3.015,1.106-5.925,3.219-8.076c2.112-2.151,5.001-3.363,8.017-3.363h0.001c3.246,0,6.355,1.306,8.628,3.623
			s3.518,5.451,3.454,8.696L34.962,22.798z"/>
		<g opacity="0.2" clip-path="url(#SVGID_12_)">
			<g>
				<defs>
					<rect id="SVGID_13_" x="16.458" y="7.851" width="14.05" height="7.024"/>
				</defs>
				<clipPath id="SVGID_14_">
					<use xlink:href="#SVGID_13_"  overflow="visible"/>
				</clipPath>
				<path clip-path="url(#SVGID_14_)" fill="#E58871" d="M16.458,14.875c0-3.879,3.145-7.024,7.025-7.024
					c3.879,0,7.025,3.145,7.025,7.024"/>
			</g>
		</g>
		<path clip-path="url(#SVGID_12_)" fill="#7A6353" d="M32.61,14.084c0,0-0.017-0.013-0.051-0.032
			c-0.032-0.019-0.082-0.053-0.145-0.085c-0.032-0.015-0.066-0.032-0.104-0.051c-0.037-0.019-0.078-0.037-0.126-0.053
			c-0.046-0.017-0.095-0.037-0.146-0.055c-0.053-0.019-0.111-0.034-0.169-0.051c-0.059-0.019-0.119-0.033-0.185-0.046
			c-0.065-0.012-0.131-0.032-0.199-0.04c-0.07-0.012-0.141-0.023-0.214-0.033c-0.074-0.011-0.148-0.018-0.224-0.027
			c-0.077-0.008-0.155-0.014-0.234-0.018c-0.079-0.003-0.158-0.013-0.238-0.013c-0.162-0.004-0.326-0.007-0.49-0.003
			c-0.163,0-0.328,0.013-0.49,0.019c-0.162,0.011-0.321,0.022-0.475,0.037c-0.153,0.018-0.302,0.029-0.441,0.05
			c-0.143,0.019-0.273,0.034-0.396,0.052c-0.243,0.038-0.446,0.073-0.588,0.1c-0.142,0.024-0.223,0.039-0.223,0.039l-0.006,0.002
			c-0.141,0.024-0.273-0.066-0.298-0.207c-0.025-0.14,0.068-0.273,0.206-0.298c0.007,0,0.014-0.001,0.02-0.003
			c0,0,0.084-0.009,0.23-0.025c0.146-0.017,0.357-0.035,0.609-0.054c0.127-0.011,0.264-0.016,0.409-0.026
			c0.143-0.009,0.297-0.01,0.455-0.017c0.159-0.003,0.325-0.003,0.489-0.001c0.166,0.006,0.335,0.006,0.504,0.018
			c0.169,0.008,0.339,0.025,0.504,0.042c0.083,0.006,0.166,0.02,0.246,0.031c0.082,0.009,0.161,0.021,0.239,0.037
			c0.078,0.015,0.156,0.027,0.23,0.044c0.074,0.018,0.147,0.034,0.219,0.051c0.071,0.015,0.139,0.039,0.205,0.057
			c0.066,0.02,0.131,0.038,0.189,0.063c0.061,0.023,0.117,0.044,0.172,0.065c0.054,0.024,0.104,0.048,0.15,0.069
			c0.049,0.02,0.094,0.046,0.132,0.068c0.04,0.025,0.075,0.045,0.108,0.065c0.063,0.039,0.108,0.076,0.141,0.097
			c0.031,0.022,0.048,0.035,0.048,0.035c0.026,0.019,0.032,0.055,0.013,0.081C32.67,14.093,32.635,14.1,32.61,14.084"/>
		<path clip-path="url(#SVGID_12_)" fill="#7A6353" d="M14.291,13.987c0,0,0.017-0.014,0.049-0.035
			c0.032-0.022,0.075-0.059,0.139-0.098c0.033-0.019,0.069-0.039,0.109-0.064c0.04-0.023,0.083-0.048,0.131-0.069
			c0.048-0.02,0.099-0.045,0.152-0.068c0.053-0.021,0.111-0.042,0.171-0.065c0.06-0.025,0.124-0.043,0.189-0.063
			c0.067-0.018,0.134-0.042,0.206-0.058c0.071-0.016,0.145-0.033,0.219-0.05c0.075-0.017,0.152-0.03,0.23-0.044
			c0.078-0.016,0.158-0.029,0.24-0.037c0.081-0.011,0.163-0.026,0.246-0.032c0.165-0.016,0.334-0.034,0.503-0.042
			c0.169-0.011,0.338-0.011,0.505-0.017c0.166-0.002,0.33-0.002,0.488,0.001c0.159,0.007,0.312,0.008,0.457,0.016
			c0.145,0.011,0.282,0.016,0.407,0.027c0.253,0.018,0.464,0.037,0.61,0.053c0.147,0.017,0.231,0.026,0.231,0.026
			c0.141,0.016,0.243,0.141,0.228,0.283c-0.014,0.139-0.14,0.24-0.282,0.228c-0.006,0-0.012-0.003-0.018-0.003l-0.006-0.002
			c0,0-0.081-0.015-0.223-0.039c-0.142-0.028-0.345-0.062-0.588-0.1c-0.122-0.019-0.256-0.033-0.396-0.053s-0.289-0.031-0.442-0.049
			c-0.153-0.015-0.312-0.026-0.474-0.038c-0.162-0.005-0.326-0.018-0.49-0.018c-0.164-0.004-0.329-0.001-0.49,0.003
			c-0.081,0-0.161,0.01-0.24,0.012c-0.079,0.004-0.157,0.01-0.232,0.019c-0.076,0.009-0.152,0.016-0.225,0.026
			c-0.073,0.011-0.144,0.022-0.214,0.034c-0.069,0.007-0.135,0.028-0.199,0.04c-0.065,0.012-0.128,0.027-0.185,0.046
			c-0.058,0.017-0.116,0.032-0.168,0.05c-0.052,0.019-0.101,0.038-0.148,0.056c-0.047,0.016-0.088,0.034-0.126,0.053
			c-0.037,0.018-0.072,0.036-0.104,0.05c-0.062,0.033-0.111,0.067-0.144,0.085c-0.034,0.02-0.051,0.033-0.051,0.033
			c-0.027,0.016-0.063,0.008-0.08-0.018C14.26,14.038,14.267,14.005,14.291,13.987"/>
		<g opacity="0.5" clip-path="url(#SVGID_12_)">
			<g>
				<defs>
					<rect id="SVGID_15_" x="12.379" y="14.835" width="22.207" height="3.509"/>
				</defs>
				<clipPath id="SVGID_16_">
					<use xlink:href="#SVGID_15_"  overflow="visible"/>
				</clipPath>
				<path clip-path="url(#SVGID_16_)" fill="#E58871" d="M34.586,18.344c0-1.937-1.748-3.509-3.907-3.509H16.288
					c-2.159,0-3.909,1.572-3.909,3.509H34.586z"/>
			</g>
		</g>
		<path clip-path="url(#SVGID_12_)" fill="#F3B09D" d="M17.354,18.956c0,0.649-0.754,1.179-1.685,1.179s-1.685-0.53-1.685-1.179
			c0-0.651,0.754-1.177,1.685-1.177S17.354,18.305,17.354,18.956"/>
		<g opacity="0.2" clip-path="url(#SVGID_12_)">
			<g>
				<defs>
					<rect id="SVGID_17_" x="20.597" y="10.71" width="25.622" height="29.86"/>
				</defs>
				<clipPath id="SVGID_18_">
					<use xlink:href="#SVGID_17_"  overflow="visible"/>
				</clipPath>
				<path clip-path="url(#SVGID_18_)" fill="#E58871" d="M46.216,19.535c-0.192-0.247-6.507-8.825-6.507-8.825l-7.363,3.455
					c0.009,1.287-0.068,2.505-0.212,3.657c-0.146-0.029-0.296-0.043-0.452-0.043c-0.932,0-1.684,0.526-1.684,1.177
					c0,0.649,0.752,1.179,1.684,1.179c0.017,0,0.033-0.004,0.05-0.004c-2.103,9.466-9.001,13.797-11.135,14.917l6.962,5.522
					l9.194-3.521C36.753,37.049,46.407,19.781,46.216,19.535"/>
			</g>
		</g>
		<path clip-path="url(#SVGID_12_)" fill="#5A5B5D" d="M29.242,18.012c-0.866,0-1.641-0.518-1.972-1.316
			c-0.028-0.066,0.003-0.142,0.068-0.167c0.065-0.029,0.141,0.003,0.168,0.069c0.293,0.702,0.974,1.157,1.735,1.157
			s1.443-0.455,1.736-1.157l0.032-0.079l0.086-0.001c0.268-0.002,0.466-0.024,0.673-0.126c0.062-0.031,0.139-0.007,0.171,0.057
			c0.031,0.064,0.006,0.14-0.057,0.172c-0.247,0.122-0.481,0.146-0.704,0.152C30.831,17.529,30.079,18.012,29.242,18.012"/>
	</g>
	<g>
		<defs>
			<path id="SVGID_19_" d="M31.769,16.391c-0.207,0.103-0.404,0.124-0.673,0.126l-0.086,0.001l-0.031,0.079
				c-0.293,0.702-0.975,1.158-1.736,1.158s-1.442-0.456-1.735-1.158c-0.026-0.066-0.103-0.097-0.168-0.069
				c-0.064,0.025-0.097,0.102-0.067,0.167c0.329,0.799,1.104,1.316,1.971,1.316c0.837,0,1.589-0.483,1.938-1.239
				c0.223-0.006,0.457-0.029,0.703-0.151c0.063-0.033,0.089-0.108,0.058-0.173c-0.022-0.045-0.067-0.07-0.114-0.07
				C31.807,16.378,31.787,16.382,31.769,16.391"/>
		</defs>
		<clipPath id="SVGID_20_">
			<use xlink:href="#SVGID_19_"  overflow="visible"/>
		</clipPath>
		<path clip-path="url(#SVGID_20_)" fill="#5A5B5D" d="M29.242,18.012c-0.866,0-1.641-0.518-1.972-1.316
			c-0.028-0.066,0.003-0.142,0.068-0.167c0.065-0.029,0.141,0.003,0.168,0.069c0.293,0.702,0.974,1.157,1.735,1.157
			s1.443-0.455,1.736-1.157c0.026-0.066,0.102-0.098,0.166-0.069c0.066,0.025,0.097,0.101,0.07,0.167
			C30.883,17.494,30.107,18.012,29.242,18.012"/>
	</g>
	<g>
		<defs>
			<path id="SVGID_21_" d="M23.06,1.179c-3.016,0-5.905,1.213-8.017,3.364c-2.114,2.151-3.274,5.06-3.22,8.076l0.183,10.19
				c0.052,2.902,1.466,5.611,3.816,7.315l5.182,3.756c1.454,1.053,3.417,1.058,4.875,0.008l5.241-3.77
				c2.362-1.699,3.786-4.411,3.842-7.321l0.18-9.299c0.064-3.244-1.181-6.378-3.453-8.695C29.416,2.485,26.307,1.179,23.06,1.179
				L23.06,1.179z"/>
		</defs>
		<clipPath id="SVGID_22_">
			<use xlink:href="#SVGID_21_"  overflow="visible"/>
		</clipPath>
		<path clip-path="url(#SVGID_22_)" fill="#5A5B5D" d="M17.76,18.012c-0.838,0-1.59-0.483-1.939-1.239
			c-0.222-0.006-0.457-0.03-0.702-0.152c-0.063-0.032-0.089-0.108-0.058-0.172c0.032-0.064,0.108-0.088,0.172-0.057
			c0.207,0.102,0.403,0.124,0.673,0.126l0.085,0.001l0.033,0.079c0.292,0.702,0.974,1.157,1.736,1.157
			c0.761,0,1.443-0.455,1.735-1.157c0.028-0.066,0.102-0.097,0.168-0.069c0.066,0.025,0.097,0.101,0.069,0.167
			C19.4,17.494,18.626,18.012,17.76,18.012"/>
	</g>
	<g>
		<defs>
			<path id="SVGID_23_" d="M15.061,16.448c-0.031,0.065-0.005,0.14,0.058,0.173c0.245,0.122,0.48,0.145,0.702,0.151
				c0.348,0.756,1.101,1.239,1.939,1.239c0.866,0,1.64-0.517,1.972-1.316c0.028-0.065-0.003-0.142-0.07-0.167
				c-0.064-0.027-0.139,0.003-0.167,0.069c-0.293,0.702-0.974,1.158-1.735,1.158c-0.763,0-1.445-0.456-1.736-1.158l-0.033-0.079
				l-0.085-0.001c-0.269-0.002-0.467-0.023-0.674-0.126c-0.018-0.009-0.038-0.013-0.057-0.013
				C15.128,16.378,15.084,16.403,15.061,16.448"/>
		</defs>
		<clipPath id="SVGID_24_">
			<use xlink:href="#SVGID_23_"  overflow="visible"/>
		</clipPath>
		<path clip-path="url(#SVGID_24_)" fill="#5A5B5D" d="M17.76,18.012c-0.867,0-1.641-0.518-1.973-1.316
			c-0.027-0.066,0.004-0.142,0.069-0.167c0.066-0.028,0.139,0.003,0.168,0.069c0.292,0.702,0.974,1.157,1.736,1.157
			c0.761,0,1.443-0.455,1.735-1.157c0.028-0.066,0.102-0.097,0.168-0.069c0.066,0.025,0.097,0.101,0.069,0.167
			C19.4,17.494,18.626,18.012,17.76,18.012"/>
	</g>
	<g>
		<defs>
			<path id="SVGID_25_" d="M23.06,1.179c-3.016,0-5.905,1.213-8.017,3.364c-2.114,2.151-3.274,5.06-3.22,8.076l0.183,10.19
				c0.052,2.902,1.466,5.611,3.816,7.315l5.182,3.756c1.454,1.053,3.417,1.058,4.875,0.008l5.241-3.77
				c2.362-1.699,3.786-4.411,3.842-7.321l0.18-9.299c0.064-3.244-1.181-6.378-3.453-8.695C29.416,2.485,26.307,1.179,23.06,1.179
				L23.06,1.179z"/>
		</defs>
		<clipPath id="SVGID_26_">
			<use xlink:href="#SVGID_25_"  overflow="visible"/>
		</clipPath>
		<g opacity="0.2" clip-path="url(#SVGID_26_)">
			<g>
				<defs>
					<rect id="SVGID_27_" x="12.915" y="18.931" width="6.021" height="6.022"/>
				</defs>
				<clipPath id="SVGID_28_">
					<use xlink:href="#SVGID_27_"  overflow="visible"/>
				</clipPath>
				<path clip-path="url(#SVGID_28_)" fill="#E58871" d="M18.936,21.94c0,1.664-1.348,3.013-3.01,3.013
					c-1.663,0-3.011-1.349-3.011-3.013c0-1.661,1.348-3.01,3.011-3.01C17.587,18.931,18.936,20.279,18.936,21.94"/>
			</g>
		</g>
		<g opacity="0.2" clip-path="url(#SVGID_26_)">
			<g>
				<defs>
					<rect id="SVGID_29_" x="28.031" y="18.931" width="6.021" height="6.022"/>
				</defs>
				<clipPath id="SVGID_30_">
					<use xlink:href="#SVGID_29_"  overflow="visible"/>
				</clipPath>
				<path clip-path="url(#SVGID_30_)" fill="#E58871" d="M34.052,21.94c0,1.664-1.349,3.013-3.01,3.013
					c-1.664,0-3.011-1.349-3.011-3.013c0-1.661,1.347-3.01,3.011-3.01C32.703,18.931,34.052,20.279,34.052,21.94"/>
			</g>
		</g>
		<g opacity="0.2" clip-path="url(#SVGID_26_)">
			<g>
				<defs>
					<rect id="SVGID_31_" x="26.8" y="22.865" width="2.068" height="2.89"/>
				</defs>
				<clipPath id="SVGID_32_">
					<use xlink:href="#SVGID_31_"  overflow="visible"/>
				</clipPath>
				<path clip-path="url(#SVGID_32_)" fill="#E58871" d="M28.823,25.755c-1.033-0.642-1.771-1.687-2.023-2.872l0.083-0.018
					c0.249,1.161,0.973,2.189,1.985,2.818L28.823,25.755z"/>
			</g>
		</g>
		<path clip-path="url(#SVGID_26_)" fill="#ED877B" d="M24.927,23.187c-0.799,0.797-2.092,0.797-2.89-0.001l-0.573-0.572
			c-0.071-0.072-0.092-0.178-0.054-0.27c0.039-0.093,0.129-0.153,0.229-0.153h3.686c0.101,0,0.19,0.06,0.229,0.153
			c0.038,0.093,0.017,0.198-0.054,0.27L24.927,23.187z"/>
		<g opacity="0.5" clip-path="url(#SVGID_26_)">
			<g>
				<defs>
					<rect id="SVGID_33_" x="22.648" y="21.264" width="1.898" height="0.949"/>
				</defs>
				<clipPath id="SVGID_34_">
					<use xlink:href="#SVGID_33_"  overflow="visible"/>
				</clipPath>
				<path clip-path="url(#SVGID_34_)" fill="#E58871" d="M22.648,22.213c0-0.524,0.425-0.949,0.948-0.949
					c0.524,0,0.95,0.425,0.95,0.949H22.648z"/>
			</g>
		</g>
		<g opacity="0.5" clip-path="url(#SVGID_26_)">
			<g>
				<defs>
					<rect id="SVGID_35_" x="23.682" y="17.459" width="1.81" height="5.05"/>
				</defs>
				<clipPath id="SVGID_36_">
					<use xlink:href="#SVGID_35_"  overflow="visible"/>
				</clipPath>
				<polygon clip-path="url(#SVGID_36_)" fill="#E58871" points="23.682,22.509 23.682,17.459 25.491,22.362 				"/>
			</g>
		</g>
		<path clip-path="url(#SVGID_26_)" fill="#DD4F7A" d="M21.723,27.976c0,0,0.064,0.009,0.176,0.023
			c0.055,0.008,0.123,0.017,0.201,0.028c0.078,0.011,0.165,0.027,0.261,0.035c0.095,0.011,0.198,0.023,0.308,0.036
			c0.108,0.015,0.224,0.019,0.343,0.027c0.12,0.006,0.243,0.022,0.368,0.018c0.126,0,0.253,0.001,0.38-0.001
			c0.128-0.009,0.255-0.017,0.379-0.025c0.125-0.007,0.248-0.03,0.366-0.044c0.06-0.006,0.119-0.015,0.175-0.02
			c0.057-0.011,0.113-0.02,0.168-0.029c0.107-0.019,0.209-0.036,0.305-0.053c0.093-0.016,0.182-0.038,0.258-0.054
			c0.076-0.014,0.145-0.028,0.198-0.041c0.11-0.021,0.174-0.032,0.174-0.032s-0.062,0.02-0.168,0.055
			c-0.055,0.016-0.119,0.036-0.194,0.058c-0.076,0.023-0.159,0.053-0.255,0.076c-0.093,0.021-0.194,0.046-0.302,0.071
			c-0.056,0.013-0.111,0.026-0.167,0.04c-0.057,0.01-0.116,0.019-0.177,0.029c-0.12,0.018-0.242,0.043-0.37,0.055
			c-0.128,0.01-0.255,0.019-0.386,0.028c-0.13,0.005-0.26-0.002-0.387-0.002c-0.128,0.003-0.253-0.016-0.373-0.026
			c-0.121-0.012-0.238-0.021-0.347-0.044c-0.11-0.019-0.213-0.037-0.309-0.054c-0.095-0.015-0.18-0.041-0.256-0.058
			c-0.076-0.02-0.142-0.036-0.198-0.05C21.785,27.994,21.723,27.976,21.723,27.976"/>
	</g>
	<g>
		<defs>
			<path id="SVGID_37_" d="M27.996,25.694c-0.654,0.099-1.816,0.229-2.894,0.083c-0.225-0.026-0.384,0.018-0.599,0.078l-0.702,0.177
				c-0.138,0.036-0.287,0.033-0.422-0.008l-0.593-0.17c-0.155-0.044-0.323-0.042-0.474,0.008c-0.531,0.174-1.825,0.598-2.49,0.815
				c-0.053,0.017-0.085,0.061-0.079,0.107c0.007,0.047,0.049,0.084,0.106,0.09c1.037,0.152,3.742,0.054,3.742,0.054
				c2.407-0.129,3.536-0.553,4.487-1.074c0.043-0.025,0.06-0.068,0.04-0.107c-0.018-0.035-0.059-0.055-0.103-0.055
				C28.01,25.692,28.003,25.693,27.996,25.694"/>
		</defs>
		<clipPath id="SVGID_38_">
			<use xlink:href="#SVGID_37_"  overflow="visible"/>
		</clipPath>
		<path clip-path="url(#SVGID_38_)" fill="#DD4F7A" d="M27.996,25.693c0.052-0.007,0.104,0.014,0.123,0.054
			c0.02,0.039,0.003,0.082-0.04,0.106c-0.951,0.522-2.08,0.945-4.487,1.075c0,0-2.705,0.098-3.742-0.053
			c-0.057-0.007-0.1-0.044-0.106-0.091c-0.006-0.046,0.026-0.09,0.079-0.107c0.665-0.216,1.959-0.64,2.489-0.815
			c0.152-0.05,0.32-0.053,0.475-0.009l0.593,0.171c0.136,0.041,0.284,0.044,0.422,0.008l0.702-0.177
			c0.215-0.059,0.374-0.104,0.599-0.078C26.18,25.922,27.342,25.793,27.996,25.693"/>
		<path clip-path="url(#SVGID_38_)" fill="#C4456D" d="M21.634,27.152c0,0,2.195-1.21,4.499-1.388
			c2.305-0.179,3.325-0.24,3.369-0.195c0.043,0.045-0.261,1.015-0.306,1.06c-0.022,0.024-2.143,0.434-4.15,0.566
			C23.304,27.311,21.634,27.152,21.634,27.152"/>
	</g>
	<g>
		<defs>
			<path id="SVGID_39_" d="M23.06,1.179c-3.016,0-5.905,1.213-8.017,3.364c-2.114,2.151-3.274,5.06-3.22,8.076l0.183,10.19
				c0.052,2.902,1.466,5.611,3.816,7.315l5.182,3.756c1.454,1.053,3.417,1.058,4.875,0.008l5.241-3.77
				c2.362-1.699,3.786-4.411,3.842-7.321l0.18-9.299c0.064-3.244-1.181-6.378-3.453-8.695C29.416,2.485,26.307,1.179,23.06,1.179
				L23.06,1.179z"/>
		</defs>
		<clipPath id="SVGID_40_">
			<use xlink:href="#SVGID_39_"  overflow="visible"/>
		</clipPath>
		<g opacity="0.2" clip-path="url(#SVGID_40_)">
			<g>
				<defs>
					<rect id="SVGID_41_" x="22.566" y="27.79" width="3.567" height="1.216"/>
				</defs>
				<clipPath id="SVGID_42_">
					<use xlink:href="#SVGID_41_"  overflow="visible"/>
				</clipPath>
				<path clip-path="url(#SVGID_42_)" fill="#E58871" d="M22.566,28.151c0,0,0.834,1.009,2.328,0.834
					c1.493-0.175,1.22-1.195,1.22-1.195l-2.187,0.425L22.566,28.151z"/>
			</g>
		</g>
	</g>
	<g>
		<defs>
			<path id="SVGID_43_" d="M23.248,0.224C16.25-1.023,10.105,4.487,10.233,15.749c0.424-0.715,0.807-0.954,1.628-1.233
				c1.018,1.549,3.592,0.167,5.757-1.873c-0.766,1.074-2.096,2.479-2.359,2.65c0.273,0.115,0.881,0.169,0.881,0.169
				c2.977-2.469,4.997-4.494,7.176-8.007c2.928,4.128,3.897,5.699,10.916,8.541c-0.334-0.493-0.556-0.705-0.797-1.092
				c0.606,0.609,1.562,1.358,2.046,1.546c0,0-0.453-1.167-0.332-1.92c0.617,0.121,1.055,0.52,1.055,0.52
				C36.762,3.863,29.835,0,25.102,0C24.43,0,23.803,0.078,23.248,0.224"/>
		</defs>
		<clipPath id="SVGID_44_">
			<use xlink:href="#SVGID_43_"  overflow="visible"/>
		</clipPath>
		<path clip-path="url(#SVGID_44_)" fill="#725D4D" d="M36.204,15.051C36.842,2.276,27.718-0.948,23.247,0.224
			C16.25-1.022,10.105,4.488,10.233,15.75c0.424-0.716,0.807-0.954,1.628-1.233c1.018,1.549,3.592,0.167,5.758-1.874
			c-0.767,1.075-2.097,2.479-2.36,2.65c0.273,0.115,0.881,0.17,0.881,0.17c2.977-2.47,4.996-4.495,7.176-8.008
			c2.928,4.129,3.897,5.7,10.915,8.541c-0.334-0.493-0.555-0.704-0.796-1.091c0.606,0.608,1.562,1.358,2.045,1.545
			c0,0-0.452-1.167-0.332-1.92C35.768,14.651,36.204,15.051,36.204,15.051"/>
		<path clip-path="url(#SVGID_44_)" fill="#655243" d="M9.986,9.707c6.661,1.196,15.116-7.515,23.999-8.539l4.866,15.798
			l-0.084,3.332L6.997,21.579L9.986,9.707z"/>
	</g>
</g>
</svg>
