<?xml version="1.0" encoding="utf-8"?>
<!-- Generator: Adobe Illustrator 15.1.0, SVG Export Plug-In . SVG Version: 6.00 Build 0)  -->
<!DOCTYPE svg PUBLIC "-//W3C//DTD SVG 1.1//EN" "http://www.w3.org/Graphics/SVG/1.1/DTD/svg11.dtd">
<svg version="1.1" id="Layer_1" xmlns="http://www.w3.org/2000/svg" xmlns:xlink="http://www.w3.org/1999/xlink" x="0px" y="0px"
	 width="46.648px" height="50.635px" viewBox="0 0 46.648 50.635" enable-background="new 0 0 46.648 50.635" xml:space="preserve">
<g display="none">
	<g display="inline">
		<defs>
			<path id="SVGID_1_" d="M1.035,26.151c0,12.312,9.979,22.29,22.289,22.29c12.31,0,22.289-9.979,22.289-22.29
				c0-12.309-9.979-22.287-22.289-22.287C11.014,3.864,1.035,13.842,1.035,26.151"/>
		</defs>
		<clipPath id="SVGID_2_">
			<use xlink:href="#SVGID_1_"  overflow="visible"/>
		</clipPath>
		<path clip-path="url(#SVGID_2_)" fill="#FFFFFF" d="M45.613,26.151c0,12.312-9.979,22.29-22.289,22.29
			c-12.31,0-22.29-9.979-22.29-22.29c0-12.309,9.98-22.287,22.29-22.287C35.635,3.864,45.613,13.842,45.613,26.151"/>
		<polygon clip-path="url(#SVGID_2_)" fill="#655243" points="36.162,15.216 37.144,43.527 9.304,43.527 10.072,16.368 		"/>
		<path clip-path="url(#SVGID_2_)" fill="#4B7CA2" d="M38.665,61.572H7.981V45.381c0-4.66,3.778-8.438,8.438-8.438h13.808
			c4.66,0,8.438,3.778,8.438,8.438V61.572z"/>
	</g>
	<g display="inline">
		<defs>
			<rect id="SVGID_3_" y="0" width="46.648" height="61.572"/>
		</defs>
		<clipPath id="SVGID_4_">
			<use xlink:href="#SVGID_3_"  overflow="visible"/>
		</clipPath>
		
			<circle clip-path="url(#SVGID_4_)" fill="none" stroke="#F37E20" stroke-width="2" stroke-miterlimit="10" cx="23.324" cy="26.152" r="22.324"/>
	</g>
	<g display="inline">
		<defs>
			<path id="SVGID_5_" d="M17.686,25.439v11.729c0,3.105,2.516,5.622,5.62,5.622c3.068,0,5.555-2.486,5.555-5.554V25.439H17.686z"/>
		</defs>
		<clipPath id="SVGID_6_">
			<use xlink:href="#SVGID_5_"  overflow="visible"/>
		</clipPath>
		<path clip-path="url(#SVGID_6_)" fill="#F3B09D" d="M28.86,37.236c0,3.067-2.486,5.554-5.554,5.554
			c-3.104,0-5.621-2.517-5.621-5.621V25.439H28.86V37.236z"/>
		<g opacity="0.4" clip-path="url(#SVGID_6_)">
			<g>
				<defs>
					<rect id="SVGID_7_" x="15.852" y="31.198" width="15.632" height="10.422"/>
				</defs>
				<clipPath id="SVGID_8_">
					<use xlink:href="#SVGID_7_"  overflow="visible"/>
				</clipPath>
				<path clip-path="url(#SVGID_8_)" fill="#E58871" d="M16.191,33.109c6.276,1.556,9.656,3.831,11.435,8.511l3.858-2.303
					l-0.104-8.053l-15.529-0.066L16.191,33.109z"/>
			</g>
		</g>
	</g>
	<g display="inline">
		<defs>
			<rect id="SVGID_9_" y="0" width="46.648" height="61.572"/>
		</defs>
		<clipPath id="SVGID_10_">
			<use xlink:href="#SVGID_9_"  overflow="visible"/>
		</clipPath>
		<path clip-path="url(#SVGID_10_)" fill="#F3B09D" d="M37.017,16.902c0,1.332-1.018,2.414-2.272,2.414s-2.273-1.082-2.273-2.414
			s1.019-2.411,2.273-2.411S37.017,15.57,37.017,16.902"/>
		<path clip-path="url(#SVGID_10_)" fill="#F3B09D" d="M14.513,16.902c0,1.332-1.017,2.414-2.272,2.414
			c-1.256,0-2.273-1.082-2.273-2.414s1.017-2.411,2.273-2.411C13.496,14.491,14.513,15.57,14.513,16.902"/>
		<path clip-path="url(#SVGID_10_)" fill="#558DB8" d="M11.652,18.59c0,0.165-0.134,0.299-0.299,0.299s-0.298-0.134-0.298-0.299
			c0-0.166,0.133-0.299,0.298-0.299S11.652,18.424,11.652,18.59"/>
		<path clip-path="url(#SVGID_10_)" fill="#558DB8" d="M35.906,18.59c0,0.165-0.135,0.299-0.3,0.299
			c-0.164,0-0.298-0.134-0.298-0.299c0-0.166,0.134-0.299,0.298-0.299C35.771,18.291,35.906,18.424,35.906,18.59"/>
	</g>
	<g display="inline">
		<defs>
			<path id="SVGID_11_" d="M23.06,1.179c-3.016,0-5.905,1.213-8.017,3.364c-2.114,2.151-3.274,5.06-3.22,8.076l0.183,10.19
				c0.052,2.902,1.466,5.611,3.816,7.315l5.182,3.756c1.454,1.053,3.417,1.058,4.875,0.008l5.241-3.77
				c2.362-1.699,3.786-4.411,3.842-7.321l0.18-9.299c0.064-3.244-1.181-6.378-3.453-8.695C29.416,2.485,26.307,1.179,23.06,1.179
				L23.06,1.179z"/>
		</defs>
		<clipPath id="SVGID_12_">
			<use xlink:href="#SVGID_11_"  overflow="visible"/>
		</clipPath>
		<path clip-path="url(#SVGID_12_)" fill="#F3B09D" d="M34.962,22.798c-0.057,2.909-1.48,5.621-3.842,7.32l-5.241,3.77
			c-1.457,1.049-3.421,1.045-4.875-0.008l-5.182-3.756c-2.35-1.703-3.764-4.412-3.816-7.314l-0.182-10.191
			c-0.054-3.015,1.106-5.925,3.219-8.076c2.112-2.151,5.001-3.363,8.017-3.363h0.001c3.246,0,6.355,1.306,8.628,3.623
			s3.518,5.451,3.454,8.696L34.962,22.798z"/>
		<g opacity="0.2" clip-path="url(#SVGID_12_)">
			<g>
				<defs>
					<rect id="SVGID_13_" x="16.458" y="7.851" width="14.05" height="7.024"/>
				</defs>
				<clipPath id="SVGID_14_">
					<use xlink:href="#SVGID_13_"  overflow="visible"/>
				</clipPath>
				<path clip-path="url(#SVGID_14_)" fill="#E58871" d="M16.458,14.875c0-3.879,3.145-7.024,7.025-7.024
					c3.879,0,7.025,3.145,7.025,7.024"/>
			</g>
		</g>
		<path clip-path="url(#SVGID_12_)" fill="#7A6353" d="M32.61,14.084c0,0-0.017-0.013-0.051-0.032
			c-0.032-0.019-0.082-0.053-0.145-0.085c-0.032-0.015-0.066-0.032-0.104-0.051c-0.037-0.019-0.078-0.037-0.126-0.053
			c-0.046-0.017-0.095-0.037-0.146-0.055c-0.053-0.019-0.111-0.034-0.169-0.051c-0.059-0.019-0.119-0.033-0.185-0.046
			c-0.065-0.012-0.131-0.032-0.199-0.04c-0.07-0.012-0.141-0.023-0.214-0.033c-0.074-0.011-0.148-0.018-0.224-0.027
			c-0.077-0.008-0.155-0.014-0.234-0.018c-0.079-0.003-0.158-0.013-0.238-0.013c-0.162-0.004-0.326-0.007-0.49-0.003
			c-0.163,0-0.328,0.013-0.49,0.019c-0.162,0.011-0.321,0.022-0.475,0.037c-0.153,0.018-0.302,0.029-0.441,0.05
			c-0.143,0.019-0.273,0.034-0.396,0.052c-0.243,0.038-0.446,0.073-0.588,0.1c-0.142,0.024-0.223,0.039-0.223,0.039l-0.006,0.002
			c-0.141,0.024-0.273-0.066-0.298-0.207c-0.025-0.14,0.068-0.273,0.206-0.298c0.007,0,0.014-0.001,0.02-0.003
			c0,0,0.084-0.009,0.23-0.025c0.146-0.017,0.357-0.035,0.609-0.054c0.127-0.011,0.264-0.016,0.409-0.026
			c0.143-0.009,0.297-0.01,0.455-0.017c0.159-0.003,0.325-0.003,0.489-0.001c0.166,0.006,0.335,0.006,0.504,0.018
			c0.169,0.008,0.339,0.025,0.504,0.042c0.083,0.006,0.166,0.02,0.246,0.031c0.082,0.009,0.161,0.021,0.239,0.037
			c0.078,0.015,0.156,0.027,0.23,0.044c0.074,0.018,0.147,0.034,0.219,0.051c0.071,0.015,0.139,0.039,0.205,0.057
			c0.066,0.02,0.131,0.038,0.189,0.063c0.061,0.023,0.117,0.044,0.172,0.065c0.054,0.024,0.104,0.048,0.15,0.069
			c0.049,0.02,0.094,0.046,0.132,0.068c0.04,0.025,0.075,0.045,0.108,0.065c0.063,0.039,0.108,0.076,0.141,0.097
			c0.031,0.022,0.048,0.035,0.048,0.035c0.026,0.019,0.032,0.055,0.013,0.081C32.67,14.093,32.635,14.1,32.61,14.084"/>
		<path clip-path="url(#SVGID_12_)" fill="#7A6353" d="M14.291,13.987c0,0,0.017-0.014,0.049-0.035
			c0.032-0.022,0.075-0.059,0.139-0.098c0.033-0.019,0.069-0.039,0.109-0.064c0.04-0.023,0.083-0.048,0.131-0.069
			c0.048-0.02,0.099-0.045,0.152-0.068c0.053-0.021,0.111-0.042,0.171-0.065c0.06-0.025,0.124-0.043,0.189-0.063
			c0.067-0.018,0.134-0.042,0.206-0.058c0.071-0.016,0.145-0.033,0.219-0.05c0.075-0.017,0.152-0.03,0.23-0.044
			c0.078-0.016,0.158-0.029,0.24-0.037c0.081-0.011,0.163-0.026,0.246-0.032c0.165-0.016,0.334-0.034,0.503-0.042
			c0.169-0.011,0.338-0.011,0.505-0.017c0.166-0.002,0.33-0.002,0.488,0.001c0.159,0.007,0.312,0.008,0.457,0.016
			c0.145,0.011,0.282,0.016,0.407,0.027c0.253,0.018,0.464,0.037,0.61,0.053c0.147,0.017,0.231,0.026,0.231,0.026
			c0.141,0.016,0.243,0.141,0.228,0.283c-0.014,0.139-0.14,0.24-0.282,0.228c-0.006,0-0.012-0.003-0.018-0.003l-0.006-0.002
			c0,0-0.081-0.015-0.223-0.039c-0.142-0.028-0.345-0.062-0.588-0.1c-0.122-0.019-0.256-0.033-0.396-0.053s-0.289-0.031-0.442-0.049
			c-0.153-0.015-0.312-0.026-0.474-0.038c-0.162-0.005-0.326-0.018-0.49-0.018c-0.164-0.004-0.329-0.001-0.49,0.003
			c-0.081,0-0.161,0.01-0.24,0.012c-0.079,0.004-0.157,0.01-0.232,0.019c-0.076,0.009-0.152,0.016-0.225,0.026
			c-0.073,0.011-0.144,0.022-0.214,0.034c-0.069,0.007-0.135,0.028-0.199,0.04c-0.065,0.012-0.128,0.027-0.185,0.046
			c-0.058,0.017-0.116,0.032-0.168,0.05c-0.052,0.019-0.101,0.038-0.148,0.056c-0.047,0.016-0.088,0.034-0.126,0.053
			c-0.037,0.018-0.072,0.036-0.104,0.05c-0.062,0.033-0.111,0.067-0.144,0.085c-0.034,0.02-0.051,0.033-0.051,0.033
			c-0.027,0.016-0.063,0.008-0.08-0.018C14.26,14.038,14.267,14.005,14.291,13.987"/>
		<g opacity="0.5" clip-path="url(#SVGID_12_)">
			<g>
				<defs>
					<rect id="SVGID_15_" x="12.379" y="14.835" width="22.207" height="3.509"/>
				</defs>
				<clipPath id="SVGID_16_">
					<use xlink:href="#SVGID_15_"  overflow="visible"/>
				</clipPath>
				<path clip-path="url(#SVGID_16_)" fill="#E58871" d="M34.586,18.344c0-1.937-1.748-3.509-3.907-3.509H16.288
					c-2.159,0-3.909,1.572-3.909,3.509H34.586z"/>
			</g>
		</g>
		<path clip-path="url(#SVGID_12_)" fill="#F3B09D" d="M17.354,18.956c0,0.649-0.754,1.179-1.685,1.179s-1.685-0.53-1.685-1.179
			c0-0.651,0.754-1.177,1.685-1.177S17.354,18.305,17.354,18.956"/>
		<g opacity="0.2" clip-path="url(#SVGID_12_)">
			<g>
				<defs>
					<rect id="SVGID_17_" x="20.597" y="10.71" width="25.622" height="29.86"/>
				</defs>
				<clipPath id="SVGID_18_">
					<use xlink:href="#SVGID_17_"  overflow="visible"/>
				</clipPath>
				<path clip-path="url(#SVGID_18_)" fill="#E58871" d="M46.216,19.535c-0.192-0.247-6.507-8.825-6.507-8.825l-7.363,3.455
					c0.009,1.287-0.068,2.505-0.212,3.657c-0.146-0.029-0.296-0.043-0.452-0.043c-0.932,0-1.684,0.526-1.684,1.177
					c0,0.649,0.752,1.179,1.684,1.179c0.017,0,0.033-0.004,0.05-0.004c-2.103,9.466-9.001,13.797-11.135,14.917l6.962,5.522
					l9.194-3.521C36.753,37.049,46.407,19.781,46.216,19.535"/>
			</g>
		</g>
		<path clip-path="url(#SVGID_12_)" fill="#5A5B5D" d="M29.242,18.012c-0.866,0-1.641-0.518-1.972-1.316
			c-0.028-0.066,0.003-0.142,0.068-0.167c0.065-0.029,0.141,0.003,0.168,0.069c0.293,0.702,0.974,1.157,1.735,1.157
			s1.443-0.455,1.736-1.157l0.032-0.079l0.086-0.001c0.268-0.002,0.466-0.024,0.673-0.126c0.062-0.031,0.139-0.007,0.171,0.057
			c0.031,0.064,0.006,0.14-0.057,0.172c-0.247,0.122-0.481,0.146-0.704,0.152C30.831,17.529,30.079,18.012,29.242,18.012"/>
	</g>
	<g display="inline">
		<defs>
			<path id="SVGID_19_" d="M31.769,16.391c-0.207,0.103-0.404,0.124-0.673,0.126l-0.086,0.001l-0.031,0.079
				c-0.293,0.702-0.975,1.158-1.736,1.158s-1.442-0.456-1.735-1.158c-0.026-0.066-0.103-0.097-0.168-0.069
				c-0.064,0.025-0.097,0.102-0.067,0.167c0.329,0.799,1.104,1.316,1.971,1.316c0.837,0,1.589-0.483,1.938-1.239
				c0.223-0.006,0.457-0.029,0.703-0.151c0.063-0.033,0.089-0.108,0.058-0.173c-0.022-0.045-0.067-0.07-0.114-0.07
				C31.807,16.378,31.787,16.382,31.769,16.391"/>
		</defs>
		<clipPath id="SVGID_20_">
			<use xlink:href="#SVGID_19_"  overflow="visible"/>
		</clipPath>
		<path clip-path="url(#SVGID_20_)" fill="#5A5B5D" d="M29.242,18.012c-0.866,0-1.641-0.518-1.972-1.316
			c-0.028-0.066,0.003-0.142,0.068-0.167c0.065-0.029,0.141,0.003,0.168,0.069c0.293,0.702,0.974,1.157,1.735,1.157
			s1.443-0.455,1.736-1.157c0.026-0.066,0.102-0.098,0.166-0.069c0.066,0.025,0.097,0.101,0.07,0.167
			C30.883,17.494,30.107,18.012,29.242,18.012"/>
	</g>
	<g display="inline">
		<defs>
			<path id="SVGID_21_" d="M23.06,1.179c-3.016,0-5.905,1.213-8.017,3.364c-2.114,2.151-3.274,5.06-3.22,8.076l0.183,10.19
				c0.052,2.902,1.466,5.611,3.816,7.315l5.182,3.756c1.454,1.053,3.417,1.058,4.875,0.008l5.241-3.77
				c2.362-1.699,3.786-4.411,3.842-7.321l0.18-9.299c0.064-3.244-1.181-6.378-3.453-8.695C29.416,2.485,26.307,1.179,23.06,1.179
				L23.06,1.179z"/>
		</defs>
		<clipPath id="SVGID_22_">
			<use xlink:href="#SVGID_21_"  overflow="visible"/>
		</clipPath>
		<path clip-path="url(#SVGID_22_)" fill="#5A5B5D" d="M17.76,18.012c-0.838,0-1.59-0.483-1.939-1.239
			c-0.222-0.006-0.457-0.03-0.702-0.152c-0.063-0.032-0.089-0.108-0.058-0.172c0.032-0.064,0.108-0.088,0.172-0.057
			c0.207,0.102,0.403,0.124,0.673,0.126l0.085,0.001l0.033,0.079c0.292,0.702,0.974,1.157,1.736,1.157
			c0.761,0,1.443-0.455,1.735-1.157c0.028-0.066,0.102-0.097,0.168-0.069c0.066,0.025,0.097,0.101,0.069,0.167
			C19.4,17.494,18.626,18.012,17.76,18.012"/>
	</g>
	<g display="inline">
		<defs>
			<path id="SVGID_23_" d="M15.061,16.448c-0.031,0.065-0.005,0.14,0.058,0.173c0.245,0.122,0.48,0.145,0.702,0.151
				c0.348,0.756,1.101,1.239,1.939,1.239c0.866,0,1.64-0.517,1.972-1.316c0.028-0.065-0.003-0.142-0.07-0.167
				c-0.064-0.027-0.139,0.003-0.167,0.069c-0.293,0.702-0.974,1.158-1.735,1.158c-0.763,0-1.445-0.456-1.736-1.158l-0.033-0.079
				l-0.085-0.001c-0.269-0.002-0.467-0.023-0.674-0.126c-0.018-0.009-0.038-0.013-0.057-0.013
				C15.128,16.378,15.084,16.403,15.061,16.448"/>
		</defs>
		<clipPath id="SVGID_24_">
			<use xlink:href="#SVGID_23_"  overflow="visible"/>
		</clipPath>
		<path clip-path="url(#SVGID_24_)" fill="#5A5B5D" d="M17.76,18.012c-0.867,0-1.641-0.518-1.973-1.316
			c-0.027-0.066,0.004-0.142,0.069-0.167c0.066-0.028,0.139,0.003,0.168,0.069c0.292,0.702,0.974,1.157,1.736,1.157
			c0.761,0,1.443-0.455,1.735-1.157c0.028-0.066,0.102-0.097,0.168-0.069c0.066,0.025,0.097,0.101,0.069,0.167
			C19.4,17.494,18.626,18.012,17.76,18.012"/>
	</g>
	<g display="inline">
		<defs>
			<path id="SVGID_25_" d="M23.06,1.179c-3.016,0-5.905,1.213-8.017,3.364c-2.114,2.151-3.274,5.06-3.22,8.076l0.183,10.19
				c0.052,2.902,1.466,5.611,3.816,7.315l5.182,3.756c1.454,1.053,3.417,1.058,4.875,0.008l5.241-3.77
				c2.362-1.699,3.786-4.411,3.842-7.321l0.18-9.299c0.064-3.244-1.181-6.378-3.453-8.695C29.416,2.485,26.307,1.179,23.06,1.179
				L23.06,1.179z"/>
		</defs>
		<clipPath id="SVGID_26_">
			<use xlink:href="#SVGID_25_"  overflow="visible"/>
		</clipPath>
		<g opacity="0.2" clip-path="url(#SVGID_26_)">
			<g>
				<defs>
					<rect id="SVGID_27_" x="12.915" y="18.931" width="6.021" height="6.022"/>
				</defs>
				<clipPath id="SVGID_28_">
					<use xlink:href="#SVGID_27_"  overflow="visible"/>
				</clipPath>
				<path clip-path="url(#SVGID_28_)" fill="#E58871" d="M18.936,21.94c0,1.664-1.348,3.013-3.01,3.013
					c-1.663,0-3.011-1.349-3.011-3.013c0-1.661,1.348-3.01,3.011-3.01C17.587,18.931,18.936,20.279,18.936,21.94"/>
			</g>
		</g>
		<g opacity="0.2" clip-path="url(#SVGID_26_)">
			<g>
				<defs>
					<rect id="SVGID_29_" x="28.031" y="18.931" width="6.021" height="6.022"/>
				</defs>
				<clipPath id="SVGID_30_">
					<use xlink:href="#SVGID_29_"  overflow="visible"/>
				</clipPath>
				<path clip-path="url(#SVGID_30_)" fill="#E58871" d="M34.052,21.94c0,1.664-1.349,3.013-3.01,3.013
					c-1.664,0-3.011-1.349-3.011-3.013c0-1.661,1.347-3.01,3.011-3.01C32.703,18.931,34.052,20.279,34.052,21.94"/>
			</g>
		</g>
		<g opacity="0.2" clip-path="url(#SVGID_26_)">
			<g>
				<defs>
					<rect id="SVGID_31_" x="26.8" y="22.865" width="2.068" height="2.89"/>
				</defs>
				<clipPath id="SVGID_32_">
					<use xlink:href="#SVGID_31_"  overflow="visible"/>
				</clipPath>
				<path clip-path="url(#SVGID_32_)" fill="#E58871" d="M28.823,25.755c-1.033-0.642-1.771-1.687-2.023-2.872l0.083-0.018
					c0.249,1.161,0.973,2.189,1.985,2.818L28.823,25.755z"/>
			</g>
		</g>
		<path clip-path="url(#SVGID_26_)" fill="#ED877B" d="M24.927,23.187c-0.799,0.797-2.092,0.797-2.89-0.001l-0.573-0.572
			c-0.071-0.072-0.092-0.178-0.054-0.27c0.039-0.093,0.129-0.153,0.229-0.153h3.686c0.101,0,0.19,0.06,0.229,0.153
			c0.038,0.093,0.017,0.198-0.054,0.27L24.927,23.187z"/>
		<g opacity="0.5" clip-path="url(#SVGID_26_)">
			<g>
				<defs>
					<rect id="SVGID_33_" x="22.648" y="21.264" width="1.898" height="0.949"/>
				</defs>
				<clipPath id="SVGID_34_">
					<use xlink:href="#SVGID_33_"  overflow="visible"/>
				</clipPath>
				<path clip-path="url(#SVGID_34_)" fill="#E58871" d="M22.648,22.213c0-0.524,0.425-0.949,0.948-0.949
					c0.524,0,0.95,0.425,0.95,0.949H22.648z"/>
			</g>
		</g>
		<g opacity="0.5" clip-path="url(#SVGID_26_)">
			<g>
				<defs>
					<rect id="SVGID_35_" x="23.682" y="17.459" width="1.81" height="5.05"/>
				</defs>
				<clipPath id="SVGID_36_">
					<use xlink:href="#SVGID_35_"  overflow="visible"/>
				</clipPath>
				<polygon clip-path="url(#SVGID_36_)" fill="#E58871" points="23.682,22.509 23.682,17.459 25.491,22.362 				"/>
			</g>
		</g>
		<path clip-path="url(#SVGID_26_)" fill="#DD4F7A" d="M21.723,27.976c0,0,0.064,0.009,0.176,0.023
			c0.055,0.008,0.123,0.017,0.201,0.028c0.078,0.011,0.165,0.027,0.261,0.035c0.095,0.011,0.198,0.023,0.308,0.036
			c0.108,0.015,0.224,0.019,0.343,0.027c0.12,0.006,0.243,0.022,0.368,0.018c0.126,0,0.253,0.001,0.38-0.001
			c0.128-0.009,0.255-0.017,0.379-0.025c0.125-0.007,0.248-0.03,0.366-0.044c0.06-0.006,0.119-0.015,0.175-0.02
			c0.057-0.011,0.113-0.02,0.168-0.029c0.107-0.019,0.209-0.036,0.305-0.053c0.093-0.016,0.182-0.038,0.258-0.054
			c0.076-0.014,0.145-0.028,0.198-0.041c0.11-0.021,0.174-0.032,0.174-0.032s-0.062,0.02-0.168,0.055
			c-0.055,0.016-0.119,0.036-0.194,0.058c-0.076,0.023-0.159,0.053-0.255,0.076c-0.093,0.021-0.194,0.046-0.302,0.071
			c-0.056,0.013-0.111,0.026-0.167,0.04c-0.057,0.01-0.116,0.019-0.177,0.029c-0.12,0.018-0.242,0.043-0.37,0.055
			c-0.128,0.01-0.255,0.019-0.386,0.028c-0.13,0.005-0.26-0.002-0.387-0.002c-0.128,0.003-0.253-0.016-0.373-0.026
			c-0.121-0.012-0.238-0.021-0.347-0.044c-0.11-0.019-0.213-0.037-0.309-0.054c-0.095-0.015-0.18-0.041-0.256-0.058
			c-0.076-0.02-0.142-0.036-0.198-0.05C21.785,27.994,21.723,27.976,21.723,27.976"/>
	</g>
	<g display="inline">
		<defs>
			<path id="SVGID_37_" d="M27.996,25.694c-0.654,0.099-1.816,0.229-2.894,0.083c-0.225-0.026-0.384,0.018-0.599,0.078l-0.702,0.177
				c-0.138,0.036-0.287,0.033-0.422-0.008l-0.593-0.17c-0.155-0.044-0.323-0.042-0.474,0.008c-0.531,0.174-1.825,0.598-2.49,0.815
				c-0.053,0.017-0.085,0.061-0.079,0.107c0.007,0.047,0.049,0.084,0.106,0.09c1.037,0.152,3.742,0.054,3.742,0.054
				c2.407-0.129,3.536-0.553,4.487-1.074c0.043-0.025,0.06-0.068,0.04-0.107c-0.018-0.035-0.059-0.055-0.103-0.055
				C28.01,25.692,28.003,25.693,27.996,25.694"/>
		</defs>
		<clipPath id="SVGID_38_">
			<use xlink:href="#SVGID_37_"  overflow="visible"/>
		</clipPath>
		<path clip-path="url(#SVGID_38_)" fill="#DD4F7A" d="M27.996,25.693c0.052-0.007,0.104,0.014,0.123,0.054
			c0.02,0.039,0.003,0.082-0.04,0.106c-0.951,0.522-2.08,0.945-4.487,1.075c0,0-2.705,0.098-3.742-0.053
			c-0.057-0.007-0.1-0.044-0.106-0.091c-0.006-0.046,0.026-0.09,0.079-0.107c0.665-0.216,1.959-0.64,2.489-0.815
			c0.152-0.05,0.32-0.053,0.475-0.009l0.593,0.171c0.136,0.041,0.284,0.044,0.422,0.008l0.702-0.177
			c0.215-0.059,0.374-0.104,0.599-0.078C26.18,25.922,27.342,25.793,27.996,25.693"/>
		<path clip-path="url(#SVGID_38_)" fill="#C4456D" d="M21.634,27.152c0,0,2.195-1.21,4.499-1.388
			c2.305-0.179,3.325-0.24,3.369-0.195c0.043,0.045-0.261,1.015-0.306,1.06c-0.022,0.024-2.143,0.434-4.15,0.566
			C23.304,27.311,21.634,27.152,21.634,27.152"/>
	</g>
	<g display="inline">
		<defs>
			<path id="SVGID_39_" d="M23.06,1.179c-3.016,0-5.905,1.213-8.017,3.364c-2.114,2.151-3.274,5.06-3.22,8.076l0.183,10.19
				c0.052,2.902,1.466,5.611,3.816,7.315l5.182,3.756c1.454,1.053,3.417,1.058,4.875,0.008l5.241-3.77
				c2.362-1.699,3.786-4.411,3.842-7.321l0.18-9.299c0.064-3.244-1.181-6.378-3.453-8.695C29.416,2.485,26.307,1.179,23.06,1.179
				L23.06,1.179z"/>
		</defs>
		<clipPath id="SVGID_40_">
			<use xlink:href="#SVGID_39_"  overflow="visible"/>
		</clipPath>
		<g opacity="0.2" clip-path="url(#SVGID_40_)">
			<g>
				<defs>
					<rect id="SVGID_41_" x="22.566" y="27.79" width="3.567" height="1.216"/>
				</defs>
				<clipPath id="SVGID_42_">
					<use xlink:href="#SVGID_41_"  overflow="visible"/>
				</clipPath>
				<path clip-path="url(#SVGID_42_)" fill="#E58871" d="M22.566,28.151c0,0,0.834,1.009,2.328,0.834
					c1.493-0.175,1.22-1.195,1.22-1.195l-2.187,0.425L22.566,28.151z"/>
			</g>
		</g>
	</g>
	<g display="inline">
		<defs>
			<path id="SVGID_43_" d="M23.248,0.224C16.25-1.023,10.105,4.487,10.233,15.749c0.424-0.715,0.807-0.954,1.628-1.233
				c1.018,1.549,3.592,0.167,5.757-1.873c-0.766,1.074-2.096,2.479-2.359,2.65c0.273,0.115,0.881,0.169,0.881,0.169
				c2.977-2.469,4.997-4.494,7.176-8.007c2.928,4.128,3.897,5.699,10.916,8.541c-0.334-0.493-0.556-0.705-0.797-1.092
				c0.606,0.609,1.562,1.358,2.046,1.546c0,0-0.453-1.167-0.332-1.92c0.617,0.121,1.055,0.52,1.055,0.52
				C36.762,3.863,29.835,0,25.102,0C24.43,0,23.803,0.078,23.248,0.224"/>
		</defs>
		<clipPath id="SVGID_44_">
			<use xlink:href="#SVGID_43_"  overflow="visible"/>
		</clipPath>
		<path clip-path="url(#SVGID_44_)" fill="#725D4D" d="M36.204,15.051C36.842,2.276,27.718-0.948,23.247,0.224
			C16.25-1.022,10.105,4.488,10.233,15.75c0.424-0.716,0.807-0.954,1.628-1.233c1.018,1.549,3.592,0.167,5.758-1.874
			c-0.767,1.075-2.097,2.479-2.36,2.65c0.273,0.115,0.881,0.17,0.881,0.17c2.977-2.47,4.996-4.495,7.176-8.008
			c2.928,4.129,3.897,5.7,10.915,8.541c-0.334-0.493-0.555-0.704-0.796-1.091c0.606,0.608,1.562,1.358,2.045,1.545
			c0,0-0.452-1.167-0.332-1.92C35.768,14.651,36.204,15.051,36.204,15.051"/>
		<path clip-path="url(#SVGID_44_)" fill="#655243" d="M9.986,9.707c6.661,1.196,15.116-7.515,23.999-8.539l4.866,15.798
			l-0.084,3.332L6.997,21.579L9.986,9.707z"/>
	</g>
</g>
<g display="none">
	<defs>
		<rect id="SVGID_45_" width="46.648" height="61.718"/>
	</defs>
	<clipPath id="SVGID_46_" display="inline">
		<use xlink:href="#SVGID_45_"  overflow="visible"/>
	</clipPath>
	<g display="inline" clip-path="url(#SVGID_46_)">
		<defs>
			<path id="SVGID_47_" d="M1,26.243c0,12.332,9.995,22.324,22.324,22.324c12.33,0,22.324-9.992,22.324-22.324
				c0-12.328-9.994-22.325-22.324-22.325C10.995,3.918,1,13.915,1,26.243"/>
		</defs>
		<clipPath id="SVGID_48_">
			<use xlink:href="#SVGID_47_"  overflow="visible"/>
		</clipPath>
		<path clip-path="url(#SVGID_48_)" fill="#FFFFFF" d="M45.648,26.242c0,12.331-9.994,22.325-22.324,22.325
			C10.996,48.567,1,38.573,1,26.242C1,13.914,10.996,3.918,23.324,3.918C35.654,3.918,45.648,13.914,45.648,26.242"/>
		<path clip-path="url(#SVGID_48_)" fill="#F04C23" d="M41.512,61.718H5.137V45.501c0-4.666,4.478-8.45,10.003-8.45h16.37
			c5.524,0,10.002,3.784,10.002,8.45V61.718z"/>
	</g>
	<g display="inline" clip-path="url(#SVGID_46_)">
		<defs>
			<rect id="SVGID_49_" width="46.648" height="61.718"/>
		</defs>
		<clipPath id="SVGID_50_">
			<use xlink:href="#SVGID_49_"  overflow="visible"/>
		</clipPath>
		
			<circle clip-path="url(#SVGID_50_)" fill="none" stroke="#AED136" stroke-width="2" stroke-miterlimit="10" cx="23.324" cy="26.242" r="22.324"/>
	</g>
	<g display="inline" clip-path="url(#SVGID_46_)">
		<defs>
			<path id="SVGID_51_" d="M16.359,23.701v14.675c0,3.885,3.149,7.033,7.033,7.033c3.839,0,6.948-3.11,6.948-6.947V23.701H16.359z"
				/>
		</defs>
		<clipPath id="SVGID_52_">
			<use xlink:href="#SVGID_51_"  overflow="visible"/>
		</clipPath>
		<path clip-path="url(#SVGID_52_)" fill="#F3B09D" d="M30.34,38.462c0,3.837-3.11,6.947-6.948,6.947
			c-3.884,0-7.032-3.148-7.032-7.033V23.701h13.98V38.462z"/>
		<g opacity="0.4" clip-path="url(#SVGID_52_)">
			<g>
				<defs>
					<rect id="SVGID_53_" x="15.916" y="33.943" width="15.658" height="10.439"/>
				</defs>
				<clipPath id="SVGID_54_">
					<use xlink:href="#SVGID_53_"  overflow="visible"/>
				</clipPath>
				<path clip-path="url(#SVGID_54_)" fill="#E58871" d="M16.255,35.859c6.287,1.558,9.672,3.836,11.455,8.523l3.863-2.304
					l-0.102-8.067l-15.556-0.068L16.255,35.859z"/>
			</g>
		</g>
	</g>
	<g display="inline" clip-path="url(#SVGID_46_)">
		<defs>
			<rect id="SVGID_55_" width="46.648" height="61.718"/>
		</defs>
		<clipPath id="SVGID_56_">
			<use xlink:href="#SVGID_55_"  overflow="visible"/>
		</clipPath>
		<path clip-path="url(#SVGID_56_)" fill="#F3B09D" d="M16.011,17.488c0,1.712-1.388,3.1-3.1,3.1c-1.713,0-3.102-1.388-3.102-3.1
			c0-1.714,1.389-3.101,3.102-3.101C14.623,14.387,16.011,15.774,16.011,17.488"/>
		<g opacity="0.2" clip-path="url(#SVGID_56_)">
			<g>
				<defs>
					<rect id="SVGID_57_" x="10.878" y="15.457" width="4.063" height="4.062"/>
				</defs>
				<clipPath id="SVGID_58_">
					<use xlink:href="#SVGID_57_"  overflow="visible"/>
				</clipPath>
				<path clip-path="url(#SVGID_58_)" fill="#E58871" d="M14.942,17.488c0,1.123-0.909,2.031-2.031,2.031
					c-1.122,0-2.032-0.908-2.032-2.031c0-1.121,0.91-2.031,2.032-2.031C14.033,15.457,14.942,16.367,14.942,17.488"/>
			</g>
		</g>
		<path clip-path="url(#SVGID_56_)" fill="#F3B09D" d="M36.84,17.488c0,1.712-1.386,3.1-3.102,3.1c-1.711,0-3.099-1.388-3.099-3.1
			c0-1.714,1.388-3.101,3.099-3.101C35.454,14.387,36.84,15.774,36.84,17.488"/>
		<g opacity="0.2" clip-path="url(#SVGID_56_)">
			<g>
				<defs>
					<rect id="SVGID_59_" x="31.706" y="15.457" width="4.064" height="4.062"/>
				</defs>
				<clipPath id="SVGID_60_">
					<use xlink:href="#SVGID_59_"  overflow="visible"/>
				</clipPath>
				<path clip-path="url(#SVGID_60_)" fill="#E58871" d="M35.771,17.488c0,1.123-0.91,2.031-2.032,2.031s-2.032-0.908-2.032-2.031
					c0-1.121,0.91-2.031,2.032-2.031S35.771,16.367,35.771,17.488"/>
			</g>
		</g>
	</g>
	<g display="inline" clip-path="url(#SVGID_46_)">
		<defs>
			<path id="SVGID_61_" d="M21.058,0.936c-4.703,0-8.516,3.812-8.516,8.515v21.716c0,1.025,0.692,1.924,1.684,2.186l7.055,1.859
				c1.359,0.357,2.789,0.357,4.146-0.001l7.084-1.873c0.972-0.257,1.648-1.137,1.648-2.142V9.451c0-4.703-3.812-8.515-8.516-8.515
				H21.058z"/>
		</defs>
		<clipPath id="SVGID_62_">
			<use xlink:href="#SVGID_61_"  overflow="visible"/>
		</clipPath>
		<path clip-path="url(#SVGID_62_)" fill="#F3B09D" d="M34.158,32.858c0,1.316-1.066,2.384-2.384,5.384H14.988
			c-1.35-3-2.445-4.094-2.445-5.446V9.449c0-4.703,3.813-8.516,8.516-8.516h4.583c4.702,0,8.516,3.813,8.516,8.516V32.858z"/>
		<g opacity="0.5" clip-path="url(#SVGID_62_)">
			<g>
				<defs>
					<rect id="SVGID_63_" x="23.35" y="12.878" width="2.966" height="6.178"/>
				</defs>
				<clipPath id="SVGID_64_">
					<use xlink:href="#SVGID_63_"  overflow="visible"/>
				</clipPath>
				<polygon clip-path="url(#SVGID_64_)" fill="#E58871" points="23.35,19.056 23.35,12.877 26.315,18.814 				"/>
			</g>
		</g>
		<path clip-path="url(#SVGID_62_)" fill="#ED877B" d="M25.42,20.021c-1.144,1.144-2.996,1.143-4.139,0l-0.82-0.821
			c-0.102-0.102-0.132-0.254-0.078-0.387c0.056-0.132,0.185-0.219,0.329-0.219l5.277,0.002c0.144,0,0.272,0.086,0.328,0.219
			c0.055,0.133,0.024,0.285-0.077,0.387L25.42,20.021z"/>
		<g opacity="0.5" clip-path="url(#SVGID_62_)">
			<g>
				<defs>
					<rect id="SVGID_65_" x="12.63" y="11.697" width="21.434" height="3.771"/>
				</defs>
				<clipPath id="SVGID_66_">
					<use xlink:href="#SVGID_65_"  overflow="visible"/>
				</clipPath>
				<path clip-path="url(#SVGID_66_)" fill="#E58871" d="M34.064,15.468c0-2.082-1.688-3.771-3.771-3.771H16.4
					c-2.082,0-3.77,1.689-3.77,3.771H34.064z"/>
			</g>
		</g>
		<g opacity="0.2" clip-path="url(#SVGID_62_)">
			<g>
				<defs>
					<rect id="SVGID_67_" x="16.313" y="4.656" width="14.072" height="7.037"/>
				</defs>
				<clipPath id="SVGID_68_">
					<use xlink:href="#SVGID_67_"  overflow="visible"/>
				</clipPath>
				<path clip-path="url(#SVGID_68_)" fill="#E58871" d="M16.313,11.693c0-3.888,3.15-7.037,7.036-7.037
					c3.886,0,7.036,3.149,7.036,7.037"/>
			</g>
		</g>
		<g opacity="0.5" clip-path="url(#SVGID_62_)">
			<g>
				<defs>
					<rect id="SVGID_69_" x="22.398" y="17.638" width="1.901" height="0.95"/>
				</defs>
				<clipPath id="SVGID_70_">
					<use xlink:href="#SVGID_69_"  overflow="visible"/>
				</clipPath>
				<path clip-path="url(#SVGID_70_)" fill="#E58871" d="M22.398,18.588c0-0.525,0.426-0.95,0.951-0.95
					c0.524,0,0.95,0.425,0.95,0.95H22.398z"/>
			</g>
		</g>
		<g opacity="0.2" clip-path="url(#SVGID_62_)">
			<g>
				<defs>
					<rect id="SVGID_71_" x="9.979" y="17.637" width="26.861" height="21.572"/>
				</defs>
				<clipPath id="SVGID_72_">
					<use xlink:href="#SVGID_71_"  overflow="visible"/>
				</clipPath>
				<path clip-path="url(#SVGID_72_)" fill="#E58871" d="M36.84,35.73l-1.328-18.094l-6.792,1.4
					c-0.18,0.037-0.337,0.146-0.434,0.302c-0.097,0.157-0.125,0.346-0.078,0.524l1.39,5.252c0.151,0.573,0.219,1.165,0.199,1.758
					l-0.021,0.618c0,0.867-0.236,1.703-0.766,2.39c-1.286,1.67-3.305,2.749-5.577,2.749c-1.961,0-4.316-1.168-5.697-2.96
					c-0.482-0.625-0.744-1.392-0.744-2.181v-0.003c0-1,0.129-1.995,0.385-2.962l1.23-4.66c0.047-0.178,0.019-0.367-0.078-0.524
					c-0.097-0.156-0.253-0.265-0.434-0.302l-6.791-1.4L9.979,35.73h5.501l-0.14,3.479c0,0,17.752-0.429,17.708-0.556
					c-0.004-0.012,0.048-2.795,0.014-2.924H36.84z"/>
			</g>
		</g>
	</g>
	<g display="inline" clip-path="url(#SVGID_46_)">
		<defs>
			<rect id="SVGID_73_" width="46.648" height="61.718"/>
		</defs>
		<clipPath id="SVGID_74_">
			<use xlink:href="#SVGID_73_"  overflow="visible"/>
		</clipPath>
		<path clip-path="url(#SVGID_74_)" fill="#7A6353" d="M14.544,11.806c-0.083,0-0.165-0.04-0.214-0.114
			c-0.079-0.119-0.047-0.278,0.071-0.359c1.289-0.857,3.642-0.765,5.388-0.537c0.139,0.017,0.238,0.146,0.221,0.288
			c-0.019,0.14-0.149,0.239-0.288,0.22c-2.379-0.311-4.12-0.152-5.036,0.458C14.641,11.79,14.592,11.806,14.544,11.806"/>
		<path clip-path="url(#SVGID_74_)" fill="#7A6353" d="M31.838,11.943c-0.034,0-0.063-0.007-0.096-0.02
			c-1.141-0.45-2.716-0.5-5.101-0.158c-0.143,0.019-0.27-0.078-0.29-0.218c-0.021-0.142,0.076-0.271,0.216-0.29
			c2.48-0.356,4.136-0.297,5.364,0.19c0.131,0.053,0.196,0.201,0.143,0.333C32.036,11.881,31.939,11.943,31.838,11.943"/>
		<path clip-path="url(#SVGID_74_)" fill="#F3B09D" d="M18.918,16.08c0,0.651-0.756,1.18-1.688,1.18s-1.687-0.529-1.687-1.18
			c0-0.652,0.755-1.18,1.687-1.18S18.918,15.428,18.918,16.08"/>
		<path clip-path="url(#SVGID_74_)" fill="#F3B09D" d="M31.063,16.08c0,0.651-0.754,1.18-1.687,1.18s-1.688-0.529-1.688-1.18
			c0-0.652,0.755-1.18,1.688-1.18S31.063,15.428,31.063,16.08"/>
		<path clip-path="url(#SVGID_74_)" fill="#D46A6B" d="M19.509,24.295c0,0.886,1.532,2.083,3.961,2.083
			c2.519,0,3.965-1.197,3.965-2.083H19.509z"/>
		<path clip-path="url(#SVGID_74_)" fill="#4C392C" d="M23.324,22.156l0.306,2.803h5.615c0.115,0,0.221-0.062,0.277-0.162
			s0.054-0.223-0.005-0.321c-1.266-2.095-3.568-3.495-6.193-3.495c-2.626,0-4.925,1.4-6.192,3.494
			c-0.06,0.099-0.062,0.222-0.005,0.322c0.056,0.099,0.162,0.162,0.277,0.162h5.616L23.324,22.156z"/>
		<path clip-path="url(#SVGID_74_)" fill="#4C392C" d="M35.183,30.979c-0.225-3.1-0.495-18.441-0.504-21.707
			c0.066-5.196-4.181-8.957-8.247-9.215c-0.444-0.033-0.288-0.026-0.777-0.039c-4.485-0.036-5.742-0.061-7.057,0.361
			c-1.635,0.465-3.082,1.407-4.16,2.586c-1.669,1.778-2.475,4.403-2.415,6.101c0.016,1.64-0.301,18.354-0.558,21.913
			c-0.109,1.502,0.808,2.89,2.228,3.372l6.294,2.128c1.08,0.366,2.206,0.544,3.331,0.536h0.006h0.008
			c1.122,0.008,2.249-0.17,3.33-0.536l6.295-2.128C34.374,33.869,35.292,32.481,35.183,30.979 M26.766,27.836
			c-0.932,0.255-1.931-0.031-2.591-0.74c-0.423-0.453-0.705-0.434-0.913-0.434c-0.29,0-0.56,0.191-0.789,0.434
			c-0.66,0.709-1.657,0.995-2.591,0.74c-3.169-0.859-5.582-3.262-6.917-8.49c-0.645-2.53,0.101-0.838,0.413-9.882v0.002
			C13.611,5.8,15.8,3.073,19.09,2.113c0.199-0.059,0.415,0.012,0.536,0.181c1.821,2.552,5.608,2.552,7.428-0.002
			c0.212-0.297,0.515-0.192,0.729-0.129c3.109,0.977,5.399,3.652,5.542,7.589c0.317,9.164,1.037,6.92,0.567,8.912
			C32.554,24.367,30.068,26.94,26.766,27.836"/>
		<path clip-path="url(#SVGID_74_)" fill="#5A5B5D" d="M17.503,14.695c-0.534,0-1.037-0.081-1.68-0.205
			c-0.069-0.016-0.114-0.084-0.1-0.15c0.012-0.071,0.08-0.116,0.15-0.103c1.166,0.227,1.859,0.301,3.155,0
			c0.068-0.017,0.138,0.028,0.154,0.099c0.015,0.066-0.027,0.136-0.097,0.152C18.46,14.633,17.97,14.695,17.503,14.695"/>
		<path clip-path="url(#SVGID_74_)" fill="#5A5B5D" d="M29.193,14.695c-0.466,0-0.954-0.062-1.581-0.207
			c-0.07-0.016-0.112-0.086-0.097-0.152c0.017-0.071,0.084-0.116,0.154-0.099c1.298,0.301,1.987,0.227,3.156,0
			c0.067-0.015,0.136,0.032,0.147,0.103c0.016,0.066-0.029,0.134-0.102,0.15C30.231,14.614,29.729,14.695,29.193,14.695"/>
	</g>
</g>
<g>
	<defs>
		<rect id="SVGID_75_" y="0" width="46.32" height="55.83"/>
	</defs>
	<clipPath id="SVGID_76_">
		<use xlink:href="#SVGID_75_"  overflow="visible"/>
	</clipPath>
	<g clip-path="url(#SVGID_76_)">
		<defs>
			<path id="SVGID_77_" d="M1,27.432c0,12.238,9.921,22.16,22.161,22.16c12.238,0,22.159-9.922,22.159-22.16
				S35.399,5.272,23.161,5.272C10.921,5.272,1,15.193,1,27.432"/>
		</defs>
		<clipPath id="SVGID_78_">
			<use xlink:href="#SVGID_77_"  overflow="visible"/>
		</clipPath>
		<path clip-path="url(#SVGID_78_)" fill="#FFFFFF" d="M45.32,27.432c0,12.238-9.922,22.16-22.16,22.16
			C10.921,49.592,1,39.67,1,27.432c0-12.238,9.921-22.16,22.16-22.16C35.398,5.272,45.32,15.194,45.32,27.432"/>
		<path clip-path="url(#SVGID_78_)" fill="#295158" d="M45.961,55.83H1.44v-9.361c0-4.531,3.675-8.207,8.208-8.207h28.106
			c4.531,0,8.206,3.676,8.206,8.207V55.83z"/>
	</g>
	<g clip-path="url(#SVGID_76_)">
		<defs>
			<rect id="SVGID_79_" y="0" width="46.321" height="55.83"/>
		</defs>
		<clipPath id="SVGID_80_">
			<use xlink:href="#SVGID_79_"  overflow="visible"/>
		</clipPath>
		<path clip-path="url(#SVGID_80_)" fill="none" stroke="#A9268D" stroke-width="2" stroke-miterlimit="10" d="M45.32,27.432
			c0,12.238-9.922,22.16-22.16,22.16C10.921,49.592,1,39.67,1,27.432C1,21.97,2.976,16.97,6.252,13.107
			c4.065-4.793,10.132-7.835,16.908-7.835C35.398,5.272,45.32,15.194,45.32,27.432z"/>
	</g>
	<g clip-path="url(#SVGID_76_)">
		<defs>
			<path id="SVGID_81_" d="M16.245,24.281v14.565c0,3.855,3.125,6.982,6.979,6.982c3.811,0,6.898-3.088,6.898-6.898V24.281H16.245z"
				/>
		</defs>
		<clipPath id="SVGID_82_">
			<use xlink:href="#SVGID_81_"  overflow="visible"/>
		</clipPath>
		<path clip-path="url(#SVGID_82_)" fill="#F3B09D" d="M30.123,38.93c0,3.811-3.089,6.898-6.897,6.898
			c-3.855,0-6.981-3.127-6.981-6.982V24.281h13.878V38.93z"/>
		<g opacity="0.4" clip-path="url(#SVGID_82_)">
			<g>
				<defs>
					<rect id="SVGID_83_" x="15.807" y="34.447" width="15.541" height="10.363"/>
				</defs>
				<clipPath id="SVGID_84_">
					<use xlink:href="#SVGID_83_"  overflow="visible"/>
				</clipPath>
				<path clip-path="url(#SVGID_84_)" fill="#E58871" d="M16.143,36.35c6.241,1.545,9.599,3.809,11.371,8.461l3.834-2.287
					l-0.101-8.008l-15.44-0.068L16.143,36.35z"/>
			</g>
		</g>
	</g>
	<g clip-path="url(#SVGID_76_)">
		<defs>
			<rect id="SVGID_85_" y="0" width="46.321" height="55.83"/>
		</defs>
		<clipPath id="SVGID_86_">
			<use xlink:href="#SVGID_85_"  overflow="visible"/>
		</clipPath>
		<path clip-path="url(#SVGID_86_)" fill="#F3B09D" d="M15.901,18.114c0,1.7-1.377,3.078-3.078,3.078
			c-1.701,0-3.078-1.378-3.078-3.078s1.377-3.078,3.078-3.078C14.524,15.036,15.901,16.414,15.901,18.114"/>
		<g opacity="0.2" clip-path="url(#SVGID_86_)">
			<g>
				<defs>
					<rect id="SVGID_87_" x="10.806" y="16.096" width="4.033" height="4.034"/>
				</defs>
				<clipPath id="SVGID_88_">
					<use xlink:href="#SVGID_87_"  overflow="visible"/>
				</clipPath>
				<path clip-path="url(#SVGID_88_)" fill="#E58871" d="M14.839,18.114c0,1.113-0.902,2.017-2.016,2.017
					c-1.113,0-2.017-0.904-2.017-2.017c0-1.114,0.904-2.018,2.017-2.018C13.938,16.096,14.839,17,14.839,18.114"/>
			</g>
		</g>
		<path clip-path="url(#SVGID_86_)" fill="#F3B09D" d="M36.577,18.114c0,1.7-1.379,3.078-3.079,3.078
			c-1.698,0-3.077-1.378-3.077-3.078s1.379-3.078,3.077-3.078C35.198,15.036,36.577,16.414,36.577,18.114"/>
		<g opacity="0.2" clip-path="url(#SVGID_86_)">
			<g>
				<defs>
					<rect id="SVGID_89_" x="31.481" y="16.096" width="4.033" height="4.034"/>
				</defs>
				<clipPath id="SVGID_90_">
					<use xlink:href="#SVGID_89_"  overflow="visible"/>
				</clipPath>
				<path clip-path="url(#SVGID_90_)" fill="#E58871" d="M35.515,18.114c0,1.113-0.903,2.017-2.018,2.017
					c-1.112,0-2.016-0.904-2.016-2.017c0-1.114,0.903-2.018,2.016-2.018C34.611,16.096,35.515,17,35.515,18.114"/>
			</g>
		</g>
	</g>
	<g clip-path="url(#SVGID_76_)">
		<defs>
			<path id="SVGID_91_" d="M20.909,1.683c-4.669,0-8.452,3.785-8.452,8.453v23.239c0,1.021,0.686,1.91,1.671,2.17l7.002,1.846
				c1.348,0.355,2.767,0.355,4.115-0.002l7.031-1.857c0.964-0.254,1.634-1.129,1.634-2.125V10.136c0-4.668-3.782-8.453-8.451-8.453
				H20.909z"/>
		</defs>
		<clipPath id="SVGID_92_">
			<use xlink:href="#SVGID_91_"  overflow="visible"/>
		</clipPath>
		<path clip-path="url(#SVGID_92_)" fill="#F3B09D" d="M33.91,33.371c0,1.309-1.059,2.367-2.365,5.344H14.884
			c-1.341-2.977-2.427-4.062-2.427-5.404V10.138c0-4.668,3.785-8.453,8.453-8.453h4.549c4.668,0,8.451,3.785,8.451,8.453V33.371z"/>
		<g opacity="0.5" clip-path="url(#SVGID_92_)">
			<g>
				<defs>
					<rect id="SVGID_93_" x="23.186" y="13.538" width="2.945" height="6.132"/>
				</defs>
				<clipPath id="SVGID_94_">
					<use xlink:href="#SVGID_93_"  overflow="visible"/>
				</clipPath>
				<polygon clip-path="url(#SVGID_94_)" fill="#E58871" points="23.186,19.669 23.186,13.538 26.13,19.429 				"/>
			</g>
		</g>
		<path clip-path="url(#SVGID_92_)" fill="#ED877B" d="M25.239,20.627c-1.136,1.135-2.976,1.135-4.109,0.001l-0.814-0.813
			c-0.101-0.102-0.131-0.253-0.077-0.384c0.055-0.132,0.184-0.218,0.326-0.218h5.237c0.143,0,0.272,0.086,0.327,0.218
			c0.053,0.131,0.023,0.282-0.078,0.384L25.239,20.627z"/>
		<g opacity="0.5" clip-path="url(#SVGID_92_)">
			<g>
				<defs>
					<rect id="SVGID_95_" x="12.545" y="12.363" width="21.277" height="3.745"/>
				</defs>
				<clipPath id="SVGID_96_">
					<use xlink:href="#SVGID_95_"  overflow="visible"/>
				</clipPath>
				<path clip-path="url(#SVGID_96_)" fill="#E58871" d="M33.822,16.108c0-2.068-1.677-3.745-3.744-3.745H16.29
					c-2.068,0-3.744,1.677-3.744,3.745H33.822z"/>
			</g>
		</g>
		<g opacity="0.2" clip-path="url(#SVGID_92_)">
			<g>
				<defs>
					<rect id="SVGID_97_" x="16.201" y="5.377" width="13.967" height="6.984"/>
				</defs>
				<clipPath id="SVGID_98_">
					<use xlink:href="#SVGID_97_"  overflow="visible"/>
				</clipPath>
				<path clip-path="url(#SVGID_98_)" fill="#E58871" d="M16.201,12.362c0-3.855,3.126-6.984,6.984-6.984
					c3.854,0,6.981,3.129,6.981,6.984"/>
			</g>
		</g>
		<g opacity="0.5" clip-path="url(#SVGID_92_)">
			<g>
				<defs>
					<rect id="SVGID_99_" x="22.241" y="18.264" width="1.889" height="0.941"/>
				</defs>
				<clipPath id="SVGID_100_">
					<use xlink:href="#SVGID_99_"  overflow="visible"/>
				</clipPath>
				<path clip-path="url(#SVGID_100_)" fill="#E58871" d="M22.241,19.206c0-0.521,0.422-0.941,0.944-0.941
					c0.52,0,0.943,0.42,0.943,0.941H22.241z"/>
			</g>
		</g>
		<g opacity="0.2" clip-path="url(#SVGID_92_)">
			<g>
				<defs>
					<rect id="SVGID_101_" x="9.916" y="18.262" width="26.662" height="21.412"/>
				</defs>
				<clipPath id="SVGID_102_">
					<use xlink:href="#SVGID_101_"  overflow="visible"/>
				</clipPath>
				<path clip-path="url(#SVGID_102_)" fill="#E58871" d="M36.577,36.221l-1.316-17.958l-6.742,1.388
					c-0.178,0.037-0.335,0.145-0.43,0.3c-0.098,0.156-0.124,0.343-0.078,0.52l1.221,4.627c0.253,0.959,0.381,1.946,0.381,2.938
					v0.006c0,0.863-0.283,1.695-0.81,2.378c-1.276,1.655-3.28,2.723-5.533,2.723c-2.366,0-4.457-1.178-5.719-2.979
					c-0.436-0.622-0.672-1.364-0.672-2.125v-0.003c0-0.993,0.128-1.981,0.382-2.94l1.221-4.626c0.047-0.177,0.019-0.364-0.077-0.52
					c-0.097-0.155-0.252-0.263-0.431-0.3l-6.742-1.388L9.916,36.221h5.461l-0.141,3.453c0,0,17.617-0.424,17.575-0.551
					c-0.003-0.012,0.049-2.775,0.016-2.902H36.577z"/>
			</g>
		</g>
		<path clip-path="url(#SVGID_92_)" fill="#5A5B5D" d="M19.314,15.471c-0.05,0-0.098-0.029-0.118-0.079
			c-0.291-0.7-0.968-1.152-1.726-1.152c-0.758,0-1.435,0.452-1.726,1.152c-0.027,0.066-0.101,0.097-0.167,0.07
			c-0.064-0.028-0.095-0.103-0.068-0.168c0.33-0.795,1.1-1.309,1.961-1.309c0.862,0,1.631,0.514,1.961,1.309
			c0.028,0.065-0.003,0.14-0.069,0.168C19.347,15.468,19.331,15.471,19.314,15.471"/>
	</g>
	<g clip-path="url(#SVGID_76_)">
		<defs>
			<path id="SVGID_103_" d="M15.51,15.294c-0.027,0.065,0.003,0.139,0.067,0.168c0.066,0.026,0.141-0.004,0.167-0.071
				c0.291-0.7,0.969-1.152,1.727-1.152c0.758,0,1.434,0.452,1.726,1.152c0.019,0.051,0.067,0.079,0.118,0.079
				c0.015,0,0.031-0.002,0.048-0.008c0.065-0.029,0.096-0.103,0.069-0.168c-0.33-0.795-1.1-1.31-1.961-1.31
				C16.609,13.984,15.84,14.5,15.51,15.294"/>
		</defs>
		<clipPath id="SVGID_104_">
			<use xlink:href="#SVGID_103_"  overflow="visible"/>
		</clipPath>
		<path clip-path="url(#SVGID_104_)" fill="#5A5B5D" d="M19.314,15.471c-0.05,0-0.098-0.029-0.118-0.079
			c-0.291-0.7-0.968-1.152-1.726-1.152c-0.758,0-1.435,0.452-1.726,1.152c-0.027,0.066-0.101,0.097-0.167,0.07
			c-0.064-0.028-0.095-0.103-0.068-0.168c0.33-0.795,1.1-1.309,1.961-1.309c0.862,0,1.631,0.514,1.961,1.309
			c0.028,0.065-0.003,0.14-0.069,0.168C19.347,15.468,19.331,15.471,19.314,15.471"/>
	</g>
	<g clip-path="url(#SVGID_76_)">
		<defs>
			<path id="SVGID_105_" d="M20.909,1.683c-4.669,0-8.452,3.785-8.452,8.453v23.239c0,1.021,0.686,1.91,1.671,2.17l7.002,1.846
				c1.348,0.355,2.767,0.355,4.115-0.002l7.031-1.857c0.964-0.254,1.634-1.129,1.634-2.125V10.136c0-4.668-3.782-8.453-8.451-8.453
				H20.909z"/>
		</defs>
		<clipPath id="SVGID_106_">
			<use xlink:href="#SVGID_105_"  overflow="visible"/>
		</clipPath>
		<path clip-path="url(#SVGID_106_)" fill="#5A5B5D" d="M30.742,15.471c-0.051,0-0.098-0.029-0.117-0.079
			c-0.29-0.7-0.969-1.152-1.727-1.152c-0.759,0-1.435,0.452-1.725,1.152c-0.029,0.066-0.104,0.097-0.168,0.07
			c-0.065-0.028-0.094-0.103-0.068-0.168c0.329-0.795,1.1-1.309,1.961-1.309s1.63,0.514,1.961,1.309
			c0.027,0.065-0.005,0.14-0.068,0.168C30.774,15.468,30.759,15.471,30.742,15.471"/>
	</g>
	<g clip-path="url(#SVGID_76_)">
		<defs>
			<path id="SVGID_107_" d="M26.938,15.294c-0.026,0.065,0.003,0.139,0.066,0.168c0.066,0.026,0.14-0.004,0.169-0.071
				c0.29-0.7,0.966-1.152,1.726-1.152c0.758,0,1.436,0.452,1.725,1.152c0.021,0.051,0.068,0.079,0.117,0.079
				c0.017,0,0.034-0.002,0.05-0.008c0.064-0.029,0.095-0.103,0.069-0.168c-0.331-0.795-1.102-1.31-1.961-1.31
				C28.037,13.984,27.267,14.5,26.938,15.294"/>
		</defs>
		<clipPath id="SVGID_108_">
			<use xlink:href="#SVGID_107_"  overflow="visible"/>
		</clipPath>
		<path clip-path="url(#SVGID_108_)" fill="#5A5B5D" d="M30.742,15.471c-0.051,0-0.098-0.029-0.117-0.079
			c-0.29-0.7-0.969-1.152-1.727-1.152c-0.759,0-1.435,0.452-1.725,1.152c-0.029,0.066-0.104,0.097-0.168,0.07
			c-0.065-0.028-0.094-0.103-0.068-0.168c0.329-0.795,1.1-1.309,1.961-1.309s1.63,0.514,1.961,1.309
			c0.027,0.065-0.005,0.14-0.068,0.168C30.774,15.468,30.759,15.471,30.742,15.471"/>
	</g>
	<g clip-path="url(#SVGID_76_)">
		<defs>
			<path id="SVGID_109_" d="M20.909,1.683c-4.669,0-8.452,3.785-8.452,8.453v23.239c0,1.021,0.686,1.91,1.671,2.17l7.002,1.846
				c1.348,0.355,2.767,0.355,4.115-0.002l7.031-1.857c0.964-0.254,1.634-1.129,1.634-2.125V10.136c0-4.668-3.782-8.453-8.451-8.453
				H20.909z"/>
		</defs>
		<clipPath id="SVGID_110_">
			<use xlink:href="#SVGID_109_"  overflow="visible"/>
		</clipPath>
		<path clip-path="url(#SVGID_110_)" fill="#D46A6B" d="M18.834,24.907c0,1.644,1.729,3.863,4.472,3.863
			c2.84,0,4.47-2.219,4.47-3.863H18.834z"/>
	</g>
	<g clip-path="url(#SVGID_76_)">
		<defs>
			<path id="SVGID_111_" d="M18.834,24.907c0,1.643,1.73,3.864,4.472,3.864c2.842,0,4.472-2.221,4.472-3.864H18.834z"/>
		</defs>
		<clipPath id="SVGID_112_">
			<use xlink:href="#SVGID_111_"  overflow="visible"/>
		</clipPath>
		<g opacity="0.3" clip-path="url(#SVGID_112_)">
			<g>
				<defs>
					<rect id="SVGID_113_" x="19.352" y="25.633" width="8.114" height="8.115"/>
				</defs>
				<clipPath id="SVGID_114_">
					<use xlink:href="#SVGID_113_"  overflow="visible"/>
				</clipPath>
				<path clip-path="url(#SVGID_114_)" fill="#95494A" d="M27.466,29.69c0,2.242-1.816,4.058-4.058,4.058
					c-2.239,0-4.057-1.816-4.057-4.058c0-2.241,1.818-4.057,4.057-4.057C25.649,25.633,27.466,27.449,27.466,29.69"/>
			</g>
		</g>
		<path clip-path="url(#SVGID_112_)" fill="#FFFFFF" d="M27.44,24.194c0,0.91-1.807,1.647-4.031,1.647
			c-2.225,0-4.031-0.737-4.031-1.647c0-0.909,1.806-1.646,4.031-1.646C25.634,22.548,27.44,23.285,27.44,24.194"/>
	</g>
	<g clip-path="url(#SVGID_76_)">
		<defs>
			<rect id="SVGID_115_" y="0" width="46.321" height="55.83"/>
		</defs>
		<clipPath id="SVGID_116_">
			<use xlink:href="#SVGID_115_"  overflow="visible"/>
		</clipPath>
		<rect x="12.427" y="9.237" clip-path="url(#SVGID_116_)" fill="#725D4D" width="0.372" height="9.042"/>
		<rect x="33.541" y="9.237" clip-path="url(#SVGID_116_)" fill="#725D4D" width="0.372" height="9.042"/>
		<path clip-path="url(#SVGID_116_)" fill="#7A6353" d="M14.5,12.814c-0.117,0-0.221-0.079-0.249-0.197
			c-0.031-0.136,0.055-0.273,0.191-0.306l5.062-1.178c0.137-0.033,0.273,0.055,0.306,0.193c0.032,0.135-0.054,0.272-0.191,0.303
			l-5.061,1.179C14.539,12.812,14.519,12.814,14.5,12.814"/>
		<path clip-path="url(#SVGID_116_)" fill="#7A6353" d="M31.602,12.75c-0.008,0-0.016-0.002-0.021-0.002l-5.178-0.454
			c-0.141-0.011-0.243-0.135-0.232-0.273c0.013-0.141,0.135-0.245,0.275-0.232l5.178,0.451c0.141,0.012,0.244,0.137,0.231,0.276
			C31.843,12.648,31.733,12.75,31.602,12.75"/>
		<path clip-path="url(#SVGID_116_)" fill="#F3B09D" d="M18.786,16.716c0,0.646-0.75,1.172-1.674,1.172
			c-0.926,0-1.676-0.526-1.676-1.172c0-0.647,0.75-1.17,1.676-1.17C18.036,15.546,18.786,16.069,18.786,16.716"/>
		<path clip-path="url(#SVGID_116_)" fill="#F3B09D" d="M30.841,16.716c0,0.646-0.748,1.172-1.676,1.172
			c-0.923,0-1.673-0.526-1.673-1.172c0-0.647,0.75-1.17,1.673-1.17C30.093,15.546,30.841,16.069,30.841,16.716"/>
	</g>
	<g clip-path="url(#SVGID_76_)">
		<defs>
			<path id="SVGID_117_" d="M22.91,0c-2.181,0.02-4.191,0.494-5.472,1.365c-4.188-0.395-5.006,2.172-5.006,6.189l0.027,3.21
				c2.501-0.631,5.311-3.833,5.311-3.833c5.513,2.768,9.262,3.313,13.161,3.211c-0.173-0.096-0.654-0.476-0.725-0.542
				c1.464,0.226,2.274,0.338,3.729,0.185V7.891c0-5.443-5.756-7.846-10.744-7.89H22.91z"/>
		</defs>
		<clipPath id="SVGID_118_">
			<use xlink:href="#SVGID_117_"  overflow="visible"/>
		</clipPath>
		<path clip-path="url(#SVGID_118_)" fill="#7A6353" d="M12.432,7.554c0-4.017,0.818-6.584,5.006-6.189
			c4.244-2.886,16.499-1.415,16.499,6.526v1.894c-1.456,0.154-2.267,0.041-3.731-0.184c0.071,0.065,0.552,0.445,0.726,0.542
			C27.033,10.244,23.283,9.7,17.77,6.932c0,0-2.81,3.202-5.312,3.833L12.432,7.554z"/>
		<path clip-path="url(#SVGID_118_)" fill="#725D4D" d="M12.141,5.527c4.543,3.565,10.826-7.048,18.085-3.97l3.811,2.044
			l1.176,7.065l-7.693,1.904l-8.754-1.663l-6.791,0.903L12.141,5.527z"/>
	</g>
</g>
<g display="none">
	<defs>
		<rect id="SVGID_119_" x="-2" y="-1.337" width="50.391" height="61.909"/>
	</defs>
	<clipPath id="SVGID_120_" display="inline">
		<use xlink:href="#SVGID_119_"  overflow="visible"/>
	</clipPath>
	<g display="inline" clip-path="url(#SVGID_120_)">
		<defs>
			<path id="SVGID_121_" d="M0.989,25.285c0,12.263,9.942,22.207,22.207,22.207c12.264,0,22.207-9.944,22.207-22.207
				c0-12.265-9.943-22.205-22.207-22.205C10.931,3.08,0.989,13.021,0.989,25.285"/>
		</defs>
		<clipPath id="SVGID_122_">
			<use xlink:href="#SVGID_121_"  overflow="visible"/>
		</clipPath>
		<path clip-path="url(#SVGID_122_)" fill="#FFFFFF" d="M45.402,25.285c0,12.264-9.943,22.207-22.207,22.207
			c-12.265,0-22.207-9.943-22.207-22.207c0-12.266,9.942-22.205,22.207-22.205C35.459,3.08,45.402,13.019,45.402,25.285"/>
		<path clip-path="url(#SVGID_122_)" fill="#13A0C8" d="M41.288,60.572H5.103v-16.13c0-4.643,4.455-8.406,9.951-8.406h16.284
			c5.495,0,9.95,3.764,9.95,8.406V60.572z"/>
	</g>
	<g display="inline" clip-path="url(#SVGID_120_)">
		<defs>
			<rect id="SVGID_123_" x="-2" y="-1.337" width="50.391" height="61.909"/>
		</defs>
		<clipPath id="SVGID_124_">
			<use xlink:href="#SVGID_123_"  overflow="visible"/>
		</clipPath>
		<path clip-path="url(#SVGID_124_)" fill="none" stroke="#00B3D9" stroke-width="2" stroke-miterlimit="10" d="M38.897,9.583
			c4.019,4.018,6.505,9.569,6.505,15.702c0,12.264-9.943,22.207-22.207,22.207c-12.264,0-22.207-9.943-22.207-22.207
			c0-12.265,9.942-22.205,22.207-22.205C29.327,3.08,34.878,5.564,38.897,9.583z"/>
		<path clip-path="url(#SVGID_124_)" fill="none" stroke="#F9C415" stroke-width="2" stroke-miterlimit="10" d="M40.302,8.177
			c4.381,4.377,7.09,10.426,7.09,17.108c0,13.364-10.833,24.197-24.196,24.197C9.833,49.481-1,38.648-1,25.285
			C-1,11.92,9.833,1.091,23.195,1.091C29.875,1.091,35.924,3.798,40.302,8.177z"/>
	</g>
	<g display="inline" clip-path="url(#SVGID_120_)">
		<defs>
			<path id="SVGID_125_" d="M16.776,23.508v13.526c0,3.579,2.901,6.481,6.482,6.481c3.536,0,6.402-2.867,6.402-6.403V23.508H16.776z
				"/>
		</defs>
		<clipPath id="SVGID_126_">
			<use xlink:href="#SVGID_125_"  overflow="visible"/>
		</clipPath>
		<path clip-path="url(#SVGID_126_)" fill="#F3B09D" d="M29.66,37.112c0,3.536-2.866,6.403-6.402,6.403
			c-3.58,0-6.482-2.902-6.482-6.481V23.508H29.66V37.112z"/>
		<g opacity="0.4" clip-path="url(#SVGID_126_)">
			<g>
				<defs>
					<rect id="SVGID_127_" x="16.368" y="32.948" width="14.431" height="9.619"/>
				</defs>
				<clipPath id="SVGID_128_">
					<use xlink:href="#SVGID_127_"  overflow="visible"/>
				</clipPath>
				<path clip-path="url(#SVGID_128_)" fill="#E58871" d="M16.681,34.713c5.794,1.436,8.914,3.536,10.558,7.854l3.56-2.122
					l-0.094-7.435l-14.337-0.062L16.681,34.713z"/>
			</g>
		</g>
	</g>
	<g display="inline" clip-path="url(#SVGID_120_)">
		<defs>
			<rect id="SVGID_129_" x="-2" y="-1.337" width="50.391" height="61.909"/>
		</defs>
		<clipPath id="SVGID_130_">
			<use xlink:href="#SVGID_129_"  overflow="visible"/>
		</clipPath>
		<path clip-path="url(#SVGID_130_)" fill="#F3B09D" d="M15.92,17.471c0,1.703-1.381,3.084-3.084,3.084
			c-1.704,0-3.085-1.381-3.085-3.084s1.381-3.084,3.085-3.084C14.54,14.387,15.92,15.768,15.92,17.471"/>
		<g opacity="0.2" clip-path="url(#SVGID_130_)">
			<g>
				<defs>
					<rect id="SVGID_131_" x="10.815" y="15.448" width="4.042" height="4.043"/>
				</defs>
				<clipPath id="SVGID_132_">
					<use xlink:href="#SVGID_131_"  overflow="visible"/>
				</clipPath>
				<path clip-path="url(#SVGID_132_)" fill="#E58871" d="M14.857,17.471c0,1.116-0.905,2.021-2.021,2.021
					c-1.116,0-2.021-0.905-2.021-2.021c0-1.116,0.905-2.022,2.021-2.022C13.952,15.449,14.857,16.354,14.857,17.471"/>
			</g>
		</g>
		<path clip-path="url(#SVGID_130_)" fill="#F3B09D" d="M36.639,17.471c0,1.703-1.383,3.084-3.085,3.084s-3.084-1.381-3.084-3.084
			s1.382-3.084,3.084-3.084S36.639,15.768,36.639,17.471"/>
		<g opacity="0.2" clip-path="url(#SVGID_130_)">
			<g>
				<defs>
					<rect id="SVGID_133_" x="31.534" y="15.448" width="4.04" height="4.043"/>
				</defs>
				<clipPath id="SVGID_134_">
					<use xlink:href="#SVGID_133_"  overflow="visible"/>
				</clipPath>
				<path clip-path="url(#SVGID_134_)" fill="#E58871" d="M35.574,17.471c0,1.116-0.902,2.021-2.021,2.021
					c-1.116,0-2.02-0.905-2.02-2.021c0-1.116,0.903-2.022,2.02-2.022C34.672,15.449,35.574,16.354,35.574,17.471"/>
			</g>
		</g>
	</g>
	<g display="inline" clip-path="url(#SVGID_120_)">
		<defs>
			<path id="SVGID_135_" d="M20.938,1.006c-4.678,0-8.471,3.791-8.471,8.47V28.37c0,2.302,1.552,4.316,3.779,4.903l0.203,0.054
				c4.439,1.17,9.105,1.168,13.546-0.005l0.184-0.049c2.233-0.59,3.79-2.616,3.79-4.926V9.476c0-4.679-3.792-8.47-8.47-8.47H20.938z
				"/>
		</defs>
		<clipPath id="SVGID_136_">
			<use xlink:href="#SVGID_135_"  overflow="visible"/>
		</clipPath>
		<path clip-path="url(#SVGID_136_)" fill="#F3B09D" d="M33.969,32.759c0,1.31-1.062,2.371-2.371,5.354H14.901
			c-1.344-2.982-2.433-4.071-2.433-5.414V9.477c0-4.679,3.793-8.471,8.471-8.471h4.558c4.68,0,8.472,3.792,8.472,8.471V32.759z"/>
		<g opacity="0.5" clip-path="url(#SVGID_136_)">
			<g>
				<defs>
					<rect id="SVGID_137_" x="23.219" y="12.885" width="2.95" height="6.143"/>
				</defs>
				<clipPath id="SVGID_138_">
					<use xlink:href="#SVGID_137_"  overflow="visible"/>
				</clipPath>
				<polygon clip-path="url(#SVGID_138_)" fill="#E58871" points="23.219,19.027 23.219,12.884 26.17,18.789 				"/>
			</g>
		</g>
		<path clip-path="url(#SVGID_136_)" fill="#ED877B" d="M25.277,19.988c-1.137,1.136-2.979,1.136-4.117-0.001l-0.816-0.815
			c-0.1-0.102-0.13-0.253-0.076-0.385c0.055-0.132,0.183-0.218,0.326-0.218h5.25c0.144,0,0.271,0.086,0.326,0.218
			c0.054,0.132,0.023,0.284-0.077,0.385L25.277,19.988z"/>
		<g opacity="0.5" clip-path="url(#SVGID_136_)">
			<g>
				<defs>
					<rect id="SVGID_139_" x="12.561" y="11.708" width="21.316" height="3.751"/>
				</defs>
				<clipPath id="SVGID_140_">
					<use xlink:href="#SVGID_139_"  overflow="visible"/>
				</clipPath>
				<path clip-path="url(#SVGID_140_)" fill="#E58871" d="M33.877,15.459c0-2.071-1.68-3.751-3.751-3.751H16.312
					c-2.072,0-3.751,1.68-3.751,3.751H33.877z"/>
			</g>
		</g>
		<g opacity="0.2" clip-path="url(#SVGID_136_)">
			<g>
				<defs>
					<rect id="SVGID_141_" x="16.221" y="4.706" width="13.997" height="6.999"/>
				</defs>
				<clipPath id="SVGID_142_">
					<use xlink:href="#SVGID_141_"  overflow="visible"/>
				</clipPath>
				<path clip-path="url(#SVGID_142_)" fill="#E58871" d="M16.221,11.705c0-3.864,3.133-6.999,6.998-6.999
					c3.866,0,6.999,3.135,6.999,6.999"/>
			</g>
		</g>
		<g opacity="0.5" clip-path="url(#SVGID_136_)">
			<g>
				<defs>
					<rect id="SVGID_143_" x="22.273" y="17.618" width="1.892" height="0.945"/>
				</defs>
				<clipPath id="SVGID_144_">
					<use xlink:href="#SVGID_143_"  overflow="visible"/>
				</clipPath>
				<path clip-path="url(#SVGID_144_)" fill="#E58871" d="M22.273,18.563c0-0.521,0.423-0.945,0.945-0.945s0.946,0.424,0.946,0.945
					H22.273z"/>
			</g>
		</g>
		<g opacity="0.2" clip-path="url(#SVGID_136_)">
			<g>
				<defs>
					<rect id="SVGID_145_" x="9.922" y="18.942" width="26.716" height="20.132"/>
				</defs>
				<clipPath id="SVGID_146_">
					<use xlink:href="#SVGID_145_"  overflow="visible"/>
				</clipPath>
				<path clip-path="url(#SVGID_146_)" fill="#E58871" d="M36.639,35.614l-1.319-16.672l-6.731,1.384
					c-0.182,0.037-0.342,0.15-0.437,0.311c-0.096,0.161-0.119,0.354-0.066,0.534l0.739,2.435c0.273,0.906,0.413,1.847,0.413,2.793
					c0,1.045-0.441,2.039-1.212,2.741c-1.39,1.266-3.363,1.845-4.721,1.845c-1.843,0-4.244-0.855-5.541-2.72
					c-0.313-0.45-0.482-0.986-0.482-1.535c0-1.165,0.176-2.323,0.523-3.435l0.662-2.12c0.055-0.18,0.033-0.375-0.062-0.537
					c-0.096-0.162-0.256-0.276-0.44-0.314l-6.724-1.382L9.922,35.614h5.472l-0.14,3.46c0,0,17.655-0.425,17.613-0.554
					c-0.004-0.01,0.046-2.778,0.014-2.906H36.639z"/>
			</g>
		</g>
	</g>
	<g display="inline" clip-path="url(#SVGID_120_)">
		<defs>
			<rect id="SVGID_147_" x="-2" y="-1.337" width="50.391" height="61.909"/>
		</defs>
		<clipPath id="SVGID_148_">
			<use xlink:href="#SVGID_147_"  overflow="visible"/>
		</clipPath>
		<rect x="12.439" y="5.606" clip-path="url(#SVGID_148_)" fill="#737577" width="0.374" height="9.588"/>
		<rect x="33.597" y="7.97" clip-path="url(#SVGID_148_)" fill="#737577" width="0.373" height="7.224"/>
		<path clip-path="url(#SVGID_148_)" fill="#737577" d="M14.368,10.713c-0.22,0-0.406-0.169-0.424-0.393
			c-0.018-0.235,0.157-0.438,0.391-0.458l5.192-0.404c0.235-0.017,0.439,0.156,0.458,0.391c0.017,0.235-0.157,0.44-0.392,0.458
			l-5.192,0.404C14.39,10.712,14.379,10.713,14.368,10.713"/>
		<path clip-path="url(#SVGID_148_)" fill="#737577" d="M31.659,10.626H31.63l-5.195-0.339c-0.235-0.015-0.414-0.22-0.397-0.452
			c0.016-0.234,0.218-0.413,0.451-0.398l5.196,0.339c0.236,0.015,0.413,0.218,0.398,0.453
			C32.068,10.453,31.881,10.626,31.659,10.626"/>
		<path clip-path="url(#SVGID_148_)" fill="#F3B09D" d="M18.812,16.069c0,0.648-0.751,1.173-1.678,1.173
			c-0.927,0-1.679-0.525-1.679-1.173c0-0.649,0.752-1.173,1.679-1.173C18.061,14.896,18.812,15.42,18.812,16.069"/>
		<path clip-path="url(#SVGID_148_)" fill="#F3B09D" d="M30.894,16.069c0,0.648-0.751,1.173-1.679,1.173
			c-0.926,0-1.678-0.525-1.678-1.173c0-0.649,0.752-1.173,1.678-1.173C30.143,14.896,30.894,15.42,30.894,16.069"/>
		<path clip-path="url(#SVGID_148_)" fill="#333334" d="M18.664,18.612h-2.1c-2.023,0-3.669-1.646-3.669-3.67v-1.738
			c0-1.138,0.926-2.061,2.062-2.061h5.314c1.136,0,2.062,0.923,2.062,2.061v1.738C22.333,16.966,20.687,18.612,18.664,18.612
			 M14.957,12.249c-0.526,0-0.955,0.428-0.955,0.955v1.738c0,1.414,1.15,2.564,2.562,2.564h2.1c1.413,0,2.563-1.15,2.563-2.564
			v-1.738c0-0.527-0.43-0.955-0.956-0.955H14.957z"/>
		<rect x="12.04" y="13.338" clip-path="url(#SVGID_148_)" fill="#333334" width="1.467" height="1.115"/>
		<path clip-path="url(#SVGID_148_)" fill="#333334" d="M29.873,18.612h-2.1c-2.022,0-3.668-1.646-3.668-3.67v-1.738
			c0-1.138,0.925-2.061,2.062-2.061h5.312c1.137,0,2.061,0.923,2.061,2.061v1.738C33.541,16.966,31.897,18.612,29.873,18.612
			 M26.168,12.249c-0.528,0-0.955,0.428-0.955,0.955v1.738c0,1.414,1.148,2.564,2.561,2.564h2.1c1.414,0,2.564-1.15,2.564-2.564
			v-1.738c0-0.527-0.429-0.955-0.957-0.955H26.168z"/>
		<rect x="32.931" y="13.338" clip-path="url(#SVGID_148_)" fill="#333334" width="1.469" height="1.115"/>
		<rect x="22.015" y="13.338" clip-path="url(#SVGID_148_)" fill="#333334" width="2.757" height="1.115"/>
		<path clip-path="url(#SVGID_148_)" fill="#FFFFFF" d="M18.86,24.275c0,1.646,1.732,2.968,4.481,2.968
			c2.847,0,4.48-1.322,4.48-2.968H18.86z"/>
		<path clip-path="url(#SVGID_148_)" fill="#737577" d="M15.843,3.467c2.212,2.098,14.452,1.264,14.452,1.264
			c-0.212-0.302-0.807-0.484-1.163-0.514c1.985,0.096,4.463,2.157,4.463,3.717c0,0.512,0.367,0.36,0.358,0.34
			C34.549-3.594,18.172-2.279,15.559,0.729c-2.765,0.596-3.38,2.706-3.069,6.486C12.49,7.215,15.616,4.827,15.843,3.467"/>
		<path clip-path="url(#SVGID_148_)" fill="#737577" d="M29.406,14.496c0,0.379-0.308,0.684-0.685,0.684
			c-0.378,0-0.683-0.305-0.683-0.684c0-0.378,0.305-0.685,0.683-0.685C29.099,13.811,29.406,14.118,29.406,14.496"/>
		<path clip-path="url(#SVGID_148_)" fill="#737577" d="M18.401,14.496c0,0.379-0.306,0.684-0.685,0.684
			c-0.377,0-0.683-0.305-0.683-0.684c0-0.378,0.306-0.685,0.683-0.685C18.095,13.811,18.401,14.118,18.401,14.496"/>
		<path clip-path="url(#SVGID_148_)" fill="#939598" d="M23.311,25.856c-1.124,0-2.309-0.073-3.81-0.244l0.011-0.083
			c3.159,0.354,4.914,0.288,7.658,0l0.01,0.083C25.731,25.766,24.559,25.856,23.311,25.856"/>
	</g>
</g>
</svg>
