<?xml version="1.0" encoding="utf-8"?>
<!-- Generator: Adobe Illustrator 15.1.0, SVG Export Plug-In . SVG Version: 6.00 Build 0)  -->
<!DOCTYPE svg PUBLIC "-//W3C//DTD SVG 1.1//EN" "http://www.w3.org/Graphics/SVG/1.1/DTD/svg11.dtd">
<svg version="1.1" id="Layer_1" xmlns="http://www.w3.org/2000/svg" xmlns:xlink="http://www.w3.org/1999/xlink" x="0px" y="0px"
	 width="46.648px" height="49.719px" viewBox="0 0 46.648 49.719" enable-background="new 0 0 46.648 49.719" xml:space="preserve">
<g>
	<defs>
		<rect id="SVGID_1_" width="46.648" height="61.718"/>
	</defs>
	<clipPath id="SVGID_2_">
		<use xlink:href="#SVGID_1_"  overflow="visible"/>
	</clipPath>
	<g clip-path="url(#SVGID_2_)">
		<defs>
			<path id="SVGID_3_" d="M1,26.243c0,12.332,9.995,22.324,22.324,22.324c12.33,0,22.324-9.992,22.324-22.324
				c0-12.328-9.994-22.325-22.324-22.325C10.995,3.918,1,13.915,1,26.243"/>
		</defs>
		<clipPath id="SVGID_4_">
			<use xlink:href="#SVGID_3_"  overflow="visible"/>
		</clipPath>
		<path clip-path="url(#SVGID_4_)" fill="#FFFFFF" d="M45.648,26.242c0,12.331-9.994,22.325-22.324,22.325
			C10.996,48.567,1,38.573,1,26.242C1,13.914,10.996,3.918,23.324,3.918C35.654,3.918,45.648,13.914,45.648,26.242"/>
		<path clip-path="url(#SVGID_4_)" fill="#F04C23" d="M41.512,61.718H5.137V45.501c0-4.666,4.478-8.45,10.003-8.45h16.37
			c5.524,0,10.002,3.784,10.002,8.45V61.718z"/>
	</g>
	<g clip-path="url(#SVGID_2_)">
		<defs>
			<rect id="SVGID_5_" width="46.648" height="61.718"/>
		</defs>
		<clipPath id="SVGID_6_">
			<use xlink:href="#SVGID_5_"  overflow="visible"/>
		</clipPath>
		
			<circle clip-path="url(#SVGID_6_)" fill="none" stroke="#AED136" stroke-width="2" stroke-miterlimit="10" cx="23.324" cy="26.242" r="22.324"/>
	</g>
	<g clip-path="url(#SVGID_2_)">
		<defs>
			<path id="SVGID_7_" d="M16.359,23.701v14.675c0,3.885,3.149,7.033,7.033,7.033c3.839,0,6.948-3.11,6.948-6.947V23.701H16.359z"/>
		</defs>
		<clipPath id="SVGID_8_">
			<use xlink:href="#SVGID_7_"  overflow="visible"/>
		</clipPath>
		<path clip-path="url(#SVGID_8_)" fill="#F3B09D" d="M30.34,38.462c0,3.837-3.11,6.947-6.948,6.947
			c-3.884,0-7.032-3.148-7.032-7.033V23.701h13.98V38.462z"/>
		<g opacity="0.4" clip-path="url(#SVGID_8_)">
			<g>
				<defs>
					<rect id="SVGID_9_" x="15.916" y="33.943" width="15.658" height="10.439"/>
				</defs>
				<clipPath id="SVGID_10_">
					<use xlink:href="#SVGID_9_"  overflow="visible"/>
				</clipPath>
				<path clip-path="url(#SVGID_10_)" fill="#E58871" d="M16.255,35.859c6.287,1.558,9.672,3.836,11.455,8.523l3.863-2.304
					l-0.102-8.067l-15.556-0.068L16.255,35.859z"/>
			</g>
		</g>
	</g>
	<g clip-path="url(#SVGID_2_)">
		<defs>
			<rect id="SVGID_11_" width="46.648" height="61.718"/>
		</defs>
		<clipPath id="SVGID_12_">
			<use xlink:href="#SVGID_11_"  overflow="visible"/>
		</clipPath>
		<path clip-path="url(#SVGID_12_)" fill="#F3B09D" d="M16.011,17.488c0,1.712-1.388,3.1-3.1,3.1c-1.713,0-3.102-1.388-3.102-3.1
			c0-1.714,1.389-3.101,3.102-3.101C14.623,14.387,16.011,15.774,16.011,17.488"/>
		<g opacity="0.2" clip-path="url(#SVGID_12_)">
			<g>
				<defs>
					<rect id="SVGID_13_" x="10.878" y="15.457" width="4.063" height="4.062"/>
				</defs>
				<clipPath id="SVGID_14_">
					<use xlink:href="#SVGID_13_"  overflow="visible"/>
				</clipPath>
				<path clip-path="url(#SVGID_14_)" fill="#E58871" d="M14.942,17.488c0,1.123-0.909,2.031-2.031,2.031
					c-1.122,0-2.032-0.908-2.032-2.031c0-1.121,0.91-2.031,2.032-2.031C14.033,15.457,14.942,16.367,14.942,17.488"/>
			</g>
		</g>
		<path clip-path="url(#SVGID_12_)" fill="#F3B09D" d="M36.84,17.488c0,1.712-1.386,3.1-3.102,3.1c-1.711,0-3.099-1.388-3.099-3.1
			c0-1.714,1.388-3.101,3.099-3.101C35.454,14.387,36.84,15.774,36.84,17.488"/>
		<g opacity="0.2" clip-path="url(#SVGID_12_)">
			<g>
				<defs>
					<rect id="SVGID_15_" x="31.706" y="15.457" width="4.064" height="4.062"/>
				</defs>
				<clipPath id="SVGID_16_">
					<use xlink:href="#SVGID_15_"  overflow="visible"/>
				</clipPath>
				<path clip-path="url(#SVGID_16_)" fill="#E58871" d="M35.771,17.488c0,1.123-0.91,2.031-2.032,2.031s-2.032-0.908-2.032-2.031
					c0-1.121,0.91-2.031,2.032-2.031S35.771,16.367,35.771,17.488"/>
			</g>
		</g>
	</g>
	<g clip-path="url(#SVGID_2_)">
		<defs>
			<path id="SVGID_17_" d="M21.058,0.936c-4.703,0-8.516,3.812-8.516,8.515v21.716c0,1.025,0.692,1.924,1.684,2.186l7.055,1.859
				c1.359,0.357,2.789,0.357,4.146-0.001l7.084-1.873c0.972-0.257,1.648-1.137,1.648-2.142V9.451c0-4.703-3.812-8.515-8.516-8.515
				H21.058z"/>
		</defs>
		<clipPath id="SVGID_18_">
			<use xlink:href="#SVGID_17_"  overflow="visible"/>
		</clipPath>
		<path clip-path="url(#SVGID_18_)" fill="#F3B09D" d="M34.158,32.858c0,1.316-1.066,2.384-2.384,5.384H14.988
			c-1.35-3-2.445-4.094-2.445-5.446V9.449c0-4.703,3.813-8.516,8.516-8.516h4.583c4.702,0,8.516,3.813,8.516,8.516V32.858z"/>
		<g opacity="0.5" clip-path="url(#SVGID_18_)">
			<g>
				<defs>
					<rect id="SVGID_19_" x="23.35" y="12.878" width="2.966" height="6.178"/>
				</defs>
				<clipPath id="SVGID_20_">
					<use xlink:href="#SVGID_19_"  overflow="visible"/>
				</clipPath>
				<polygon clip-path="url(#SVGID_20_)" fill="#E58871" points="23.35,19.056 23.35,12.877 26.315,18.814 				"/>
			</g>
		</g>
		<path clip-path="url(#SVGID_18_)" fill="#ED877B" d="M25.42,20.021c-1.144,1.144-2.996,1.143-4.139,0l-0.82-0.821
			c-0.102-0.102-0.132-0.254-0.078-0.387c0.056-0.132,0.185-0.219,0.329-0.219l5.277,0.002c0.144,0,0.272,0.086,0.328,0.219
			c0.055,0.133,0.024,0.285-0.077,0.387L25.42,20.021z"/>
		<g opacity="0.5" clip-path="url(#SVGID_18_)">
			<g>
				<defs>
					<rect id="SVGID_21_" x="12.63" y="11.697" width="21.434" height="3.771"/>
				</defs>
				<clipPath id="SVGID_22_">
					<use xlink:href="#SVGID_21_"  overflow="visible"/>
				</clipPath>
				<path clip-path="url(#SVGID_22_)" fill="#E58871" d="M34.064,15.468c0-2.082-1.688-3.771-3.771-3.771H16.4
					c-2.082,0-3.77,1.689-3.77,3.771H34.064z"/>
			</g>
		</g>
		<g opacity="0.2" clip-path="url(#SVGID_18_)">
			<g>
				<defs>
					<rect id="SVGID_23_" x="16.313" y="4.656" width="14.072" height="7.037"/>
				</defs>
				<clipPath id="SVGID_24_">
					<use xlink:href="#SVGID_23_"  overflow="visible"/>
				</clipPath>
				<path clip-path="url(#SVGID_24_)" fill="#E58871" d="M16.313,11.693c0-3.888,3.15-7.037,7.036-7.037
					c3.886,0,7.036,3.149,7.036,7.037"/>
			</g>
		</g>
		<g opacity="0.5" clip-path="url(#SVGID_18_)">
			<g>
				<defs>
					<rect id="SVGID_25_" x="22.398" y="17.638" width="1.901" height="0.95"/>
				</defs>
				<clipPath id="SVGID_26_">
					<use xlink:href="#SVGID_25_"  overflow="visible"/>
				</clipPath>
				<path clip-path="url(#SVGID_26_)" fill="#E58871" d="M22.398,18.588c0-0.525,0.426-0.95,0.951-0.95
					c0.524,0,0.95,0.425,0.95,0.95H22.398z"/>
			</g>
		</g>
		<g opacity="0.2" clip-path="url(#SVGID_18_)">
			<g>
				<defs>
					<rect id="SVGID_27_" x="9.979" y="17.637" width="26.861" height="21.572"/>
				</defs>
				<clipPath id="SVGID_28_">
					<use xlink:href="#SVGID_27_"  overflow="visible"/>
				</clipPath>
				<path clip-path="url(#SVGID_28_)" fill="#E58871" d="M36.84,35.73l-1.328-18.094l-6.792,1.4
					c-0.18,0.037-0.337,0.146-0.434,0.302c-0.097,0.157-0.125,0.346-0.078,0.524l1.39,5.252c0.151,0.573,0.219,1.165,0.199,1.758
					l-0.021,0.618c0,0.867-0.236,1.703-0.766,2.39c-1.286,1.67-3.305,2.749-5.577,2.749c-1.961,0-4.316-1.168-5.697-2.96
					c-0.482-0.625-0.744-1.392-0.744-2.181v-0.003c0-1,0.129-1.995,0.385-2.962l1.23-4.66c0.047-0.178,0.019-0.367-0.078-0.524
					c-0.097-0.156-0.253-0.265-0.434-0.302l-6.791-1.4L9.979,35.73h5.501l-0.14,3.479c0,0,17.752-0.429,17.708-0.556
					c-0.004-0.012,0.048-2.795,0.014-2.924H36.84z"/>
			</g>
		</g>
	</g>
	<g clip-path="url(#SVGID_2_)">
		<defs>
			<rect id="SVGID_29_" width="46.648" height="61.718"/>
		</defs>
		<clipPath id="SVGID_30_">
			<use xlink:href="#SVGID_29_"  overflow="visible"/>
		</clipPath>
		<path clip-path="url(#SVGID_30_)" fill="#7A6353" d="M14.544,11.806c-0.083,0-0.165-0.04-0.214-0.114
			c-0.079-0.119-0.047-0.278,0.071-0.359c1.289-0.857,3.642-0.765,5.388-0.537c0.139,0.017,0.238,0.146,0.221,0.288
			c-0.019,0.14-0.149,0.239-0.288,0.22c-2.379-0.311-4.12-0.152-5.036,0.458C14.641,11.79,14.592,11.806,14.544,11.806"/>
		<path clip-path="url(#SVGID_30_)" fill="#7A6353" d="M31.838,11.943c-0.034,0-0.063-0.007-0.096-0.02
			c-1.141-0.45-2.716-0.5-5.101-0.158c-0.143,0.019-0.27-0.078-0.29-0.218c-0.021-0.142,0.076-0.271,0.216-0.29
			c2.48-0.356,4.136-0.297,5.364,0.19c0.131,0.053,0.196,0.201,0.143,0.333C32.036,11.881,31.939,11.943,31.838,11.943"/>
		<path clip-path="url(#SVGID_30_)" fill="#F3B09D" d="M18.918,16.08c0,0.651-0.756,1.18-1.688,1.18s-1.687-0.529-1.687-1.18
			c0-0.652,0.755-1.18,1.687-1.18S18.918,15.428,18.918,16.08"/>
		<path clip-path="url(#SVGID_30_)" fill="#F3B09D" d="M31.063,16.08c0,0.651-0.754,1.18-1.687,1.18s-1.688-0.529-1.688-1.18
			c0-0.652,0.755-1.18,1.688-1.18S31.063,15.428,31.063,16.08"/>
		<path clip-path="url(#SVGID_30_)" fill="#D46A6B" d="M19.509,24.295c0,0.886,1.532,2.083,3.961,2.083
			c2.519,0,3.965-1.197,3.965-2.083H19.509z"/>
		<path clip-path="url(#SVGID_30_)" fill="#4C392C" d="M23.324,22.156l0.306,2.803h5.615c0.115,0,0.221-0.062,0.277-0.162
			s0.054-0.223-0.005-0.321c-1.266-2.095-3.568-3.495-6.193-3.495c-2.626,0-4.925,1.4-6.192,3.494
			c-0.06,0.099-0.062,0.222-0.005,0.322c0.056,0.099,0.162,0.162,0.277,0.162h5.616L23.324,22.156z"/>
		<path clip-path="url(#SVGID_30_)" fill="#4C392C" d="M35.183,30.979c-0.225-3.1-0.495-18.441-0.504-21.707
			c0.066-5.196-4.181-8.957-8.247-9.215c-0.444-0.033-0.288-0.026-0.777-0.039c-4.485-0.036-5.742-0.061-7.057,0.361
			c-1.635,0.465-3.082,1.407-4.16,2.586c-1.669,1.778-2.475,4.403-2.415,6.101c0.016,1.64-0.301,18.354-0.558,21.913
			c-0.109,1.502,0.808,2.89,2.228,3.372l6.294,2.128c1.08,0.366,2.206,0.544,3.331,0.536h0.006h0.008
			c1.122,0.008,2.249-0.17,3.33-0.536l6.295-2.128C34.374,33.869,35.292,32.481,35.183,30.979 M26.766,27.836
			c-0.932,0.255-1.931-0.031-2.591-0.74c-0.423-0.453-0.705-0.434-0.913-0.434c-0.29,0-0.56,0.191-0.789,0.434
			c-0.66,0.709-1.657,0.995-2.591,0.74c-3.169-0.859-5.582-3.262-6.917-8.49c-0.645-2.53,0.101-0.838,0.413-9.882v0.002
			C13.611,5.8,15.8,3.073,19.09,2.113c0.199-0.059,0.415,0.012,0.536,0.181c1.821,2.552,5.608,2.552,7.428-0.002
			c0.212-0.297,0.515-0.192,0.729-0.129c3.109,0.977,5.399,3.652,5.542,7.589c0.317,9.164,1.037,6.92,0.567,8.912
			C32.554,24.367,30.068,26.94,26.766,27.836"/>
		<path clip-path="url(#SVGID_30_)" fill="#5A5B5D" d="M17.503,14.695c-0.534,0-1.037-0.081-1.68-0.205
			c-0.069-0.016-0.114-0.084-0.1-0.15c0.012-0.071,0.08-0.116,0.15-0.103c1.166,0.227,1.859,0.301,3.155,0
			c0.068-0.017,0.138,0.028,0.154,0.099c0.015,0.066-0.027,0.136-0.097,0.152C18.46,14.633,17.97,14.695,17.503,14.695"/>
		<path clip-path="url(#SVGID_30_)" fill="#5A5B5D" d="M29.193,14.695c-0.466,0-0.954-0.062-1.581-0.207
			c-0.07-0.016-0.112-0.086-0.097-0.152c0.017-0.071,0.084-0.116,0.154-0.099c1.298,0.301,1.987,0.227,3.156,0
			c0.067-0.015,0.136,0.032,0.147,0.103c0.016,0.066-0.029,0.134-0.102,0.15C30.231,14.614,29.729,14.695,29.193,14.695"/>
	</g>
</g>
</svg>
