<?xml version="1.0" encoding="utf-8"?>
<!-- Generator: Adobe Illustrator 15.1.0, SVG Export Plug-In . SVG Version: 6.00 Build 0)  -->
<!DOCTYPE svg PUBLIC "-//W3C//DTD SVG 1.1//EN" "http://www.w3.org/Graphics/SVG/1.1/DTD/svg11.dtd">
<svg version="1.1" id="Layer_1" xmlns="http://www.w3.org/2000/svg" xmlns:xlink="http://www.w3.org/1999/xlink" x="0px" y="0px"
	 width="129.975px" height="64.288px" viewBox="0 0 129.975 64.288" enable-background="new 0 0 129.975 64.288"
	 xml:space="preserve">
<g>
	<g>
		<defs>
			<path id="SVGID_1_" d="M1.045,34.137c0,16.043,13.004,29.046,29.045,29.046c16.041,0,29.046-13.003,29.046-29.046
				c0-16.039-13.005-29.043-29.046-29.043C14.049,5.094,1.045,18.098,1.045,34.137"/>
		</defs>
		<clipPath id="SVGID_2_">
			<use xlink:href="#SVGID_1_"  overflow="visible"/>
		</clipPath>
		<path clip-path="url(#SVGID_2_)" fill="#FFFFFF" d="M59.136,34.137c0,16.043-13.005,29.047-29.046,29.047
			c-16.041,0-29.045-13.004-29.045-29.047c0-16.039,13.004-29.043,29.045-29.043C46.131,5.093,59.136,18.098,59.136,34.137"/>
		<polygon clip-path="url(#SVGID_2_)" fill="#655243" points="46.82,19.887 48.099,56.778 11.821,56.778 12.822,21.389 		"/>
		<path clip-path="url(#SVGID_2_)" fill="#4B7CA2" d="M50.081,80.294H10.096v-21.1c0-6.072,4.923-10.996,10.996-10.996h17.993
			c6.073,0,10.996,4.924,10.996,10.996V80.294z"/>
	</g>
	<g>
		<path fill="none" stroke="#F37E20" stroke-width="2" stroke-miterlimit="10" d="M59.182,34.138
			c0,16.068-13.023,29.093-29.091,29.093C14.024,63.23,1,50.206,1,34.138c0-16.064,13.024-29.09,29.091-29.09
			C46.159,5.047,59.182,18.073,59.182,34.138z"/>
	</g>
	<g>
		<defs>
			<path id="SVGID_3_" d="M22.743,33.209v15.284c0,4.045,3.279,7.326,7.325,7.326c3.998,0,7.237-3.241,7.237-7.238V33.209H22.743z"
				/>
		</defs>
		<clipPath id="SVGID_4_">
			<use xlink:href="#SVGID_3_"  overflow="visible"/>
		</clipPath>
		<path clip-path="url(#SVGID_4_)" fill="#F3B09D" d="M37.305,48.581c0,3.997-3.24,7.237-7.238,7.237
			c-4.044,0-7.324-3.279-7.324-7.325V33.209h14.562V48.581z"/>
		<g opacity="0.4" clip-path="url(#SVGID_4_)">
			<g>
				<defs>
					<rect id="SVGID_5_" x="20.353" y="40.713" width="20.372" height="13.581"/>
				</defs>
				<clipPath id="SVGID_6_">
					<use xlink:href="#SVGID_5_"  overflow="visible"/>
				</clipPath>
				<path clip-path="url(#SVGID_6_)" fill="#E58871" d="M20.796,43.204c8.176,2.025,12.582,4.99,14.899,11.089l5.029-2.999
					L40.59,40.801l-20.236-0.087L20.796,43.204z"/>
			</g>
		</g>
	</g>
	<g>
		<path fill="#F3B09D" d="M47.934,22.084c0,1.735-1.326,3.146-2.961,3.146c-1.636,0-2.962-1.411-2.962-3.146
			c0-1.735,1.326-3.142,2.962-3.142C46.607,18.942,47.934,20.35,47.934,22.084"/>
		<path fill="#F3B09D" d="M18.609,22.084c0,1.735-1.325,3.146-2.962,3.146c-1.636,0-2.96-1.411-2.96-3.146
			c0-1.735,1.325-3.142,2.96-3.142C17.285,18.942,18.609,20.35,18.609,22.084"/>
		<path fill="#558DB8" d="M14.881,24.283c0,0.215-0.175,0.39-0.39,0.39c-0.215,0-0.388-0.175-0.388-0.39
			c0-0.216,0.172-0.39,0.388-0.39C14.706,23.893,14.881,24.067,14.881,24.283"/>
		<path fill="#558DB8" d="M46.487,24.283c0,0.215-0.175,0.39-0.391,0.39c-0.214,0-0.388-0.175-0.388-0.39
			c0-0.216,0.173-0.39,0.388-0.39C46.312,23.893,46.487,24.067,46.487,24.283"/>
	</g>
	<g>
		<defs>
			<path id="SVGID_7_" d="M29.747,1.597c-3.93,0-7.695,1.579-10.448,4.381c-2.753,2.804-4.264,6.596-4.195,10.525l0.239,13.28
				c0.068,3.781,1.909,7.312,4.973,9.532l6.752,4.895c1.895,1.371,4.454,1.375,6.352,0.01l6.83-4.914
				c3.079-2.213,4.933-5.748,5.007-9.539l0.236-12.117c0.082-4.229-1.54-8.312-4.502-11.332C38.029,3.297,33.977,1.597,29.747,1.597
				L29.747,1.597z"/>
		</defs>
		<clipPath id="SVGID_8_">
			<use xlink:href="#SVGID_7_"  overflow="visible"/>
		</clipPath>
		<path clip-path="url(#SVGID_8_)" fill="#F3B09D" d="M45.257,29.768c-0.075,3.791-1.929,7.325-5.007,9.539l-6.83,4.913
			c-1.899,1.365-4.458,1.361-6.352-0.011l-6.752-4.894c-3.063-2.219-4.905-5.75-4.973-9.531l-0.238-13.28
			c-0.07-3.929,1.441-7.722,4.194-10.524c2.754-2.803,6.519-4.382,10.448-4.382h0.002c4.229,0,8.281,1.701,11.243,4.721
			c2.961,3.02,4.583,7.103,4.5,11.332L45.257,29.768z"/>
		<g opacity="0.2" clip-path="url(#SVGID_8_)">
			<g>
				<defs>
					<rect id="SVGID_9_" x="21.145" y="10.289" width="18.308" height="9.154"/>
				</defs>
				<clipPath id="SVGID_10_">
					<use xlink:href="#SVGID_9_"  overflow="visible"/>
				</clipPath>
				<path clip-path="url(#SVGID_10_)" fill="#E58871" d="M21.145,19.442c0-5.055,4.098-9.154,9.154-9.154
					c5.053,0,9.154,4.099,9.154,9.154"/>
			</g>
		</g>
		<path clip-path="url(#SVGID_8_)" fill="#7A6353" d="M42.191,18.412c0,0-0.021-0.017-0.065-0.042
			c-0.042-0.024-0.107-0.068-0.189-0.11c-0.041-0.02-0.086-0.042-0.136-0.067c-0.047-0.023-0.102-0.048-0.163-0.068
			c-0.059-0.023-0.125-0.048-0.191-0.072c-0.069-0.025-0.146-0.043-0.22-0.067c-0.076-0.023-0.156-0.043-0.241-0.059
			c-0.085-0.015-0.17-0.042-0.259-0.053c-0.093-0.016-0.184-0.029-0.279-0.043c-0.097-0.014-0.194-0.024-0.292-0.034
			c-0.1-0.012-0.201-0.02-0.305-0.025c-0.102-0.004-0.206-0.016-0.311-0.016c-0.21-0.005-0.424-0.009-0.637-0.004
			c-0.215,0-0.43,0.016-0.64,0.024c-0.211,0.016-0.419,0.03-0.619,0.048c-0.199,0.025-0.393,0.038-0.574,0.066
			c-0.187,0.025-0.357,0.043-0.518,0.068c-0.316,0.05-0.582,0.094-0.767,0.129c-0.184,0.032-0.29,0.051-0.29,0.051l-0.007,0.002
			c-0.184,0.033-0.357-0.085-0.388-0.27c-0.033-0.181,0.089-0.356,0.268-0.388c0.008,0,0.018-0.001,0.026-0.004
			c0,0,0.109-0.011,0.301-0.033c0.19-0.021,0.464-0.046,0.794-0.069c0.166-0.015,0.342-0.021,0.533-0.034
			c0.184-0.012,0.387-0.013,0.592-0.022c0.207-0.004,0.422-0.004,0.637-0.002c0.217,0.008,0.436,0.008,0.657,0.024
			c0.219,0.009,0.442,0.032,0.656,0.054c0.108,0.007,0.217,0.027,0.321,0.04c0.106,0.012,0.209,0.029,0.312,0.05
			c0.101,0.019,0.203,0.035,0.3,0.057c0.097,0.022,0.191,0.045,0.285,0.066c0.093,0.02,0.18,0.051,0.266,0.074
			c0.088,0.026,0.172,0.05,0.248,0.082c0.08,0.031,0.154,0.057,0.224,0.085c0.07,0.032,0.135,0.062,0.196,0.089
			c0.064,0.027,0.121,0.06,0.172,0.089c0.052,0.032,0.098,0.058,0.141,0.083c0.083,0.051,0.142,0.1,0.184,0.127
			c0.04,0.028,0.062,0.046,0.062,0.046c0.034,0.024,0.042,0.071,0.017,0.105C42.27,18.424,42.224,18.433,42.191,18.412"/>
		<path clip-path="url(#SVGID_8_)" fill="#7A6353" d="M18.32,18.286c0,0,0.021-0.019,0.063-0.046
			c0.042-0.027,0.099-0.076,0.183-0.127c0.042-0.025,0.09-0.052,0.141-0.083c0.053-0.029,0.109-0.062,0.171-0.089
			c0.063-0.027,0.13-0.058,0.198-0.089c0.068-0.028,0.144-0.054,0.223-0.085c0.078-0.032,0.162-0.056,0.248-0.082
			c0.086-0.023,0.173-0.055,0.267-0.074c0.093-0.021,0.188-0.044,0.285-0.066c0.097-0.022,0.198-0.038,0.301-0.057
			c0.102-0.021,0.206-0.038,0.312-0.05c0.105-0.013,0.214-0.033,0.32-0.04c0.216-0.022,0.437-0.045,0.656-0.054
			c0.222-0.016,0.44-0.016,0.659-0.024c0.215-0.002,0.429-0.002,0.635,0.002c0.208,0.009,0.406,0.01,0.595,0.022
			c0.189,0.013,0.368,0.019,0.531,0.034c0.33,0.023,0.604,0.048,0.794,0.069c0.191,0.022,0.3,0.033,0.3,0.033
			c0.186,0.022,0.319,0.185,0.298,0.369c-0.017,0.182-0.184,0.314-0.366,0.297c-0.008,0-0.017-0.004-0.025-0.004L25.1,18.138
			c0,0-0.104-0.019-0.289-0.051c-0.185-0.035-0.451-0.079-0.768-0.129c-0.159-0.025-0.333-0.043-0.516-0.069
			c-0.181-0.027-0.376-0.042-0.576-0.065c-0.198-0.018-0.407-0.032-0.619-0.048c-0.208-0.008-0.424-0.024-0.637-0.024
			c-0.215-0.005-0.429-0.001-0.64,0.004c-0.105,0-0.209,0.012-0.311,0.016c-0.104,0.005-0.207,0.013-0.304,0.025
			c-0.098,0.01-0.199,0.02-0.292,0.034c-0.097,0.014-0.188,0.027-0.279,0.043c-0.09,0.011-0.176,0.038-0.26,0.053
			c-0.084,0.016-0.166,0.036-0.241,0.059c-0.074,0.024-0.151,0.042-0.218,0.067c-0.067,0.024-0.132,0.049-0.192,0.072
			c-0.061,0.02-0.116,0.045-0.164,0.068c-0.05,0.025-0.096,0.047-0.137,0.067c-0.082,0.042-0.144,0.086-0.189,0.11
			c-0.043,0.025-0.065,0.042-0.065,0.042c-0.036,0.021-0.082,0.012-0.105-0.022C18.279,18.352,18.29,18.309,18.32,18.286"/>
		<g opacity="0.5" clip-path="url(#SVGID_8_)">
			<g>
				<defs>
					<rect id="SVGID_11_" x="15.828" y="19.391" width="28.938" height="4.572"/>
				</defs>
				<clipPath id="SVGID_12_">
					<use xlink:href="#SVGID_11_"  overflow="visible"/>
				</clipPath>
				<path clip-path="url(#SVGID_12_)" fill="#E58871" d="M44.766,23.963c0-2.526-2.277-4.573-5.091-4.573H20.921
					c-2.813,0-5.093,2.047-5.093,4.573H44.766z"/>
			</g>
		</g>
		<path clip-path="url(#SVGID_8_)" fill="#F3B09D" d="M22.311,24.761c0,0.846-0.982,1.536-2.195,1.536
			c-1.214,0-2.195-0.69-2.195-1.536c0-0.849,0.981-1.533,2.195-1.533C21.329,23.228,22.311,23.912,22.311,24.761"/>
		<g opacity="0.2" clip-path="url(#SVGID_8_)">
			<g>
				<defs>
					<rect id="SVGID_13_" x="26.537" y="14.015" width="33.388" height="38.912"/>
				</defs>
				<clipPath id="SVGID_14_">
					<use xlink:href="#SVGID_13_"  overflow="visible"/>
				</clipPath>
				<path clip-path="url(#SVGID_14_)" fill="#E58871" d="M59.921,25.516c-0.25-0.322-8.479-11.501-8.479-11.501l-9.595,4.504
					c0.011,1.676-0.088,3.263-0.277,4.764c-0.189-0.038-0.385-0.055-0.589-0.055c-1.213,0-2.193,0.685-2.193,1.534
					c0,0.846,0.98,1.536,2.193,1.536c0.022,0,0.043-0.005,0.065-0.005c-2.738,12.334-11.729,17.98-14.51,19.438l9.073,7.197
					l11.981-4.589C47.59,48.338,60.171,25.835,59.921,25.516"/>
			</g>
		</g>
		<path clip-path="url(#SVGID_8_)" fill="#5A5B5D" d="M37.803,23.53c-1.128,0-2.138-0.674-2.569-1.716
			c-0.039-0.085,0.003-0.185,0.088-0.218c0.085-0.037,0.184,0.004,0.22,0.09c0.382,0.916,1.269,1.509,2.261,1.509
			c0.992,0,1.88-0.593,2.262-1.509l0.042-0.102l0.111-0.001c0.351-0.003,0.609-0.033,0.878-0.165
			c0.081-0.041,0.181-0.009,0.223,0.073c0.041,0.085,0.007,0.183-0.074,0.225c-0.323,0.161-0.627,0.19-0.917,0.199
			C39.873,22.9,38.894,23.53,37.803,23.53"/>
	</g>
	<g>
		<defs>
			<path id="SVGID_15_" d="M41.096,21.419c-0.27,0.133-0.527,0.163-0.878,0.165l-0.11,0.001l-0.042,0.103
				c-0.382,0.914-1.27,1.509-2.263,1.509c-0.992,0-1.879-0.595-2.261-1.509c-0.036-0.087-0.134-0.127-0.219-0.09
				c-0.085,0.033-0.127,0.131-0.089,0.218c0.432,1.041,1.441,1.716,2.57,1.716c1.091,0,2.07-0.631,2.525-1.615
				c0.29-0.009,0.594-0.039,0.916-0.199c0.082-0.042,0.115-0.141,0.075-0.225c-0.03-0.059-0.089-0.092-0.149-0.092
				C41.145,21.401,41.12,21.407,41.096,21.419"/>
		</defs>
		<clipPath id="SVGID_16_">
			<use xlink:href="#SVGID_15_"  overflow="visible"/>
		</clipPath>
		<path clip-path="url(#SVGID_16_)" fill="#5A5B5D" d="M37.803,23.53c-1.128,0-2.138-0.674-2.569-1.716
			c-0.039-0.085,0.003-0.185,0.088-0.218c0.085-0.037,0.184,0.004,0.22,0.09c0.382,0.916,1.269,1.509,2.261,1.509
			c0.992,0,1.88-0.593,2.262-1.509c0.034-0.086,0.133-0.127,0.217-0.09c0.087,0.033,0.126,0.132,0.091,0.218
			C39.941,22.856,38.931,23.53,37.803,23.53"/>
	</g>
	<g>
		<defs>
			<path id="SVGID_17_" d="M29.747,1.597c-3.93,0-7.695,1.579-10.448,4.381c-2.753,2.804-4.264,6.596-4.195,10.525l0.239,13.28
				c0.068,3.781,1.909,7.312,4.973,9.532l6.752,4.895c1.895,1.371,4.454,1.375,6.352,0.01l6.83-4.914
				c3.079-2.213,4.933-5.748,5.007-9.539l0.236-12.117c0.082-4.229-1.54-8.312-4.502-11.332C38.029,3.297,33.977,1.597,29.747,1.597
				L29.747,1.597z"/>
		</defs>
		<clipPath id="SVGID_18_">
			<use xlink:href="#SVGID_17_"  overflow="visible"/>
		</clipPath>
		<path clip-path="url(#SVGID_18_)" fill="#5A5B5D" d="M22.839,23.53c-1.091,0-2.071-0.63-2.527-1.615
			c-0.288-0.008-0.594-0.038-0.915-0.199c-0.082-0.042-0.116-0.14-0.076-0.225c0.042-0.082,0.141-0.114,0.224-0.073
			c0.27,0.132,0.526,0.162,0.878,0.165l0.111,0.001l0.042,0.102c0.381,0.916,1.27,1.509,2.262,1.509s1.881-0.593,2.26-1.509
			c0.038-0.086,0.136-0.126,0.22-0.09c0.086,0.033,0.127,0.132,0.089,0.218C24.976,22.856,23.968,23.53,22.839,23.53"/>
	</g>
	<g>
		<defs>
			<path id="SVGID_19_" d="M19.322,21.493c-0.04,0.083-0.005,0.183,0.077,0.225c0.319,0.16,0.625,0.189,0.914,0.199
				c0.456,0.983,1.436,1.615,2.527,1.615c1.128,0,2.137-0.675,2.569-1.716c0.038-0.086-0.003-0.185-0.091-0.218
				c-0.083-0.036-0.18,0.003-0.218,0.09c-0.378,0.914-1.268,1.509-2.26,1.509c-0.993,0-1.88-0.595-2.263-1.509l-0.042-0.103
				l-0.11-0.001c-0.351-0.002-0.608-0.032-0.878-0.165c-0.024-0.012-0.05-0.018-0.076-0.018
				C19.41,21.401,19.352,21.434,19.322,21.493"/>
		</defs>
		<clipPath id="SVGID_20_">
			<use xlink:href="#SVGID_19_"  overflow="visible"/>
		</clipPath>
		<path clip-path="url(#SVGID_20_)" fill="#5A5B5D" d="M22.839,23.53c-1.13,0-2.138-0.674-2.57-1.716
			c-0.036-0.085,0.005-0.185,0.088-0.218c0.087-0.036,0.183,0.004,0.22,0.09c0.381,0.916,1.27,1.509,2.262,1.509
			s1.881-0.593,2.26-1.509c0.038-0.086,0.136-0.126,0.22-0.09c0.086,0.033,0.127,0.132,0.089,0.218
			C24.976,22.856,23.968,23.53,22.839,23.53"/>
	</g>
	<g>
		<defs>
			<path id="SVGID_21_" d="M29.747,1.597c-3.93,0-7.695,1.579-10.448,4.381c-2.753,2.804-4.264,6.596-4.195,10.525l0.239,13.28
				c0.068,3.781,1.909,7.312,4.973,9.532l6.752,4.895c1.895,1.371,4.454,1.375,6.352,0.01l6.83-4.914
				c3.079-2.213,4.933-5.748,5.007-9.539l0.236-12.117c0.082-4.229-1.54-8.312-4.502-11.332C38.029,3.297,33.977,1.597,29.747,1.597
				L29.747,1.597z"/>
		</defs>
		<clipPath id="SVGID_22_">
			<use xlink:href="#SVGID_21_"  overflow="visible"/>
		</clipPath>
		<g opacity="0.2" clip-path="url(#SVGID_22_)">
			<g>
				<defs>
					<rect id="SVGID_23_" x="16.526" y="24.728" width="7.846" height="7.848"/>
				</defs>
				<clipPath id="SVGID_24_">
					<use xlink:href="#SVGID_23_"  overflow="visible"/>
				</clipPath>
				<path clip-path="url(#SVGID_24_)" fill="#E58871" d="M24.372,28.649c0,2.169-1.756,3.926-3.922,3.926
					c-2.167,0-3.923-1.757-3.923-3.926c0-2.164,1.756-3.921,3.923-3.921C22.616,24.728,24.372,26.485,24.372,28.649"/>
			</g>
		</g>
		<g opacity="0.2" clip-path="url(#SVGID_22_)">
			<g>
				<defs>
					<rect id="SVGID_25_" x="36.225" y="24.728" width="7.845" height="7.848"/>
				</defs>
				<clipPath id="SVGID_26_">
					<use xlink:href="#SVGID_25_"  overflow="visible"/>
				</clipPath>
				<path clip-path="url(#SVGID_26_)" fill="#E58871" d="M44.07,28.649c0,2.169-1.757,3.926-3.921,3.926
					c-2.169,0-3.924-1.757-3.924-3.926c0-2.164,1.754-3.921,3.924-3.921C42.312,24.728,44.07,26.485,44.07,28.649"/>
			</g>
		</g>
		<g opacity="0.2" clip-path="url(#SVGID_22_)">
			<g>
				<defs>
					<rect id="SVGID_27_" x="34.62" y="29.855" width="2.696" height="3.765"/>
				</defs>
				<clipPath id="SVGID_28_">
					<use xlink:href="#SVGID_27_"  overflow="visible"/>
				</clipPath>
				<path clip-path="url(#SVGID_28_)" fill="#E58871" d="M37.257,33.62c-1.347-0.836-2.308-2.198-2.637-3.742l0.109-0.023
					c0.324,1.512,1.267,2.852,2.587,3.67L37.257,33.62z"/>
			</g>
		</g>
		<path clip-path="url(#SVGID_22_)" fill="#ED877B" d="M32.178,30.272c-1.041,1.04-2.727,1.04-3.766,0l-0.746-0.746
			c-0.092-0.092-0.121-0.232-0.07-0.352c0.05-0.12,0.168-0.199,0.299-0.199h4.801c0.13,0,0.249,0.079,0.298,0.199
			c0.05,0.12,0.023,0.26-0.069,0.352L32.178,30.272z"/>
		<g opacity="0.5" clip-path="url(#SVGID_22_)">
			<g>
				<defs>
					<rect id="SVGID_29_" x="29.21" y="27.768" width="2.473" height="1.236"/>
				</defs>
				<clipPath id="SVGID_30_">
					<use xlink:href="#SVGID_29_"  overflow="visible"/>
				</clipPath>
				<path clip-path="url(#SVGID_30_)" fill="#E58871" d="M29.21,29.004c0-0.684,0.552-1.236,1.234-1.236
					c0.684,0,1.239,0.552,1.239,1.236H29.21z"/>
			</g>
		</g>
		<g opacity="0.5" clip-path="url(#SVGID_22_)">
			<g>
				<defs>
					<rect id="SVGID_31_" x="30.557" y="22.81" width="2.357" height="6.58"/>
				</defs>
				<clipPath id="SVGID_32_">
					<use xlink:href="#SVGID_31_"  overflow="visible"/>
				</clipPath>
				<polygon clip-path="url(#SVGID_32_)" fill="#E58871" points="30.557,29.39 30.557,22.811 32.915,29.199 				"/>
			</g>
		</g>
		<path clip-path="url(#SVGID_22_)" fill="#DD4F7A" d="M28.004,36.514c0,0,0.084,0.012,0.229,0.031
			c0.074,0.01,0.161,0.022,0.262,0.035c0.102,0.014,0.216,0.036,0.34,0.046c0.125,0.014,0.259,0.031,0.402,0.048
			c0.141,0.019,0.291,0.025,0.446,0.035c0.157,0.008,0.316,0.029,0.48,0.024c0.163,0,0.328,0.001,0.494-0.002
			c0.167-0.011,0.332-0.022,0.495-0.032c0.162-0.009,0.322-0.039,0.476-0.059c0.078-0.008,0.155-0.019,0.229-0.025
			c0.074-0.014,0.147-0.027,0.218-0.039c0.141-0.024,0.273-0.046,0.397-0.068c0.122-0.021,0.236-0.051,0.337-0.071
			c0.099-0.019,0.188-0.036,0.258-0.053c0.143-0.028,0.226-0.042,0.226-0.042s-0.08,0.025-0.218,0.071
			c-0.072,0.022-0.156,0.047-0.252,0.078c-0.101,0.029-0.208,0.068-0.333,0.097c-0.121,0.028-0.252,0.06-0.393,0.093
			c-0.071,0.017-0.145,0.034-0.218,0.052c-0.073,0.012-0.151,0.025-0.229,0.038c-0.158,0.022-0.315,0.055-0.483,0.071
			c-0.166,0.013-0.332,0.025-0.502,0.037c-0.168,0.006-0.338-0.003-0.504-0.003c-0.167,0.004-0.328-0.021-0.486-0.034
			c-0.157-0.016-0.311-0.026-0.452-0.057c-0.143-0.024-0.277-0.048-0.402-0.07c-0.124-0.02-0.234-0.055-0.334-0.077
			c-0.099-0.025-0.186-0.047-0.256-0.064C28.085,36.537,28.004,36.514,28.004,36.514"/>
	</g>
	<g>
		<defs>
			<path id="SVGID_33_" d="M36.178,33.54c-0.852,0.13-2.366,0.3-3.77,0.109c-0.293-0.034-0.5,0.024-0.78,0.102l-0.915,0.229
				c-0.18,0.049-0.373,0.044-0.549-0.01l-0.774-0.222c-0.202-0.058-0.421-0.054-0.619,0.011c-0.692,0.228-2.377,0.78-3.244,1.062
				c-0.069,0.021-0.111,0.078-0.103,0.138c0.008,0.062,0.063,0.109,0.137,0.119c1.352,0.198,4.877,0.071,4.877,0.071
				c3.136-0.17,4.608-0.721,5.847-1.401c0.057-0.033,0.078-0.088,0.053-0.139c-0.022-0.046-0.076-0.073-0.135-0.073
				C36.196,33.538,36.187,33.539,36.178,33.54"/>
		</defs>
		<clipPath id="SVGID_34_">
			<use xlink:href="#SVGID_33_"  overflow="visible"/>
		</clipPath>
		<path clip-path="url(#SVGID_34_)" fill="#DD4F7A" d="M36.179,33.54c0.067-0.009,0.135,0.019,0.161,0.07
			c0.026,0.051,0.004,0.107-0.053,0.139c-1.239,0.68-2.71,1.231-5.847,1.4c0,0-3.524,0.127-4.876-0.07
			c-0.073-0.009-0.129-0.058-0.137-0.119c-0.007-0.06,0.034-0.116,0.103-0.139c0.867-0.282,2.552-0.835,3.244-1.062
			c0.198-0.065,0.417-0.069,0.62-0.011l0.773,0.223c0.176,0.053,0.369,0.057,0.55,0.009l0.914-0.229
			c0.279-0.077,0.487-0.136,0.78-0.102C33.812,33.839,35.326,33.67,36.179,33.54"/>
		<path clip-path="url(#SVGID_34_)" fill="#C4456D" d="M27.89,35.441c0,0,2.861-1.576,5.862-1.809
			c3.003-0.234,4.333-0.313,4.391-0.255c0.055,0.06-0.341,1.324-0.399,1.381c-0.029,0.032-2.793,0.566-5.408,0.739
			C30.063,35.647,27.89,35.441,27.89,35.441"/>
	</g>
	<g>
		<defs>
			<path id="SVGID_35_" d="M29.747,1.597c-3.93,0-7.695,1.579-10.448,4.381c-2.753,2.804-4.264,6.596-4.195,10.525l0.239,13.28
				c0.068,3.781,1.909,7.312,4.973,9.532l6.752,4.895c1.895,1.371,4.454,1.375,6.352,0.01l6.83-4.914
				c3.079-2.213,4.933-5.748,5.007-9.539l0.236-12.117c0.082-4.229-1.54-8.312-4.502-11.332C38.029,3.297,33.977,1.597,29.747,1.597
				L29.747,1.597z"/>
		</defs>
		<clipPath id="SVGID_36_">
			<use xlink:href="#SVGID_35_"  overflow="visible"/>
		</clipPath>
		<g opacity="0.2" clip-path="url(#SVGID_36_)">
			<g>
				<defs>
					<rect id="SVGID_37_" x="29.104" y="36.272" width="4.648" height="1.584"/>
				</defs>
				<clipPath id="SVGID_38_">
					<use xlink:href="#SVGID_37_"  overflow="visible"/>
				</clipPath>
				<path clip-path="url(#SVGID_38_)" fill="#E58871" d="M29.104,36.743c0,0,1.086,1.315,3.033,1.087
					c1.947-0.229,1.59-1.559,1.59-1.559l-2.849,0.555L29.104,36.743z"/>
			</g>
		</g>
	</g>
	<g>
		<defs>
			<path id="SVGID_39_" d="M29.991,0.351c-9.119-1.625-17.126,5.555-16.96,20.232c0.554-0.933,1.052-1.243,2.122-1.607
				c1.326,2.019,4.681,0.216,7.503-2.443c-0.999,1.401-2.732,3.232-3.075,3.453c0.357,0.151,1.149,0.223,1.149,0.223
				c3.879-3.219,6.51-5.858,9.35-10.436c3.817,5.381,5.081,7.427,14.225,11.13c-0.434-0.643-0.722-0.918-1.037-1.422
				c0.79,0.793,2.035,1.77,2.665,2.014c0,0-0.589-1.52-0.433-2.501c0.806,0.156,1.376,0.678,1.376,0.678
				C47.603,5.094,38.575,0.06,32.408,0.06C31.532,0.059,30.716,0.161,29.991,0.351"/>
		</defs>
		<clipPath id="SVGID_40_">
			<use xlink:href="#SVGID_39_"  overflow="visible"/>
		</clipPath>
		<path clip-path="url(#SVGID_40_)" fill="#725D4D" d="M46.875,19.671C47.706,3.024,35.815-1.177,29.991,0.351
			c-9.118-1.625-17.126,5.556-16.96,20.232c0.554-0.933,1.053-1.243,2.122-1.607c1.327,2.018,4.681,0.216,7.504-2.443
			c-0.999,1.401-2.733,3.232-3.076,3.453c0.357,0.151,1.149,0.223,1.149,0.223c3.879-3.219,6.511-5.858,9.351-10.435
			c3.816,5.38,5.079,7.426,14.224,11.129c-0.435-0.643-0.723-0.918-1.038-1.422c0.79,0.793,2.036,1.77,2.666,2.014
			c0,0-0.589-1.52-0.433-2.501C46.305,19.149,46.875,19.671,46.875,19.671"/>
		<path clip-path="url(#SVGID_40_)" fill="#655243" d="M12.709,12.708c8.681,1.56,19.698-9.792,31.273-11.127l6.342,20.587
			l-0.109,4.342l-41.4,1.669L12.709,12.708z"/>
	</g>
	<g>
		<defs>
			<path id="SVGID_41_" d="M70.793,34.197c0,16.068,13.024,29.091,29.09,29.091c16.068,0,29.092-13.022,29.092-29.091
				c0-16.064-13.023-29.09-29.092-29.09C83.817,5.107,70.793,18.133,70.793,34.197"/>
		</defs>
		<clipPath id="SVGID_42_">
			<use xlink:href="#SVGID_41_"  overflow="visible"/>
		</clipPath>
		<path clip-path="url(#SVGID_42_)" fill="#FFFFFF" d="M128.975,34.197c0,16.068-13.023,29.091-29.091,29.091
			S70.793,50.266,70.793,34.197c0-16.064,13.024-29.09,29.091-29.09S128.975,18.133,128.975,34.197"/>
		<path clip-path="url(#SVGID_42_)" fill="#F04C23" d="M123.584,80.425h-47.4V59.293c0-6.079,5.836-11.01,13.035-11.01h21.332
			c7.2,0,13.033,4.931,13.033,11.01V80.425z"/>
	</g>
	<g>
		<circle fill="none" stroke="#AED136" stroke-width="2" stroke-miterlimit="10" cx="99.884" cy="34.197" r="29.091"/>
	</g>
	<g>
		<defs>
			<path id="SVGID_43_" d="M90.808,30.886V50.01c0,5.062,4.103,9.166,9.164,9.166c5.001,0,9.055-4.055,9.055-9.055V30.886H90.808z"
				/>
		</defs>
		<clipPath id="SVGID_44_">
			<use xlink:href="#SVGID_43_"  overflow="visible"/>
		</clipPath>
		<path clip-path="url(#SVGID_44_)" fill="#F3B09D" d="M109.026,50.121c0,5-4.054,9.054-9.054,9.054
			c-5.062,0-9.165-4.103-9.165-9.164V30.887h18.218V50.121z"/>
		<g opacity="0.4" clip-path="url(#SVGID_44_)">
			<g>
				<defs>
					<rect id="SVGID_45_" x="90.23" y="44.233" width="20.403" height="13.604"/>
				</defs>
				<clipPath id="SVGID_46_">
					<use xlink:href="#SVGID_45_"  overflow="visible"/>
				</clipPath>
				<path clip-path="url(#SVGID_46_)" fill="#E58871" d="M90.673,46.73c8.192,2.028,12.604,4.998,14.926,11.106l5.034-3.003
					L110.5,44.322l-20.27-0.089L90.673,46.73z"/>
			</g>
		</g>
	</g>
	<g>
		<path fill="#F3B09D" d="M90.355,22.791c0,2.23-1.81,4.038-4.041,4.038c-2.232,0-4.042-1.808-4.042-4.038
			c0-2.234,1.81-4.042,4.042-4.042C88.545,18.749,90.355,20.556,90.355,22.791"/>
		<g opacity="0.2">
			<g>
				<defs>
					<rect id="SVGID_47_" x="83.667" y="20.144" width="5.294" height="5.294"/>
				</defs>
				<clipPath id="SVGID_48_">
					<use xlink:href="#SVGID_47_"  overflow="visible"/>
				</clipPath>
				<path clip-path="url(#SVGID_48_)" fill="#E58871" d="M88.96,22.791c0,1.463-1.184,2.647-2.646,2.647s-2.647-1.184-2.647-2.647
					c0-1.461,1.185-2.647,2.647-2.647S88.96,21.33,88.96,22.791"/>
			</g>
		</g>
		<path fill="#F3B09D" d="M117.496,22.791c0,2.23-1.806,4.038-4.042,4.038c-2.228,0-4.039-1.808-4.039-4.038
			c0-2.234,1.811-4.042,4.039-4.042C115.69,18.749,117.496,20.556,117.496,22.791"/>
		<g opacity="0.2">
			<g>
				<defs>
					<rect id="SVGID_49_" x="110.807" y="20.144" width="5.296" height="5.294"/>
				</defs>
				<clipPath id="SVGID_50_">
					<use xlink:href="#SVGID_49_"  overflow="visible"/>
				</clipPath>
				<path clip-path="url(#SVGID_50_)" fill="#E58871" d="M116.103,22.791c0,1.463-1.186,2.647-2.648,2.647
					c-1.463,0-2.647-1.184-2.647-2.647c0-1.461,1.185-2.647,2.647-2.647C114.917,20.143,116.103,21.33,116.103,22.791"/>
			</g>
		</g>
	</g>
	<g>
		<defs>
			<path id="SVGID_51_" d="M96.932,1.221c-6.129,0-11.098,4.967-11.098,11.097v21.097c0,5.58,3.761,10.462,9.158,11.885l2.23,0.588
				c1.77,0.467,3.632,0.466,5.402-0.002l2.725-0.721c5.101-1.349,8.652-5.974,8.652-11.25V12.318c0-6.13-4.966-11.097-11.095-11.097
				H96.932z"/>
		</defs>
		<clipPath id="SVGID_52_">
			<use xlink:href="#SVGID_51_"  overflow="visible"/>
		</clipPath>
		<path clip-path="url(#SVGID_52_)" fill="#F3B09D" d="M114.001,42.818c0,1.716-1.39,3.106-3.106,7.016H89.021
			c-1.76-3.909-3.187-5.335-3.187-7.096V12.313c0-6.128,4.968-11.096,11.097-11.096h5.973c6.129,0,11.098,4.968,11.098,11.096
			V42.818z"/>
		<g opacity="0.5" clip-path="url(#SVGID_52_)">
			<g>
				<defs>
					<rect id="SVGID_53_" x="99.917" y="16.782" width="3.865" height="8.05"/>
				</defs>
				<clipPath id="SVGID_54_">
					<use xlink:href="#SVGID_53_"  overflow="visible"/>
				</clipPath>
				<polygon clip-path="url(#SVGID_54_)" fill="#E58871" points="99.917,24.832 99.917,16.782 103.781,24.519 				"/>
			</g>
		</g>
		<path clip-path="url(#SVGID_52_)" fill="#ED877B" d="M102.616,26.093c-1.49,1.489-3.906,1.488-5.394-0.001l-1.069-1.07
			c-0.133-0.132-0.172-0.331-0.101-0.504c0.071-0.173,0.241-0.285,0.427-0.285l6.88,0.001c0.187,0,0.355,0.113,0.427,0.287
			c0.071,0.172,0.032,0.371-0.101,0.503L102.616,26.093z"/>
		<g opacity="0.5" clip-path="url(#SVGID_52_)">
			<g>
				<defs>
					<rect id="SVGID_55_" x="85.95" y="15.243" width="27.929" height="4.913"/>
				</defs>
				<clipPath id="SVGID_56_">
					<use xlink:href="#SVGID_55_"  overflow="visible"/>
				</clipPath>
				<path clip-path="url(#SVGID_56_)" fill="#E58871" d="M113.879,20.156c0-2.714-2.199-4.913-4.913-4.913H90.863
					c-2.713,0-4.914,2.199-4.914,4.913H113.879z"/>
			</g>
		</g>
		<g opacity="0.2" clip-path="url(#SVGID_52_)">
			<g>
				<defs>
					<rect id="SVGID_57_" x="90.748" y="6.069" width="18.338" height="9.17"/>
				</defs>
				<clipPath id="SVGID_58_">
					<use xlink:href="#SVGID_57_"  overflow="visible"/>
				</clipPath>
				<path clip-path="url(#SVGID_58_)" fill="#E58871" d="M90.748,15.239c0-5.068,4.105-9.17,9.169-9.17s9.169,4.102,9.169,9.17"/>
			</g>
		</g>
		<g opacity="0.5" clip-path="url(#SVGID_52_)">
			<g>
				<defs>
					<rect id="SVGID_59_" x="98.678" y="22.984" width="2.478" height="1.239"/>
				</defs>
				<clipPath id="SVGID_60_">
					<use xlink:href="#SVGID_59_"  overflow="visible"/>
				</clipPath>
				<path clip-path="url(#SVGID_60_)" fill="#E58871" d="M98.678,24.224c0-0.685,0.554-1.239,1.239-1.239
					c0.684,0,1.239,0.554,1.239,1.239H98.678z"/>
			</g>
		</g>
		<g opacity="0.2" clip-path="url(#SVGID_52_)">
			<g>
				<defs>
					<rect id="SVGID_61_" x="82.493" y="22.984" width="35.003" height="28.11"/>
				</defs>
				<clipPath id="SVGID_62_">
					<use xlink:href="#SVGID_61_"  overflow="visible"/>
				</clipPath>
				<path clip-path="url(#SVGID_62_)" fill="#E58871" d="M117.496,46.562l-1.731-23.577l-8.85,1.822
					c-0.235,0.05-0.439,0.191-0.565,0.395c-0.126,0.205-0.163,0.452-0.102,0.683l1.811,6.843c0.198,0.747,0.286,1.519,0.26,2.292
					l-0.027,0.805c0,1.13-0.307,2.219-0.997,3.116c-1.676,2.175-4.307,3.58-7.267,3.58c-2.555,0-5.624-1.521-7.424-3.857
					c-0.628-0.815-0.97-1.814-0.97-2.844v-0.001c0-1.304,0.169-2.602,0.502-3.862l1.604-6.071c0.061-0.231,0.025-0.479-0.101-0.683
					c-0.126-0.204-0.331-0.345-0.566-0.395l-8.85-1.822l-1.728,23.577h7.169l-0.184,4.533c0,0,23.132-0.558,23.075-0.723
					c-0.005-0.015,0.063-3.643,0.018-3.811H117.496z"/>
			</g>
		</g>
	</g>
	<g>
		<path fill="#7A6353" d="M88.442,15.384c-0.108,0-0.215-0.051-0.278-0.147c-0.105-0.156-0.062-0.362,0.092-0.469
			c1.68-1.117,4.746-0.997,7.021-0.699c0.181,0.022,0.311,0.19,0.288,0.376c-0.025,0.181-0.193,0.311-0.376,0.286
			c-3.097-0.405-5.368-0.2-6.562,0.597C88.568,15.363,88.504,15.384,88.442,15.384"/>
		<path fill="#7A6353" d="M110.978,15.565c-0.044,0-0.082-0.011-0.124-0.025c-1.485-0.588-3.539-0.652-6.647-0.207
			c-0.186,0.023-0.351-0.102-0.378-0.286c-0.028-0.186,0.099-0.353,0.281-0.377c3.233-0.465,5.39-0.389,6.991,0.247
			c0.17,0.07,0.255,0.263,0.187,0.433C111.236,15.484,111.111,15.565,110.978,15.565"/>
		<path fill="#F3B09D" d="M94.142,20.956c0,0.847-0.984,1.537-2.198,1.537c-1.214,0-2.199-0.689-2.199-1.537
			c0-0.852,0.985-1.538,2.199-1.538C93.157,19.418,94.142,20.104,94.142,20.956"/>
		<path fill="#F3B09D" d="M109.969,20.956c0,0.847-0.981,1.537-2.198,1.537c-1.214,0-2.199-0.689-2.199-1.537
			c0-0.852,0.985-1.538,2.199-1.538C108.987,19.418,109.969,20.104,109.969,20.956"/>
		<path fill="#D46A6B" d="M94.913,31.66c0,1.153,1.996,2.713,5.161,2.713c3.283,0,5.167-1.561,5.167-2.713H94.913z"/>
		<path fill="#4C392C" d="M99.884,28.873l0.397,3.653h7.317c0.151,0,0.288-0.081,0.362-0.211c0.073-0.13,0.07-0.29-0.007-0.418
			c-1.65-2.73-4.648-4.554-8.069-4.554c-3.423,0-6.42,1.823-8.071,4.554c-0.078,0.128-0.08,0.288-0.006,0.418
			s0.21,0.211,0.361,0.211h7.319L99.884,28.873z"/>
		<path fill="#4C392C" d="M106.669,45.393c5.196-1.462,8.688-6.29,8.466-11.682c-0.362-8.757-0.451-20.72-0.452-21.627
			c0.086-6.771-5.449-11.671-10.749-12.009c-0.577-0.043-0.374-0.033-1.012-0.051c-5.844-0.045-7.482-0.078-9.196,0.471
			c-2.131,0.605-4.017,1.834-5.42,3.37c-2.175,2.317-3.227,5.738-3.147,7.951c0.009,0.931-0.135,13.791-0.542,22.723
			c-0.217,4.796,2.851,9.135,7.449,10.518c2.831,0.852,5.444,1.411,8.053,1.396C102.267,46.438,104.411,46.026,106.669,45.393
			 M104.368,36.275c-1.214,0.331-2.516-0.042-3.376-0.964c-0.551-0.592-0.918-0.565-1.19-0.565c-0.38,0-0.73,0.248-1.028,0.565
			c-0.859,0.923-2.159,1.295-3.376,0.964c-4.128-1.12-7.275-4.25-9.012-11.064c-0.842-3.296,0.129-1.092,0.537-12.879v0.002
			c0.303-4.776,3.155-8.329,7.443-9.579c0.259-0.08,0.541,0.016,0.699,0.234c2.373,3.326,7.307,3.326,9.68-0.002
			c0.275-0.388,0.67-0.25,0.948-0.168c4.052,1.273,7.037,4.759,7.222,9.891c0.413,11.941,1.353,9.016,0.74,11.613
			C111.91,31.753,108.672,35.107,104.368,36.275"/>
		<path fill="#5A5B5D" d="M92.299,19.151c-0.695,0-1.353-0.106-2.19-0.268c-0.09-0.02-0.148-0.109-0.13-0.195
			c0.016-0.092,0.103-0.149,0.195-0.135c1.52,0.295,2.422,0.393,4.111,0c0.088-0.02,0.181,0.038,0.201,0.13
			c0.02,0.086-0.035,0.178-0.125,0.198C93.546,19.069,92.907,19.151,92.299,19.151"/>
		<path fill="#5A5B5D" d="M107.532,19.151c-0.606,0-1.243-0.082-2.061-0.27c-0.09-0.02-0.146-0.112-0.125-0.198
			c0.022-0.092,0.109-0.15,0.202-0.13c1.691,0.393,2.589,0.295,4.113,0c0.087-0.017,0.176,0.043,0.191,0.135
			c0.021,0.086-0.038,0.175-0.131,0.195C108.885,19.044,108.23,19.151,107.532,19.151"/>
	</g>
</g>
</svg>
