<?xml version="1.0" encoding="utf-8"?>
<!-- Generator: Adobe Illustrator 15.1.0, SVG Export Plug-In . SVG Version: 6.00 Build 0)  -->
<!DOCTYPE svg PUBLIC "-//W3C//DTD SVG 1.1//EN" "http://www.w3.org/Graphics/SVG/1.1/DTD/svg11.dtd">
<svg version="1.1" id="Layer_1" xmlns="http://www.w3.org/2000/svg" xmlns:xlink="http://www.w3.org/1999/xlink" x="0px" y="0px"
	 width="272px" height="92.248px" viewBox="0 0 272 92.248" enable-background="new 0 0 272 92.248" xml:space="preserve">
<g>
	<g>
		<g>
			<path fill="#4D4D4F" d="M34.977,82.101h0.868l3.743,8.271H38.59l-0.962-2.17h-4.47l-0.974,2.17h-0.95L34.977,82.101z
				 M37.265,87.368l-1.866-4.188l-1.877,4.188H37.265z"/>
			<path fill="#4D4D4F" d="M40.675,87.368v-0.023c0-1.713,1.338-3.168,3.109-3.168c1.15,0,1.866,0.481,2.429,1.08l-0.599,0.633
				c-0.481-0.504-1.021-0.915-1.842-0.915c-1.232,0-2.17,1.045-2.17,2.347v0.023c0,1.313,0.962,2.358,2.229,2.358
				c0.774,0,1.372-0.388,1.854-0.904l0.575,0.54c-0.61,0.68-1.337,1.174-2.476,1.174C42.013,90.513,40.675,89.069,40.675,87.368z"/>
			<path fill="#4D4D4F" d="M52.781,89.151c-0.493,0.728-1.208,1.35-2.323,1.35c-1.455,0-2.898-1.15-2.898-3.145v-0.023
				c0-1.982,1.443-3.156,2.898-3.156c1.126,0,1.854,0.61,2.323,1.291v-1.162h0.903v7.942h-0.903V89.151z M52.816,87.345v-0.023
				c0-1.396-1.068-2.335-2.194-2.335c-1.173,0-2.135,0.868-2.135,2.335v0.023c0,1.431,0.985,2.347,2.135,2.347
				C51.748,89.691,52.816,88.74,52.816,87.345z"/>
			<path fill="#4D4D4F" d="M55.899,88.072v-3.767h0.903v3.543c0,1.127,0.61,1.831,1.678,1.831c1.032,0,1.818-0.763,1.818-1.901
				v-3.473h0.892v6.065h-0.892v-1.056c-0.411,0.657-1.032,1.186-2.077,1.186C56.755,90.501,55.899,89.515,55.899,88.072z"/>
			<path fill="#4D4D4F" d="M63.533,81.983h1.033v0.997h-1.033V81.983z M63.592,84.306h0.904v6.065h-0.904V84.306z"/>
			<path fill="#4D4D4F" d="M66.383,89.597l0.457-0.645c0.658,0.492,1.385,0.774,2.101,0.774c0.727,0,1.255-0.376,1.255-0.963V88.74
				c0-0.609-0.716-0.845-1.513-1.066c-0.95-0.271-2.006-0.6-2.006-1.713v-0.024c0-1.044,0.868-1.736,2.064-1.736
				c0.739,0,1.56,0.259,2.182,0.669l-0.411,0.681c-0.563-0.363-1.208-0.587-1.795-0.587c-0.716,0-1.173,0.376-1.173,0.88v0.023
				c0,0.575,0.75,0.798,1.56,1.045c0.939,0.281,1.948,0.645,1.948,1.735v0.023c0,1.15-0.95,1.819-2.159,1.819
				C68.025,90.489,67.063,90.148,66.383,89.597z"/>
			<path fill="#4D4D4F" d="M73.045,81.983h1.032v0.997h-1.032V81.983z M73.104,84.306h0.903v6.065h-0.903V84.306z"/>
			<path fill="#4D4D4F" d="M76.715,88.764v-3.66h-0.844v-0.798h0.844v-1.829h0.903v1.829h1.924v0.798h-1.924v3.543
				c0,0.739,0.411,1.01,1.021,1.01c0.306,0,0.563-0.06,0.88-0.212v0.774c-0.316,0.164-0.657,0.259-1.091,0.259
				C77.454,90.478,76.715,89.996,76.715,88.764z"/>
			<path fill="#4D4D4F" d="M81.453,81.983h1.033v0.997h-1.033V81.983z M81.512,84.306h0.904v6.065h-0.904V84.306z"/>
			<path fill="#4D4D4F" d="M84.432,87.368v-0.023c0-1.713,1.337-3.168,3.167-3.168c1.818,0,3.155,1.432,3.155,3.145v0.023
				c0,1.713-1.349,3.168-3.179,3.168C85.758,90.513,84.432,89.081,84.432,87.368z M89.829,87.368v-0.023
				c0-1.302-0.974-2.37-2.252-2.37c-1.314,0-2.217,1.068-2.217,2.347v0.023c0,1.302,0.962,2.358,2.241,2.358
				C88.913,89.703,89.829,88.646,89.829,87.368z"/>
			<path fill="#4D4D4F" d="M92.677,84.306h0.903v1.057c0.399-0.657,1.032-1.186,2.076-1.186c1.467,0,2.323,0.986,2.323,2.429v3.766
				h-0.903v-3.542c0-1.127-0.61-1.831-1.678-1.831c-1.044,0-1.818,0.763-1.818,1.901v3.472h-0.903V84.306z"/>
		</g>
	</g>
	<polyline fill="none" stroke="#4D4D4F" stroke-width="0.75" stroke-miterlimit="10" points="73.856,67.312 64.986,76.183 
		56.12,67.312 	"/>
	<g>
		<g>
			<path fill="#4D4D4F" d="M177.412,82.159h3.532c1.008,0,1.817,0.306,2.335,0.821c0.398,0.398,0.633,0.975,0.633,1.619v0.023
				c0,1.361-0.938,2.159-2.229,2.393l2.521,3.355h-1.138l-2.382-3.19h-0.023h-2.322v3.19h-0.928V82.159z M180.862,86.347
				c1.231,0,2.111-0.633,2.111-1.688v-0.023c0-1.009-0.774-1.619-2.1-1.619h-2.534v3.331H180.862z"/>
			<path fill="#4D4D4F" d="M188.59,89.727c0.833,0,1.419-0.341,1.912-0.856l0.563,0.504c-0.61,0.681-1.349,1.139-2.499,1.139
				c-1.666,0-3.027-1.278-3.027-3.168c0-1.76,1.232-3.168,2.909-3.168c1.796,0,2.828,1.432,2.828,3.215c0,0.082,0,0.176-0.012,0.317
				h-4.81C186.584,88.987,187.523,89.727,188.59,89.727z M190.362,86.981c-0.105-1.104-0.739-2.042-1.937-2.042
				c-1.043,0-1.841,0.868-1.97,2.042H190.362z"/>
			<path fill="#4D4D4F" d="M193.457,88.764v-3.66h-0.845v-0.798h0.845v-1.829h0.903v1.829h1.924v0.798h-1.924v3.543
				c0,0.739,0.41,1.01,1.021,1.01c0.305,0,0.563-0.06,0.88-0.212v0.774c-0.316,0.164-0.657,0.259-1.091,0.259
				C194.195,90.478,193.457,89.996,193.457,88.764z"/>
			<path fill="#4D4D4F" d="M200.669,89.727c0.833,0,1.42-0.341,1.913-0.856l0.562,0.504c-0.609,0.681-1.349,1.139-2.499,1.139
				c-1.666,0-3.026-1.278-3.026-3.168c0-1.76,1.232-3.168,2.909-3.168c1.795,0,2.828,1.432,2.828,3.215c0,0.082,0,0.176-0.012,0.317
				h-4.811C198.664,88.987,199.603,89.727,200.669,89.727z M202.442,86.981c-0.106-1.104-0.739-2.042-1.937-2.042
				c-1.044,0-1.842,0.868-1.971,2.042H202.442z"/>
			<path fill="#4D4D4F" d="M205.219,84.306h0.903v1.057c0.399-0.657,1.032-1.186,2.077-1.186c1.466,0,2.322,0.986,2.322,2.429v3.766
				h-0.903v-3.542c0-1.127-0.609-1.831-1.678-1.831c-1.044,0-1.818,0.763-1.818,1.901v3.472h-0.903V84.306z"/>
			<path fill="#4D4D4F" d="M213.054,88.764v-3.66h-0.845v-0.798h0.845v-1.829h0.903v1.829h1.924v0.798h-1.924v3.543
				c0,0.739,0.41,1.01,1.021,1.01c0.305,0,0.563-0.06,0.88-0.212v0.774c-0.316,0.164-0.657,0.259-1.091,0.259
				C213.792,90.478,213.054,89.996,213.054,88.764z"/>
			<path fill="#4D4D4F" d="M217.792,81.983h1.032v0.997h-1.032V81.983z M217.85,84.306h0.903v6.065h-0.903V84.306z"/>
			<path fill="#4D4D4F" d="M220.77,87.368v-0.023c0-1.713,1.337-3.168,3.167-3.168c1.819,0,3.156,1.432,3.156,3.145v0.023
				c0,1.713-1.349,3.168-3.18,3.168C222.095,90.513,220.77,89.081,220.77,87.368z M226.167,87.368v-0.023
				c0-1.302-0.975-2.37-2.253-2.37c-1.313,0-2.217,1.068-2.217,2.347v0.023c0,1.302,0.962,2.358,2.24,2.358
				C225.25,89.703,226.167,88.646,226.167,87.368z"/>
			<path fill="#4D4D4F" d="M229.016,84.306h0.902v1.057c0.399-0.657,1.032-1.186,2.077-1.186c1.467,0,2.323,0.986,2.323,2.429v3.766
				h-0.904v-3.542c0-1.127-0.609-1.831-1.678-1.831c-1.044,0-1.818,0.763-1.818,1.901v3.472h-0.902V84.306z"/>
		</g>
	</g>
	<polyline fill="none" stroke="#4D4D4F" stroke-width="0.75" stroke-miterlimit="10" points="214.769,67.312 205.9,76.183 
		197.031,67.312 	"/>
	<g>
		<defs>
			<path id="SVGID_1_" d="M1.045,35.55c0,16.043,13.004,29.046,29.045,29.046c16.041,0,29.046-13.003,29.046-29.046
				c0-16.039-13.005-29.043-29.046-29.043C14.049,6.507,1.045,19.511,1.045,35.55"/>
		</defs>
		<clipPath id="SVGID_2_">
			<use xlink:href="#SVGID_1_"  overflow="visible"/>
		</clipPath>
		<path clip-path="url(#SVGID_2_)" fill="#FFFFFF" d="M59.136,35.55c0,16.043-13.005,29.047-29.046,29.047
			c-16.041,0-29.045-13.004-29.045-29.047c0-16.039,13.004-29.043,29.045-29.043C46.131,6.506,59.136,19.511,59.136,35.55"/>
		<polygon clip-path="url(#SVGID_2_)" fill="#655243" points="46.82,21.3 48.099,58.192 11.821,58.192 12.822,22.802 		"/>
		<path clip-path="url(#SVGID_2_)" fill="#4B7CA2" d="M50.081,81.707H10.096v-21.1c0-6.072,4.923-10.995,10.996-10.995h17.993
			c6.073,0,10.996,4.923,10.996,10.995V81.707z"/>
	</g>
	<g>
		<path fill="none" stroke="#F37E20" stroke-width="2" stroke-miterlimit="10" d="M59.182,35.551
			c0,16.068-13.023,29.093-29.091,29.093C14.024,64.644,1,51.619,1,35.551C1,19.487,14.024,6.46,30.091,6.46
			C46.159,6.46,59.182,19.487,59.182,35.551z"/>
	</g>
	<g>
		<defs>
			<path id="SVGID_3_" d="M22.743,34.622v15.284c0,4.045,3.279,7.326,7.325,7.326c3.998,0,7.237-3.241,7.237-7.238V34.622H22.743z"
				/>
		</defs>
		<clipPath id="SVGID_4_">
			<use xlink:href="#SVGID_3_"  overflow="visible"/>
		</clipPath>
		<path clip-path="url(#SVGID_4_)" fill="#F3B09D" d="M37.305,49.994c0,3.997-3.24,7.237-7.238,7.237
			c-4.044,0-7.324-3.279-7.324-7.325V34.622h14.562V49.994z"/>
		<g opacity="0.4" clip-path="url(#SVGID_4_)">
			<g>
				<defs>
					<rect id="SVGID_5_" x="20.353" y="42.126" width="20.372" height="13.581"/>
				</defs>
				<clipPath id="SVGID_6_">
					<use xlink:href="#SVGID_5_"  overflow="visible"/>
				</clipPath>
				<path clip-path="url(#SVGID_6_)" fill="#E58871" d="M20.796,44.617c8.176,2.025,12.582,4.991,14.899,11.089l5.029-2.999
					L40.59,42.214l-20.236-0.087L20.796,44.617z"/>
			</g>
		</g>
	</g>
	<g>
		<path fill="#F3B09D" d="M47.934,23.498c0,1.735-1.326,3.146-2.961,3.146c-1.636,0-2.962-1.411-2.962-3.146
			c0-1.735,1.326-3.142,2.962-3.142C46.607,20.355,47.934,21.763,47.934,23.498"/>
		<path fill="#F3B09D" d="M18.609,23.498c0,1.735-1.325,3.146-2.962,3.146c-1.636,0-2.96-1.411-2.96-3.146
			c0-1.735,1.325-3.142,2.96-3.142C17.285,20.355,18.609,21.763,18.609,23.498"/>
		<path fill="#558DB8" d="M14.881,25.696c0,0.215-0.175,0.39-0.39,0.39c-0.215,0-0.388-0.175-0.388-0.39
			c0-0.216,0.172-0.39,0.388-0.39C14.706,25.306,14.881,25.48,14.881,25.696"/>
		<path fill="#558DB8" d="M46.487,25.696c0,0.215-0.175,0.39-0.391,0.39c-0.214,0-0.388-0.175-0.388-0.39
			c0-0.216,0.173-0.39,0.388-0.39C46.312,25.306,46.487,25.48,46.487,25.696"/>
	</g>
	<g>
		<defs>
			<path id="SVGID_7_" d="M29.747,3.01c-3.93,0-7.695,1.579-10.448,4.381c-2.753,2.804-4.264,6.596-4.195,10.525l0.239,13.28
				c0.068,3.781,1.909,7.312,4.973,9.532l6.752,4.894c1.895,1.371,4.454,1.375,6.352,0.01l6.83-4.913
				c3.079-2.213,4.933-5.748,5.007-9.539l0.236-12.117c0.082-4.229-1.54-8.312-4.502-11.332C38.029,4.71,33.977,3.01,29.747,3.01
				L29.747,3.01z"/>
		</defs>
		<clipPath id="SVGID_8_">
			<use xlink:href="#SVGID_7_"  overflow="visible"/>
		</clipPath>
		<path clip-path="url(#SVGID_8_)" fill="#F3B09D" d="M45.257,31.181c-0.075,3.791-1.929,7.325-5.007,9.539l-6.83,4.912
			c-1.899,1.365-4.458,1.361-6.352-0.011l-6.752-4.894c-3.063-2.219-4.905-5.75-4.973-9.532l-0.238-13.28
			c-0.07-3.929,1.441-7.722,4.194-10.524c2.754-2.803,6.519-4.382,10.448-4.382h0.002c4.229,0,8.281,1.701,11.243,4.721
			c2.961,3.02,4.583,7.103,4.5,11.332L45.257,31.181z"/>
		<g opacity="0.2" clip-path="url(#SVGID_8_)">
			<g>
				<defs>
					<rect id="SVGID_9_" x="21.145" y="11.702" width="18.308" height="9.154"/>
				</defs>
				<clipPath id="SVGID_10_">
					<use xlink:href="#SVGID_9_"  overflow="visible"/>
				</clipPath>
				<path clip-path="url(#SVGID_10_)" fill="#E58871" d="M21.145,20.855c0-5.055,4.098-9.154,9.154-9.154
					c5.053,0,9.154,4.099,9.154,9.154"/>
			</g>
		</g>
		<path clip-path="url(#SVGID_8_)" fill="#7A6353" d="M42.191,19.825c0,0-0.021-0.017-0.065-0.042
			c-0.042-0.024-0.107-0.068-0.189-0.11c-0.041-0.02-0.086-0.042-0.136-0.067c-0.047-0.023-0.102-0.048-0.163-0.068
			c-0.059-0.023-0.125-0.048-0.191-0.072c-0.069-0.025-0.146-0.043-0.22-0.067c-0.076-0.023-0.156-0.043-0.241-0.059
			c-0.085-0.015-0.17-0.042-0.259-0.052c-0.093-0.016-0.184-0.029-0.279-0.043c-0.097-0.014-0.194-0.024-0.292-0.034
			c-0.1-0.012-0.201-0.02-0.305-0.025c-0.102-0.004-0.206-0.016-0.311-0.016c-0.21-0.005-0.424-0.009-0.637-0.004
			c-0.215,0-0.43,0.016-0.64,0.024c-0.211,0.016-0.419,0.03-0.619,0.048c-0.199,0.025-0.393,0.039-0.574,0.066
			c-0.187,0.025-0.357,0.043-0.518,0.068c-0.316,0.05-0.582,0.094-0.767,0.129c-0.184,0.032-0.29,0.051-0.29,0.051l-0.007,0.002
			c-0.184,0.033-0.357-0.085-0.388-0.27c-0.033-0.182,0.089-0.357,0.268-0.388c0.008,0,0.018-0.001,0.026-0.004
			c0,0,0.109-0.011,0.301-0.033c0.19-0.021,0.464-0.046,0.794-0.069c0.166-0.015,0.342-0.021,0.533-0.034
			c0.184-0.012,0.387-0.013,0.592-0.022c0.207-0.004,0.422-0.004,0.637-0.002c0.217,0.008,0.436,0.008,0.657,0.024
			c0.219,0.009,0.442,0.032,0.656,0.054c0.108,0.007,0.217,0.027,0.321,0.04c0.106,0.013,0.209,0.03,0.312,0.05
			c0.101,0.019,0.203,0.035,0.3,0.057c0.097,0.022,0.191,0.045,0.285,0.066c0.093,0.02,0.18,0.051,0.266,0.074
			c0.088,0.026,0.172,0.05,0.248,0.082c0.08,0.031,0.154,0.057,0.224,0.085c0.07,0.032,0.135,0.062,0.196,0.089
			c0.064,0.027,0.121,0.06,0.172,0.089c0.052,0.032,0.098,0.058,0.141,0.083c0.083,0.051,0.142,0.1,0.184,0.127
			c0.04,0.028,0.062,0.046,0.062,0.046c0.034,0.024,0.042,0.071,0.017,0.105C42.27,19.837,42.224,19.846,42.191,19.825"/>
		<path clip-path="url(#SVGID_8_)" fill="#7A6353" d="M18.32,19.699c0,0,0.021-0.018,0.063-0.046
			c0.042-0.027,0.099-0.076,0.183-0.127c0.042-0.025,0.09-0.051,0.141-0.083c0.053-0.029,0.109-0.062,0.171-0.089
			c0.063-0.027,0.13-0.058,0.198-0.089c0.068-0.028,0.144-0.054,0.223-0.085c0.078-0.032,0.162-0.056,0.248-0.082
			c0.086-0.023,0.173-0.055,0.267-0.074c0.093-0.021,0.188-0.044,0.285-0.066c0.097-0.022,0.198-0.038,0.301-0.057
			c0.102-0.02,0.206-0.037,0.312-0.05c0.105-0.013,0.214-0.033,0.32-0.04c0.216-0.022,0.437-0.045,0.656-0.054
			c0.222-0.016,0.44-0.016,0.659-0.024c0.215-0.002,0.429-0.002,0.635,0.002c0.208,0.009,0.406,0.01,0.595,0.022
			c0.189,0.013,0.368,0.019,0.531,0.034c0.33,0.023,0.604,0.048,0.794,0.069c0.191,0.022,0.3,0.033,0.3,0.033
			c0.186,0.022,0.319,0.186,0.298,0.369c-0.017,0.182-0.184,0.314-0.366,0.297c-0.008,0-0.017-0.004-0.025-0.004L25.1,19.551
			c0,0-0.104-0.019-0.289-0.051c-0.185-0.035-0.451-0.079-0.768-0.129c-0.159-0.025-0.333-0.043-0.516-0.069
			c-0.181-0.027-0.376-0.042-0.576-0.065c-0.198-0.018-0.407-0.032-0.619-0.048c-0.208-0.008-0.424-0.024-0.637-0.024
			c-0.215-0.005-0.429-0.001-0.64,0.004c-0.105,0-0.209,0.012-0.311,0.016c-0.104,0.005-0.207,0.013-0.304,0.025
			c-0.098,0.01-0.199,0.02-0.292,0.034c-0.097,0.014-0.188,0.027-0.279,0.043c-0.09,0.01-0.176,0.037-0.26,0.052
			c-0.084,0.016-0.166,0.036-0.241,0.059c-0.074,0.024-0.151,0.042-0.218,0.067c-0.067,0.024-0.132,0.049-0.192,0.072
			c-0.061,0.02-0.116,0.045-0.164,0.068c-0.05,0.025-0.096,0.047-0.137,0.067c-0.082,0.042-0.144,0.086-0.189,0.11
			c-0.043,0.025-0.065,0.042-0.065,0.042c-0.036,0.021-0.082,0.012-0.105-0.022C18.279,19.765,18.29,19.722,18.32,19.699"/>
		<g opacity="0.5" clip-path="url(#SVGID_8_)">
			<g>
				<defs>
					<rect id="SVGID_11_" x="15.828" y="20.804" width="28.938" height="4.572"/>
				</defs>
				<clipPath id="SVGID_12_">
					<use xlink:href="#SVGID_11_"  overflow="visible"/>
				</clipPath>
				<path clip-path="url(#SVGID_12_)" fill="#E58871" d="M44.766,25.376c0-2.526-2.277-4.573-5.091-4.573H20.921
					c-2.813,0-5.093,2.047-5.093,4.573H44.766z"/>
			</g>
		</g>
		<path clip-path="url(#SVGID_8_)" fill="#F3B09D" d="M22.311,26.174c0,0.846-0.982,1.536-2.195,1.536
			c-1.214,0-2.195-0.69-2.195-1.536c0-0.849,0.981-1.533,2.195-1.533C21.329,24.641,22.311,25.325,22.311,26.174"/>
		<g opacity="0.2" clip-path="url(#SVGID_8_)">
			<g>
				<defs>
					<rect id="SVGID_13_" x="26.537" y="15.428" width="33.388" height="38.912"/>
				</defs>
				<clipPath id="SVGID_14_">
					<use xlink:href="#SVGID_13_"  overflow="visible"/>
				</clipPath>
				<path clip-path="url(#SVGID_14_)" fill="#E58871" d="M59.921,26.929c-0.25-0.322-8.479-11.501-8.479-11.501l-9.595,4.504
					c0.011,1.676-0.088,3.263-0.277,4.764c-0.189-0.038-0.385-0.055-0.589-0.055c-1.213,0-2.193,0.685-2.193,1.534
					c0,0.846,0.98,1.536,2.193,1.536c0.022,0,0.043-0.005,0.065-0.005c-2.738,12.334-11.729,17.98-14.51,19.438l9.073,7.197
					l11.981-4.589C47.59,49.751,60.171,27.249,59.921,26.929"/>
			</g>
		</g>
		<path clip-path="url(#SVGID_8_)" fill="#5A5B5D" d="M37.803,24.943c-1.128,0-2.138-0.674-2.569-1.716
			c-0.039-0.085,0.003-0.185,0.088-0.218c0.085-0.037,0.184,0.004,0.22,0.09c0.382,0.916,1.269,1.509,2.261,1.509
			c0.992,0,1.88-0.593,2.262-1.509l0.042-0.102l0.111-0.001c0.351-0.003,0.609-0.032,0.878-0.165
			c0.081-0.041,0.181-0.009,0.223,0.073c0.041,0.085,0.007,0.183-0.074,0.225c-0.323,0.161-0.627,0.19-0.917,0.199
			C39.873,24.313,38.894,24.943,37.803,24.943"/>
	</g>
	<g>
		<defs>
			<path id="SVGID_15_" d="M41.096,22.832c-0.27,0.133-0.527,0.163-0.878,0.165l-0.11,0.001l-0.042,0.103
				c-0.382,0.914-1.27,1.509-2.263,1.509c-0.992,0-1.879-0.595-2.261-1.509c-0.036-0.087-0.134-0.127-0.219-0.09
				c-0.085,0.033-0.127,0.131-0.089,0.218c0.432,1.041,1.441,1.716,2.57,1.716c1.091,0,2.07-0.631,2.525-1.615
				c0.29-0.009,0.594-0.039,0.916-0.199c0.082-0.042,0.115-0.141,0.075-0.225c-0.03-0.059-0.089-0.092-0.149-0.092
				C41.145,22.814,41.12,22.82,41.096,22.832"/>
		</defs>
		<clipPath id="SVGID_16_">
			<use xlink:href="#SVGID_15_"  overflow="visible"/>
		</clipPath>
		<path clip-path="url(#SVGID_16_)" fill="#5A5B5D" d="M37.803,24.943c-1.128,0-2.138-0.674-2.569-1.716
			c-0.039-0.085,0.003-0.185,0.088-0.218c0.085-0.037,0.184,0.004,0.22,0.09c0.382,0.916,1.269,1.509,2.261,1.509
			c0.992,0,1.88-0.593,2.262-1.509c0.034-0.086,0.133-0.127,0.217-0.09c0.087,0.033,0.126,0.132,0.091,0.218
			C39.941,24.269,38.931,24.943,37.803,24.943"/>
	</g>
	<g>
		<defs>
			<path id="SVGID_17_" d="M29.747,3.01c-3.93,0-7.695,1.579-10.448,4.381c-2.753,2.804-4.264,6.596-4.195,10.525l0.239,13.28
				c0.068,3.781,1.909,7.312,4.973,9.532l6.752,4.894c1.895,1.371,4.454,1.375,6.352,0.01l6.83-4.913
				c3.079-2.213,4.933-5.748,5.007-9.539l0.236-12.117c0.082-4.229-1.54-8.312-4.502-11.332C38.029,4.71,33.977,3.01,29.747,3.01
				L29.747,3.01z"/>
		</defs>
		<clipPath id="SVGID_18_">
			<use xlink:href="#SVGID_17_"  overflow="visible"/>
		</clipPath>
		<path clip-path="url(#SVGID_18_)" fill="#5A5B5D" d="M22.839,24.943c-1.091,0-2.071-0.63-2.527-1.615
			c-0.288-0.008-0.594-0.038-0.915-0.199c-0.082-0.042-0.116-0.14-0.076-0.225c0.042-0.082,0.141-0.114,0.224-0.073
			c0.27,0.132,0.526,0.162,0.878,0.165l0.111,0.001l0.042,0.102c0.381,0.916,1.27,1.509,2.262,1.509s1.881-0.593,2.26-1.509
			c0.038-0.086,0.136-0.126,0.22-0.09c0.086,0.033,0.127,0.132,0.089,0.218C24.976,24.269,23.968,24.943,22.839,24.943"/>
	</g>
	<g>
		<defs>
			<path id="SVGID_19_" d="M19.322,22.906c-0.04,0.083-0.005,0.183,0.077,0.225c0.319,0.16,0.625,0.189,0.914,0.199
				c0.456,0.983,1.436,1.615,2.527,1.615c1.128,0,2.137-0.675,2.569-1.716c0.038-0.086-0.003-0.185-0.091-0.218
				c-0.083-0.036-0.18,0.003-0.218,0.09c-0.378,0.914-1.268,1.509-2.26,1.509c-0.993,0-1.88-0.595-2.263-1.509l-0.042-0.103
				l-0.11-0.001c-0.351-0.002-0.608-0.031-0.878-0.165c-0.024-0.012-0.05-0.018-0.076-0.018
				C19.41,22.814,19.352,22.847,19.322,22.906"/>
		</defs>
		<clipPath id="SVGID_20_">
			<use xlink:href="#SVGID_19_"  overflow="visible"/>
		</clipPath>
		<path clip-path="url(#SVGID_20_)" fill="#5A5B5D" d="M22.839,24.943c-1.13,0-2.138-0.674-2.57-1.716
			c-0.036-0.085,0.005-0.185,0.088-0.218c0.087-0.036,0.183,0.004,0.22,0.09c0.381,0.916,1.27,1.509,2.262,1.509
			s1.881-0.593,2.26-1.509c0.038-0.086,0.136-0.126,0.22-0.09c0.086,0.033,0.127,0.132,0.089,0.218
			C24.976,24.269,23.968,24.943,22.839,24.943"/>
	</g>
	<g>
		<defs>
			<path id="SVGID_21_" d="M29.747,3.01c-3.93,0-7.695,1.579-10.448,4.381c-2.753,2.804-4.264,6.596-4.195,10.525l0.239,13.28
				c0.068,3.781,1.909,7.312,4.973,9.532l6.752,4.894c1.895,1.371,4.454,1.375,6.352,0.01l6.83-4.913
				c3.079-2.213,4.933-5.748,5.007-9.539l0.236-12.117c0.082-4.229-1.54-8.312-4.502-11.332C38.029,4.71,33.977,3.01,29.747,3.01
				L29.747,3.01z"/>
		</defs>
		<clipPath id="SVGID_22_">
			<use xlink:href="#SVGID_21_"  overflow="visible"/>
		</clipPath>
		<g opacity="0.2" clip-path="url(#SVGID_22_)">
			<g>
				<defs>
					<rect id="SVGID_23_" x="16.526" y="26.141" width="7.846" height="7.848"/>
				</defs>
				<clipPath id="SVGID_24_">
					<use xlink:href="#SVGID_23_"  overflow="visible"/>
				</clipPath>
				<path clip-path="url(#SVGID_24_)" fill="#E58871" d="M24.372,30.062c0,2.169-1.756,3.927-3.922,3.927
					c-2.167,0-3.923-1.757-3.923-3.927c0-2.164,1.756-3.921,3.923-3.921C22.616,26.141,24.372,27.898,24.372,30.062"/>
			</g>
		</g>
		<g opacity="0.2" clip-path="url(#SVGID_22_)">
			<g>
				<defs>
					<rect id="SVGID_25_" x="36.225" y="26.141" width="7.845" height="7.848"/>
				</defs>
				<clipPath id="SVGID_26_">
					<use xlink:href="#SVGID_25_"  overflow="visible"/>
				</clipPath>
				<path clip-path="url(#SVGID_26_)" fill="#E58871" d="M44.07,30.062c0,2.169-1.757,3.927-3.921,3.927
					c-2.169,0-3.924-1.757-3.924-3.927c0-2.164,1.754-3.921,3.924-3.921C42.312,26.141,44.07,27.898,44.07,30.062"/>
			</g>
		</g>
		<g opacity="0.2" clip-path="url(#SVGID_22_)">
			<g>
				<defs>
					<rect id="SVGID_27_" x="34.62" y="31.268" width="2.696" height="3.765"/>
				</defs>
				<clipPath id="SVGID_28_">
					<use xlink:href="#SVGID_27_"  overflow="visible"/>
				</clipPath>
				<path clip-path="url(#SVGID_28_)" fill="#E58871" d="M37.257,35.033c-1.347-0.836-2.308-2.198-2.637-3.742l0.109-0.023
					c0.324,1.512,1.267,2.852,2.587,3.67L37.257,35.033z"/>
			</g>
		</g>
		<path clip-path="url(#SVGID_22_)" fill="#ED877B" d="M32.178,31.686c-1.041,1.04-2.727,1.04-3.766,0l-0.746-0.746
			c-0.092-0.092-0.121-0.231-0.07-0.352c0.05-0.12,0.168-0.199,0.299-0.199h4.801c0.13,0,0.249,0.079,0.298,0.199
			c0.05,0.121,0.023,0.26-0.069,0.352L32.178,31.686z"/>
		<g opacity="0.5" clip-path="url(#SVGID_22_)">
			<g>
				<defs>
					<rect id="SVGID_29_" x="29.21" y="29.181" width="2.473" height="1.236"/>
				</defs>
				<clipPath id="SVGID_30_">
					<use xlink:href="#SVGID_29_"  overflow="visible"/>
				</clipPath>
				<path clip-path="url(#SVGID_30_)" fill="#E58871" d="M29.21,30.417c0-0.684,0.552-1.236,1.234-1.236
					c0.684,0,1.239,0.552,1.239,1.236H29.21z"/>
			</g>
		</g>
		<g opacity="0.5" clip-path="url(#SVGID_22_)">
			<g>
				<defs>
					<rect id="SVGID_31_" x="30.557" y="24.223" width="2.357" height="6.58"/>
				</defs>
				<clipPath id="SVGID_32_">
					<use xlink:href="#SVGID_31_"  overflow="visible"/>
				</clipPath>
				<polygon clip-path="url(#SVGID_32_)" fill="#E58871" points="30.557,30.803 30.557,24.224 32.915,30.612 				"/>
			</g>
		</g>
		<path clip-path="url(#SVGID_22_)" fill="#DD4F7A" d="M28.004,37.927c0,0,0.084,0.012,0.229,0.031
			c0.074,0.01,0.161,0.022,0.262,0.035c0.102,0.014,0.216,0.036,0.34,0.046c0.125,0.014,0.259,0.032,0.402,0.048
			c0.141,0.019,0.291,0.025,0.446,0.035c0.157,0.008,0.316,0.029,0.48,0.024c0.163,0,0.328,0.001,0.494-0.002
			c0.167-0.011,0.332-0.022,0.495-0.032c0.162-0.009,0.322-0.038,0.476-0.059c0.078-0.008,0.155-0.019,0.229-0.025
			c0.074-0.014,0.147-0.027,0.218-0.039c0.141-0.024,0.273-0.046,0.397-0.068c0.122-0.021,0.236-0.05,0.337-0.071
			c0.099-0.019,0.188-0.036,0.258-0.053c0.143-0.028,0.226-0.042,0.226-0.042s-0.08,0.025-0.218,0.071
			c-0.072,0.022-0.156,0.047-0.252,0.078c-0.101,0.029-0.208,0.068-0.333,0.097c-0.121,0.028-0.252,0.06-0.393,0.093
			c-0.071,0.017-0.145,0.034-0.218,0.052c-0.073,0.012-0.151,0.025-0.229,0.038c-0.158,0.022-0.315,0.055-0.483,0.071
			c-0.166,0.013-0.332,0.025-0.502,0.037c-0.168,0.006-0.338-0.003-0.504-0.003c-0.167,0.004-0.328-0.021-0.486-0.034
			c-0.157-0.016-0.311-0.026-0.452-0.057c-0.143-0.024-0.277-0.048-0.402-0.07c-0.124-0.02-0.234-0.054-0.334-0.077
			c-0.099-0.025-0.186-0.047-0.256-0.064C28.085,37.95,28.004,37.927,28.004,37.927"/>
	</g>
	<g>
		<defs>
			<path id="SVGID_33_" d="M36.178,34.953c-0.852,0.13-2.366,0.3-3.77,0.109c-0.293-0.034-0.5,0.024-0.78,0.102l-0.915,0.229
				c-0.18,0.049-0.373,0.044-0.549-0.01l-0.774-0.222c-0.202-0.058-0.421-0.054-0.619,0.011c-0.692,0.228-2.377,0.78-3.244,1.063
				c-0.069,0.021-0.111,0.078-0.103,0.138c0.008,0.062,0.063,0.109,0.137,0.119c1.352,0.198,4.877,0.071,4.877,0.071
				c3.136-0.17,4.608-0.721,5.847-1.401c0.057-0.033,0.078-0.088,0.053-0.139c-0.022-0.046-0.076-0.073-0.135-0.073
				C36.196,34.951,36.187,34.952,36.178,34.953"/>
		</defs>
		<clipPath id="SVGID_34_">
			<use xlink:href="#SVGID_33_"  overflow="visible"/>
		</clipPath>
		<path clip-path="url(#SVGID_34_)" fill="#DD4F7A" d="M36.179,34.953c0.067-0.009,0.135,0.019,0.161,0.07
			c0.026,0.051,0.004,0.107-0.053,0.139c-1.239,0.68-2.71,1.231-5.847,1.4c0,0-3.524,0.127-4.876-0.07
			c-0.073-0.009-0.129-0.057-0.137-0.119c-0.007-0.06,0.034-0.116,0.103-0.138c0.867-0.283,2.552-0.835,3.244-1.062
			c0.198-0.065,0.417-0.069,0.62-0.011l0.773,0.223c0.176,0.053,0.369,0.057,0.55,0.009l0.914-0.229
			c0.279-0.077,0.487-0.136,0.78-0.102C33.812,35.252,35.326,35.083,36.179,34.953"/>
		<path clip-path="url(#SVGID_34_)" fill="#C4456D" d="M27.89,36.855c0,0,2.861-1.577,5.862-1.81
			c3.003-0.233,4.333-0.313,4.391-0.254c0.055,0.059-0.341,1.323-0.399,1.381c-0.029,0.032-2.793,0.566-5.408,0.739
			C30.063,37.061,27.89,36.855,27.89,36.855"/>
	</g>
	<g>
		<defs>
			<path id="SVGID_35_" d="M29.747,3.01c-3.93,0-7.695,1.579-10.448,4.381c-2.753,2.804-4.264,6.596-4.195,10.525l0.239,13.28
				c0.068,3.781,1.909,7.312,4.973,9.532l6.752,4.894c1.895,1.371,4.454,1.375,6.352,0.01l6.83-4.913
				c3.079-2.213,4.933-5.748,5.007-9.539l0.236-12.117c0.082-4.229-1.54-8.312-4.502-11.332C38.029,4.71,33.977,3.01,29.747,3.01
				L29.747,3.01z"/>
		</defs>
		<clipPath id="SVGID_36_">
			<use xlink:href="#SVGID_35_"  overflow="visible"/>
		</clipPath>
		<g opacity="0.2" clip-path="url(#SVGID_36_)">
			<g>
				<defs>
					<rect id="SVGID_37_" x="29.104" y="37.685" width="4.648" height="1.584"/>
				</defs>
				<clipPath id="SVGID_38_">
					<use xlink:href="#SVGID_37_"  overflow="visible"/>
				</clipPath>
				<path clip-path="url(#SVGID_38_)" fill="#E58871" d="M29.104,38.156c0,0,1.086,1.315,3.033,1.087
					c1.947-0.229,1.59-1.559,1.59-1.559l-2.849,0.555L29.104,38.156z"/>
			</g>
		</g>
	</g>
	<g>
		<defs>
			<path id="SVGID_39_" d="M29.991,1.764c-9.119-1.625-17.126,5.555-16.96,20.232c0.554-0.933,1.052-1.243,2.122-1.607
				c1.326,2.019,4.681,0.216,7.503-2.443c-0.999,1.401-2.732,3.232-3.075,3.453c0.357,0.151,1.149,0.223,1.149,0.223
				c3.879-3.219,6.51-5.858,9.35-10.436c3.817,5.381,5.081,7.427,14.225,11.13c-0.434-0.643-0.722-0.918-1.037-1.422
				c0.79,0.793,2.035,1.77,2.665,2.014c0,0-0.589-1.52-0.433-2.501c0.806,0.156,1.376,0.678,1.376,0.678
				c0.728-14.578-8.3-19.612-14.467-19.612C31.532,1.472,30.716,1.574,29.991,1.764"/>
		</defs>
		<clipPath id="SVGID_40_">
			<use xlink:href="#SVGID_39_"  overflow="visible"/>
		</clipPath>
		<path clip-path="url(#SVGID_40_)" fill="#725D4D" d="M46.875,21.084C47.706,4.437,35.815,0.236,29.991,1.764
			C20.873,0.139,12.865,7.32,13.03,21.996c0.554-0.933,1.053-1.243,2.122-1.607c1.327,2.018,4.681,0.216,7.504-2.443
			c-0.999,1.401-2.733,3.232-3.076,3.453c0.357,0.151,1.149,0.223,1.149,0.223c3.879-3.219,6.511-5.858,9.351-10.435
			c3.816,5.38,5.079,7.426,14.224,11.129c-0.435-0.643-0.723-0.918-1.038-1.422c0.79,0.793,2.036,1.77,2.666,2.014
			c0,0-0.589-1.52-0.433-2.501C46.305,20.562,46.875,21.084,46.875,21.084"/>
		<path clip-path="url(#SVGID_40_)" fill="#655243" d="M12.709,14.121c8.681,1.56,19.698-9.792,31.273-11.127l6.342,20.587
			l-0.109,4.342l-41.4,1.669L12.709,14.121z"/>
	</g>
	<g>
		<defs>
			<path id="SVGID_41_" d="M70.793,35.611c0,16.068,13.024,29.09,29.09,29.09c16.068,0,29.092-13.022,29.092-29.09
				c0-16.065-13.023-29.091-29.092-29.091C83.817,6.52,70.793,19.546,70.793,35.611"/>
		</defs>
		<clipPath id="SVGID_42_">
			<use xlink:href="#SVGID_41_"  overflow="visible"/>
		</clipPath>
		<path clip-path="url(#SVGID_42_)" fill="#FFFFFF" d="M128.975,35.611c0,16.068-13.023,29.09-29.091,29.09
			s-29.091-13.022-29.091-29.09c0-16.064,13.024-29.091,29.091-29.091S128.975,19.546,128.975,35.611"/>
		<path clip-path="url(#SVGID_42_)" fill="#F04C23" d="M123.584,81.838h-47.4V60.706c0-6.079,5.836-11.01,13.035-11.01h21.332
			c7.2,0,13.033,4.931,13.033,11.01V81.838z"/>
	</g>
	<g>
		<circle fill="none" stroke="#AED136" stroke-width="2" stroke-miterlimit="10" cx="99.884" cy="35.611" r="29.091"/>
	</g>
	<g>
		<defs>
			<path id="SVGID_43_" d="M90.808,32.299v19.124c0,5.062,4.103,9.166,9.164,9.166c5.001,0,9.055-4.055,9.055-9.055V32.299H90.808z"
				/>
		</defs>
		<clipPath id="SVGID_44_">
			<use xlink:href="#SVGID_43_"  overflow="visible"/>
		</clipPath>
		<path clip-path="url(#SVGID_44_)" fill="#F3B09D" d="M109.026,51.534c0,5-4.054,9.054-9.054,9.054
			c-5.062,0-9.165-4.103-9.165-9.164V32.3h18.218V51.534z"/>
		<g opacity="0.4" clip-path="url(#SVGID_44_)">
			<g>
				<defs>
					<rect id="SVGID_45_" x="90.23" y="45.646" width="20.403" height="13.604"/>
				</defs>
				<clipPath id="SVGID_46_">
					<use xlink:href="#SVGID_45_"  overflow="visible"/>
				</clipPath>
				<path clip-path="url(#SVGID_46_)" fill="#E58871" d="M90.673,48.144c8.192,2.028,12.604,4.998,14.926,11.106l5.034-3.003
					L110.5,45.735l-20.27-0.089L90.673,48.144z"/>
			</g>
		</g>
	</g>
	<g>
		<path fill="#F3B09D" d="M90.355,24.204c0,2.23-1.81,4.038-4.041,4.038c-2.232,0-4.042-1.808-4.042-4.038
			c0-2.234,1.81-4.042,4.042-4.042C88.545,20.162,90.355,21.969,90.355,24.204"/>
		<g opacity="0.2">
			<g>
				<defs>
					<rect id="SVGID_47_" x="83.667" y="21.557" width="5.294" height="5.294"/>
				</defs>
				<clipPath id="SVGID_48_">
					<use xlink:href="#SVGID_47_"  overflow="visible"/>
				</clipPath>
				<path clip-path="url(#SVGID_48_)" fill="#E58871" d="M88.96,24.204c0,1.463-1.184,2.647-2.646,2.647s-2.647-1.184-2.647-2.647
					c0-1.46,1.185-2.647,2.647-2.647S88.96,22.743,88.96,24.204"/>
			</g>
		</g>
		<path fill="#F3B09D" d="M117.496,24.204c0,2.23-1.806,4.038-4.042,4.038c-2.228,0-4.039-1.808-4.039-4.038
			c0-2.234,1.811-4.042,4.039-4.042C115.69,20.162,117.496,21.969,117.496,24.204"/>
		<g opacity="0.2">
			<g>
				<defs>
					<rect id="SVGID_49_" x="110.807" y="21.557" width="5.296" height="5.294"/>
				</defs>
				<clipPath id="SVGID_50_">
					<use xlink:href="#SVGID_49_"  overflow="visible"/>
				</clipPath>
				<path clip-path="url(#SVGID_50_)" fill="#E58871" d="M116.103,24.204c0,1.463-1.186,2.647-2.648,2.647
					c-1.463,0-2.647-1.184-2.647-2.647c0-1.46,1.185-2.647,2.647-2.647C114.917,21.556,116.103,22.743,116.103,24.204"/>
			</g>
		</g>
	</g>
	<g>
		<defs>
			<path id="SVGID_51_" d="M96.932,2.634c-6.129,0-11.098,4.967-11.098,11.097v21.097c0,5.58,3.761,10.462,9.158,11.885l2.23,0.588
				c1.77,0.467,3.632,0.466,5.402-0.002l2.725-0.721c5.101-1.349,8.652-5.974,8.652-11.25V13.731c0-6.13-4.966-11.097-11.095-11.097
				H96.932z"/>
		</defs>
		<clipPath id="SVGID_52_">
			<use xlink:href="#SVGID_51_"  overflow="visible"/>
		</clipPath>
		<path clip-path="url(#SVGID_52_)" fill="#F3B09D" d="M114.001,44.231c0,1.716-1.39,3.106-3.106,7.017H89.021
			c-1.76-3.91-3.187-5.336-3.187-7.097V13.727c0-6.128,4.968-11.096,11.097-11.096h5.973c6.129,0,11.098,4.968,11.098,11.096V44.231
			z"/>
		<g opacity="0.5" clip-path="url(#SVGID_52_)">
			<g>
				<defs>
					<rect id="SVGID_53_" x="99.917" y="18.195" width="3.865" height="8.05"/>
				</defs>
				<clipPath id="SVGID_54_">
					<use xlink:href="#SVGID_53_"  overflow="visible"/>
				</clipPath>
				<polygon clip-path="url(#SVGID_54_)" fill="#E58871" points="99.917,26.245 99.917,18.195 103.781,25.932 				"/>
			</g>
		</g>
		<path clip-path="url(#SVGID_52_)" fill="#ED877B" d="M102.616,27.506c-1.49,1.489-3.906,1.488-5.394-0.001l-1.069-1.069
			c-0.133-0.133-0.172-0.331-0.101-0.504c0.071-0.173,0.241-0.285,0.427-0.285l6.88,0.001c0.187,0,0.355,0.113,0.427,0.287
			c0.071,0.172,0.032,0.371-0.101,0.503L102.616,27.506z"/>
		<g opacity="0.5" clip-path="url(#SVGID_52_)">
			<g>
				<defs>
					<rect id="SVGID_55_" x="85.95" y="16.656" width="27.929" height="4.913"/>
				</defs>
				<clipPath id="SVGID_56_">
					<use xlink:href="#SVGID_55_"  overflow="visible"/>
				</clipPath>
				<path clip-path="url(#SVGID_56_)" fill="#E58871" d="M113.879,21.569c0-2.714-2.199-4.913-4.913-4.913H90.863
					c-2.713,0-4.914,2.199-4.914,4.913H113.879z"/>
			</g>
		</g>
		<g opacity="0.2" clip-path="url(#SVGID_52_)">
			<g>
				<defs>
					<rect id="SVGID_57_" x="90.748" y="7.482" width="18.338" height="9.17"/>
				</defs>
				<clipPath id="SVGID_58_">
					<use xlink:href="#SVGID_57_"  overflow="visible"/>
				</clipPath>
				<path clip-path="url(#SVGID_58_)" fill="#E58871" d="M90.748,16.652c0-5.068,4.105-9.17,9.169-9.17s9.169,4.102,9.169,9.17"/>
			</g>
		</g>
		<g opacity="0.5" clip-path="url(#SVGID_52_)">
			<g>
				<defs>
					<rect id="SVGID_59_" x="98.678" y="24.397" width="2.478" height="1.239"/>
				</defs>
				<clipPath id="SVGID_60_">
					<use xlink:href="#SVGID_59_"  overflow="visible"/>
				</clipPath>
				<path clip-path="url(#SVGID_60_)" fill="#E58871" d="M98.678,25.637c0-0.685,0.554-1.239,1.239-1.239
					c0.684,0,1.239,0.554,1.239,1.239H98.678z"/>
			</g>
		</g>
		<g opacity="0.2" clip-path="url(#SVGID_52_)">
			<g>
				<defs>
					<rect id="SVGID_61_" x="82.493" y="24.397" width="35.003" height="28.11"/>
				</defs>
				<clipPath id="SVGID_62_">
					<use xlink:href="#SVGID_61_"  overflow="visible"/>
				</clipPath>
				<path clip-path="url(#SVGID_62_)" fill="#E58871" d="M117.496,47.976l-1.731-23.578l-8.85,1.822
					c-0.235,0.049-0.439,0.191-0.565,0.395c-0.126,0.205-0.163,0.452-0.102,0.683l1.811,6.843c0.198,0.747,0.286,1.519,0.26,2.292
					l-0.027,0.805c0,1.13-0.307,2.219-0.997,3.116c-1.676,2.175-4.307,3.58-7.267,3.58c-2.555,0-5.624-1.521-7.424-3.857
					c-0.628-0.815-0.97-1.814-0.97-2.844v-0.001c0-1.304,0.169-2.602,0.502-3.861l1.604-6.072c0.061-0.231,0.025-0.479-0.101-0.683
					c-0.126-0.204-0.331-0.345-0.566-0.395l-8.85-1.822l-1.728,23.578h7.169l-0.184,4.532c0,0,23.132-0.558,23.075-0.723
					c-0.005-0.015,0.063-3.643,0.018-3.81H117.496z"/>
			</g>
		</g>
	</g>
	<g>
		<path fill="#7A6353" d="M88.442,16.797c-0.108,0-0.215-0.051-0.278-0.147c-0.105-0.156-0.062-0.362,0.092-0.469
			c1.68-1.117,4.746-0.997,7.021-0.699c0.181,0.022,0.311,0.19,0.288,0.376c-0.025,0.181-0.193,0.311-0.376,0.286
			c-3.097-0.405-5.368-0.2-6.562,0.597C88.568,16.776,88.504,16.797,88.442,16.797"/>
		<path fill="#7A6353" d="M110.978,16.978c-0.044,0-0.082-0.011-0.124-0.025c-1.485-0.588-3.539-0.652-6.647-0.207
			c-0.186,0.023-0.351-0.102-0.378-0.286c-0.028-0.186,0.099-0.353,0.281-0.377c3.233-0.465,5.39-0.389,6.991,0.247
			c0.17,0.07,0.255,0.263,0.187,0.433C111.236,16.897,111.111,16.978,110.978,16.978"/>
		<path fill="#F3B09D" d="M94.142,22.369c0,0.847-0.984,1.537-2.198,1.537c-1.214,0-2.199-0.689-2.199-1.537
			c0-0.851,0.985-1.538,2.199-1.538C93.157,20.831,94.142,21.518,94.142,22.369"/>
		<path fill="#F3B09D" d="M109.969,22.369c0,0.847-0.981,1.537-2.198,1.537c-1.214,0-2.199-0.689-2.199-1.537
			c0-0.851,0.985-1.538,2.199-1.538C108.987,20.831,109.969,21.518,109.969,22.369"/>
		<path fill="#D46A6B" d="M94.913,33.073c0,1.153,1.996,2.713,5.161,2.713c3.283,0,5.167-1.561,5.167-2.713H94.913z"/>
		<path fill="#4C392C" d="M99.884,30.286l0.397,3.653h7.317c0.151,0,0.288-0.081,0.362-0.211c0.073-0.13,0.07-0.29-0.007-0.418
			c-1.65-2.73-4.648-4.554-8.069-4.554c-3.423,0-6.42,1.823-8.071,4.554c-0.078,0.128-0.08,0.288-0.006,0.418
			s0.21,0.211,0.361,0.211h7.319L99.884,30.286z"/>
		<path fill="#4C392C" d="M106.669,46.806c5.196-1.462,8.688-6.289,8.466-11.682c-0.362-8.757-0.451-20.72-0.452-21.627
			c0.086-6.771-5.449-11.671-10.749-12.009c-0.577-0.043-0.374-0.033-1.012-0.051c-5.844-0.045-7.482-0.078-9.196,0.472
			c-2.131,0.605-4.017,1.833-5.42,3.37c-2.175,2.317-3.227,5.738-3.147,7.951c0.009,0.931-0.135,13.791-0.542,22.723
			c-0.217,4.796,2.851,9.135,7.449,10.518c2.831,0.852,5.444,1.411,8.053,1.396C102.267,47.851,104.411,47.439,106.669,46.806
			 M104.368,37.688c-1.214,0.331-2.516-0.042-3.376-0.964c-0.551-0.592-0.918-0.565-1.19-0.565c-0.38,0-0.73,0.248-1.028,0.565
			c-0.859,0.923-2.159,1.295-3.376,0.964c-4.128-1.12-7.275-4.25-9.012-11.063c-0.842-3.296,0.129-1.093,0.537-12.879v0.002
			c0.303-4.776,3.155-8.329,7.443-9.579c0.259-0.081,0.541,0.015,0.699,0.233c2.373,3.326,7.307,3.326,9.68-0.002
			c0.275-0.388,0.67-0.25,0.948-0.168c4.052,1.273,7.037,4.759,7.222,9.891c0.413,11.941,1.353,9.016,0.74,11.613
			C111.91,33.167,108.672,36.52,104.368,37.688"/>
		<path fill="#5A5B5D" d="M92.299,20.564c-0.695,0-1.353-0.106-2.19-0.268c-0.09-0.021-0.148-0.109-0.13-0.195
			c0.016-0.093,0.103-0.149,0.195-0.136c1.52,0.295,2.422,0.393,4.111,0c0.088-0.02,0.181,0.038,0.201,0.131
			c0.02,0.086-0.035,0.178-0.125,0.198C93.546,20.482,92.907,20.564,92.299,20.564"/>
		<path fill="#5A5B5D" d="M107.532,20.564c-0.606,0-1.243-0.082-2.061-0.27c-0.09-0.021-0.146-0.112-0.125-0.198
			c0.022-0.093,0.109-0.151,0.202-0.131c1.691,0.393,2.589,0.295,4.113,0c0.087-0.017,0.176,0.043,0.191,0.136
			c0.021,0.086-0.038,0.175-0.131,0.195C108.885,20.458,108.23,20.564,107.532,20.564"/>
	</g>
	<g>
		<defs>
			<path id="SVGID_63_" d="M140.8,36.493c0,15.949,12.928,28.876,28.878,28.876c15.947,0,28.877-12.928,28.877-28.876
				c0-15.947-12.93-28.877-28.877-28.877C153.728,7.615,140.8,20.545,140.8,36.493"/>
		</defs>
		<clipPath id="SVGID_64_">
			<use xlink:href="#SVGID_63_"  overflow="visible"/>
		</clipPath>
		<path clip-path="url(#SVGID_64_)" fill="#FFFFFF" d="M198.555,36.493c0,15.948-12.93,28.877-28.878,28.877
			c-15.95,0-28.877-12.93-28.877-28.877c0-15.947,12.927-28.877,28.877-28.877C185.625,7.615,198.555,20.545,198.555,36.493"/>
		<path clip-path="url(#SVGID_64_)" fill="#295158" d="M199.39,73.498h-58.016V61.301c0-5.907,4.789-10.695,10.694-10.695h36.627
			c5.905,0,10.694,4.788,10.694,10.695V73.498z"/>
	</g>
	<g>
		<path fill="none" stroke="#A9268D" stroke-width="2" stroke-miterlimit="10" d="M198.555,36.493
			c0,15.948-12.93,28.877-28.878,28.877c-15.95,0-28.877-12.93-28.877-28.877c0-7.118,2.575-13.634,6.845-18.667
			c5.296-6.247,13.201-10.21,22.032-10.21C185.625,7.615,198.555,20.545,198.555,36.493z"/>
	</g>
	<g>
		<defs>
			<path id="SVGID_65_" d="M160.667,32.387v18.98c0,5.023,4.071,9.097,9.097,9.097c4.963,0,8.987-4.023,8.987-8.987v-19.09H160.667z
				"/>
		</defs>
		<clipPath id="SVGID_66_">
			<use xlink:href="#SVGID_65_"  overflow="visible"/>
		</clipPath>
		<path clip-path="url(#SVGID_66_)" fill="#F3B09D" d="M178.75,51.477c0,4.964-4.023,8.987-8.987,8.987
			c-5.024,0-9.098-4.072-9.098-9.097v-18.98h18.085V51.477z"/>
		<g opacity="0.4" clip-path="url(#SVGID_66_)">
			<g>
				<defs>
					<rect id="SVGID_67_" x="160.095" y="45.636" width="20.251" height="13.503"/>
				</defs>
				<clipPath id="SVGID_68_">
					<use xlink:href="#SVGID_67_"  overflow="visible"/>
				</clipPath>
				<path clip-path="url(#SVGID_68_)" fill="#E58871" d="M160.534,48.113c8.132,2.015,12.508,4.963,14.816,11.025l4.996-2.98
					l-0.132-10.434l-20.119-0.089L160.534,48.113z"/>
			</g>
		</g>
	</g>
	<g>
		<path fill="#F3B09D" d="M160.217,24.35c0,2.215-1.794,4.011-4.011,4.011c-2.216,0-4.011-1.795-4.011-4.011
			c0-2.216,1.795-4.011,4.011-4.011C158.423,20.339,160.217,22.134,160.217,24.35"/>
		<g opacity="0.2">
			<g>
				<defs>
					<rect id="SVGID_69_" x="153.579" y="21.721" width="5.256" height="5.256"/>
				</defs>
				<clipPath id="SVGID_70_">
					<use xlink:href="#SVGID_69_"  overflow="visible"/>
				</clipPath>
				<path clip-path="url(#SVGID_70_)" fill="#E58871" d="M158.834,24.35c0,1.451-1.176,2.627-2.628,2.627
					c-1.45,0-2.628-1.177-2.628-2.627c0-1.453,1.178-2.629,2.628-2.629C157.659,21.721,158.834,22.897,158.834,24.35"/>
			</g>
		</g>
		<path fill="#F3B09D" d="M187.161,24.35c0,2.215-1.795,4.011-4.013,4.011c-2.213,0-4.009-1.795-4.009-4.011
			c0-2.216,1.796-4.011,4.009-4.011C185.366,20.339,187.161,22.134,187.161,24.35"/>
		<g opacity="0.2">
			<g>
				<defs>
					<rect id="SVGID_71_" x="180.52" y="21.721" width="5.258" height="5.256"/>
				</defs>
				<clipPath id="SVGID_72_">
					<use xlink:href="#SVGID_71_"  overflow="visible"/>
				</clipPath>
				<path clip-path="url(#SVGID_72_)" fill="#E58871" d="M185.778,24.35c0,1.451-1.179,2.627-2.63,2.627
					c-1.449,0-2.628-1.177-2.628-2.627c0-1.453,1.179-2.629,2.628-2.629C184.599,21.721,185.778,22.897,185.778,24.35"/>
			</g>
		</g>
	</g>
	<g>
		<defs>
			<path id="SVGID_73_" d="M166.743,2.938c-6.082,0-11.014,4.931-11.014,11.014v30.285c0,1.329,0.895,2.49,2.179,2.827l9.125,2.406
				c1.757,0.463,3.604,0.462,5.361-0.003l9.162-2.422c1.257-0.333,2.131-1.471,2.131-2.771V13.953
				c0-6.084-4.93-11.014-11.014-11.014H166.743z"/>
		</defs>
		<clipPath id="SVGID_74_">
			<use xlink:href="#SVGID_73_"  overflow="visible"/>
		</clipPath>
		<path clip-path="url(#SVGID_74_)" fill="#F3B09D" d="M183.687,44.232c0,1.705-1.38,3.084-3.084,6.963h-21.711
			c-1.747-3.879-3.161-5.294-3.161-7.043V13.956c0-6.083,4.931-11.014,11.014-11.014h5.928c6.084,0,11.015,4.931,11.015,11.014
			V44.232z"/>
		<g opacity="0.5" clip-path="url(#SVGID_74_)">
			<g>
				<defs>
					<rect id="SVGID_75_" x="169.71" y="18.387" width="3.838" height="7.991"/>
				</defs>
				<clipPath id="SVGID_76_">
					<use xlink:href="#SVGID_75_"  overflow="visible"/>
				</clipPath>
				<polygon clip-path="url(#SVGID_76_)" fill="#E58871" points="169.71,26.377 169.71,18.386 173.548,26.065 				"/>
			</g>
		</g>
		<path clip-path="url(#SVGID_74_)" fill="#ED877B" d="M172.386,27.625c-1.479,1.479-3.875,1.48-5.354,0.001l-1.061-1.061
			c-0.131-0.131-0.171-0.328-0.1-0.5c0.071-0.171,0.239-0.283,0.424-0.283h6.825c0.185,0,0.353,0.111,0.424,0.283
			c0.07,0.172,0.032,0.369-0.1,0.5L172.386,27.625z"/>
		<g opacity="0.5" clip-path="url(#SVGID_74_)">
			<g>
				<defs>
					<rect id="SVGID_77_" x="155.843" y="16.856" width="27.728" height="4.881"/>
				</defs>
				<clipPath id="SVGID_78_">
					<use xlink:href="#SVGID_77_"  overflow="visible"/>
				</clipPath>
				<path clip-path="url(#SVGID_78_)" fill="#E58871" d="M183.571,21.735c0-2.695-2.184-4.88-4.879-4.88h-17.969
					c-2.695,0-4.88,2.185-4.88,4.88v0.001L183.571,21.735L183.571,21.735z"/>
			</g>
		</g>
		<g opacity="0.2" clip-path="url(#SVGID_74_)">
			<g>
				<defs>
					<rect id="SVGID_79_" x="160.61" y="7.753" width="18.199" height="9.102"/>
				</defs>
				<clipPath id="SVGID_80_">
					<use xlink:href="#SVGID_79_"  overflow="visible"/>
				</clipPath>
				<path clip-path="url(#SVGID_80_)" fill="#E58871" d="M160.61,16.855c0-5.025,4.072-9.102,9.101-9.102
					c5.023,0,9.099,4.077,9.099,9.102"/>
			</g>
		</g>
		<g opacity="0.5" clip-path="url(#SVGID_74_)">
			<g>
				<defs>
					<rect id="SVGID_81_" x="168.48" y="24.546" width="2.461" height="1.227"/>
				</defs>
				<clipPath id="SVGID_82_">
					<use xlink:href="#SVGID_81_"  overflow="visible"/>
				</clipPath>
				<path clip-path="url(#SVGID_82_)" fill="#E58871" d="M168.48,25.772c0-0.679,0.549-1.227,1.23-1.227
					c0.678,0,1.23,0.548,1.23,1.227H168.48z"/>
			</g>
		</g>
		<g opacity="0.2" clip-path="url(#SVGID_74_)">
			<g>
				<defs>
					<rect id="SVGID_83_" x="152.418" y="24.543" width="34.742" height="27.9"/>
				</defs>
				<clipPath id="SVGID_84_">
					<use xlink:href="#SVGID_83_"  overflow="visible"/>
				</clipPath>
				<path clip-path="url(#SVGID_84_)" fill="#E58871" d="M187.161,47.945l-1.715-23.402l-8.784,1.809
					c-0.234,0.047-0.438,0.189-0.562,0.392c-0.125,0.201-0.161,0.446-0.101,0.675l1.592,6.031c0.33,1.249,0.496,2.536,0.496,3.828
					v0.009c0,1.123-0.37,2.207-1.057,3.098c-1.662,2.158-4.272,3.547-7.208,3.547c-3.085,0-5.808-1.534-7.454-3.881
					c-0.568-0.811-0.876-1.777-0.876-2.768v-0.005c0-1.293,0.167-2.58,0.498-3.83l1.592-6.03c0.061-0.229,0.023-0.474-0.103-0.675
					c-0.125-0.203-0.328-0.345-0.56-0.392l-8.787-1.809l-1.714,23.402h7.117l-0.185,4.499c0,0,22.957-0.552,22.902-0.719
					c-0.004-0.013,0.063-3.614,0.02-3.78H187.161z"/>
			</g>
		</g>
		<path clip-path="url(#SVGID_74_)" fill="#5A5B5D" d="M164.667,20.907c-0.066,0-0.128-0.039-0.153-0.104
			c-0.38-0.912-1.262-1.501-2.249-1.501s-1.87,0.589-2.25,1.501c-0.035,0.086-0.133,0.125-0.218,0.091
			c-0.084-0.036-0.123-0.134-0.089-0.217c0.432-1.038,1.435-1.708,2.557-1.708s2.125,0.67,2.556,1.708
			c0.035,0.083-0.005,0.182-0.093,0.217C164.708,20.903,164.688,20.907,164.667,20.907"/>
	</g>
	<g>
		<defs>
			<path id="SVGID_85_" d="M159.708,20.677c-0.034,0.082,0.005,0.181,0.089,0.217c0.085,0.036,0.183-0.004,0.218-0.09
				c0.38-0.912,1.263-1.501,2.249-1.501c0.988,0,1.87,0.589,2.25,1.501c0.025,0.064,0.087,0.103,0.153,0.103
				c0.021,0,0.042-0.003,0.06-0.013c0.089-0.036,0.129-0.135,0.093-0.217c-0.43-1.038-1.433-1.707-2.556-1.707
				C161.142,18.97,160.139,19.639,159.708,20.677"/>
		</defs>
		<clipPath id="SVGID_86_">
			<use xlink:href="#SVGID_85_"  overflow="visible"/>
		</clipPath>
		<path clip-path="url(#SVGID_86_)" fill="#5A5B5D" d="M164.667,20.907c-0.066,0-0.128-0.039-0.153-0.104
			c-0.38-0.912-1.262-1.501-2.249-1.501s-1.87,0.589-2.25,1.501c-0.035,0.086-0.133,0.125-0.218,0.091
			c-0.084-0.036-0.123-0.134-0.089-0.217c0.432-1.038,1.435-1.708,2.557-1.708s2.125,0.67,2.556,1.708
			c0.035,0.083-0.005,0.182-0.093,0.217C164.708,20.903,164.688,20.907,164.667,20.907"/>
	</g>
	<g>
		<defs>
			<path id="SVGID_87_" d="M166.743,2.938c-6.082,0-11.014,4.931-11.014,11.014v30.285c0,1.329,0.895,2.49,2.179,2.827l9.125,2.406
				c1.757,0.463,3.604,0.462,5.361-0.003l9.162-2.422c1.257-0.333,2.131-1.471,2.131-2.771V13.953
				c0-6.084-4.93-11.014-11.014-11.014H166.743z"/>
		</defs>
		<clipPath id="SVGID_88_">
			<use xlink:href="#SVGID_87_"  overflow="visible"/>
		</clipPath>
		<path clip-path="url(#SVGID_88_)" fill="#5A5B5D" d="M179.557,20.907c-0.065,0-0.126-0.039-0.153-0.104
			c-0.378-0.912-1.261-1.501-2.248-1.501c-0.989,0-1.871,0.589-2.249,1.501c-0.037,0.086-0.132,0.125-0.218,0.091
			c-0.085-0.036-0.123-0.134-0.089-0.217c0.43-1.038,1.432-1.708,2.556-1.708c1.122,0,2.124,0.67,2.556,1.708
			c0.034,0.083-0.007,0.182-0.091,0.217C179.601,20.903,179.579,20.907,179.557,20.907"/>
	</g>
	<g>
		<defs>
			<path id="SVGID_89_" d="M174.6,20.677c-0.033,0.082,0.006,0.181,0.089,0.217c0.086,0.036,0.181-0.004,0.218-0.09
				c0.378-0.912,1.26-1.501,2.25-1.501c0.985,0,1.868,0.589,2.247,1.501c0.027,0.064,0.089,0.103,0.153,0.103
				c0.021,0,0.044-0.003,0.064-0.013c0.083-0.036,0.125-0.135,0.091-0.217c-0.434-1.038-1.435-1.707-2.556-1.707
				C176.032,18.97,175.03,19.639,174.6,20.677"/>
		</defs>
		<clipPath id="SVGID_90_">
			<use xlink:href="#SVGID_89_"  overflow="visible"/>
		</clipPath>
		<path clip-path="url(#SVGID_90_)" fill="#5A5B5D" d="M179.557,20.907c-0.065,0-0.126-0.039-0.153-0.104
			c-0.378-0.912-1.261-1.501-2.248-1.501c-0.989,0-1.871,0.589-2.249,1.501c-0.037,0.086-0.132,0.125-0.218,0.091
			c-0.085-0.036-0.123-0.134-0.089-0.217c0.43-1.038,1.432-1.708,2.556-1.708c1.122,0,2.124,0.67,2.556,1.708
			c0.034,0.083-0.007,0.182-0.091,0.217C179.601,20.903,179.579,20.907,179.557,20.907"/>
	</g>
	<g>
		<defs>
			<path id="SVGID_91_" d="M166.743,2.938c-6.082,0-11.014,4.931-11.014,11.014v30.285c0,1.329,0.895,2.49,2.179,2.827l9.125,2.406
				c1.757,0.463,3.604,0.462,5.361-0.003l9.162-2.422c1.257-0.333,2.131-1.471,2.131-2.771V13.953
				c0-6.084-4.93-11.014-11.014-11.014H166.743z"/>
		</defs>
		<clipPath id="SVGID_92_">
			<use xlink:href="#SVGID_91_"  overflow="visible"/>
		</clipPath>
		<path clip-path="url(#SVGID_92_)" fill="#D46A6B" d="M164.041,33.203c0,2.141,2.254,5.033,5.828,5.033
			c3.701,0,5.825-2.892,5.825-5.033H164.041z"/>
	</g>
	<g>
		<defs>
			<path id="SVGID_93_" d="M164.042,33.203c0,2.141,2.254,5.033,5.827,5.033c3.701,0,5.826-2.892,5.826-5.033H164.042z"/>
		</defs>
		<clipPath id="SVGID_94_">
			<use xlink:href="#SVGID_93_"  overflow="visible"/>
		</clipPath>
		<g opacity="0.3" clip-path="url(#SVGID_94_)">
			<g>
				<defs>
					<rect id="SVGID_95_" x="164.714" y="34.149" width="10.574" height="10.574"/>
				</defs>
				<clipPath id="SVGID_96_">
					<use xlink:href="#SVGID_95_"  overflow="visible"/>
				</clipPath>
				<path clip-path="url(#SVGID_96_)" fill="#95494A" d="M175.289,39.435c0,2.92-2.368,5.288-5.287,5.288
					c-2.92,0-5.287-2.367-5.287-5.288c0-2.921,2.367-5.286,5.287-5.286C172.92,34.149,175.289,36.514,175.289,39.435"/>
			</g>
		</g>
		<path clip-path="url(#SVGID_94_)" fill="#FFFFFF" d="M175.255,32.273c0,1.186-2.354,2.147-5.254,2.147s-5.254-0.961-5.254-2.147
			s2.354-2.146,5.254-2.146S175.255,31.087,175.255,32.273"/>
	</g>
	<g>
		<rect x="155.692" y="12.783" fill="#725D4D" width="0.483" height="11.782"/>
		<rect x="183.205" y="12.783" fill="#725D4D" width="0.484" height="11.782"/>
		<path fill="#7A6353" d="M158.392,17.444c-0.152,0-0.288-0.104-0.325-0.258c-0.04-0.178,0.071-0.354,0.25-0.398l6.596-1.536
			c0.178-0.043,0.356,0.072,0.398,0.25c0.042,0.178-0.068,0.356-0.25,0.397l-6.595,1.536
			C158.441,17.441,158.416,17.444,158.392,17.444"/>
		<path fill="#7A6353" d="M180.676,17.36c-0.009,0-0.019-0.003-0.027-0.003l-6.747-0.592c-0.183-0.014-0.317-0.176-0.302-0.355
			c0.017-0.183,0.175-0.319,0.357-0.302l6.748,0.587c0.184,0.016,0.317,0.179,0.301,0.359
			C180.993,17.229,180.849,17.36,180.676,17.36"/>
		<path fill="#F3B09D" d="M163.976,22.528c0,0.843-0.976,1.527-2.181,1.527c-1.206,0-2.184-0.684-2.184-1.527
			c0-0.843,0.978-1.524,2.184-1.524C163,21.004,163.976,21.686,163.976,22.528"/>
		<path fill="#F3B09D" d="M179.687,22.528c0,0.843-0.976,1.527-2.184,1.527c-1.202,0-2.181-0.684-2.181-1.527
			c0-0.843,0.979-1.524,2.181-1.524C178.711,21.004,179.687,21.686,179.687,22.528"/>
	</g>
	<g>
		<defs>
			<path id="SVGID_97_" d="M162.22,2.524c-5.457-0.514-6.522,2.832-6.522,8.066l0.035,4.183c3.258-0.822,6.919-4.994,6.919-4.994
				c7.186,3.606,12.071,4.315,17.152,4.184c-0.227-0.126-0.854-0.622-0.945-0.707c1.908,0.294,2.963,0.44,4.861,0.24v-2.468
				c0-7.159-7.645-10.283-14.188-10.283C166.62,0.746,163.924,1.366,162.22,2.524"/>
		</defs>
		<clipPath id="SVGID_98_">
			<use xlink:href="#SVGID_97_"  overflow="visible"/>
		</clipPath>
		<path clip-path="url(#SVGID_98_)" fill="#7A6353" d="M155.698,10.59c0-5.235,1.065-8.581,6.522-8.066
			c5.531-3.76,21.5-1.843,21.5,8.504v2.469c-1.898,0.201-2.952,0.055-4.862-0.239c0.092,0.085,0.72,0.579,0.946,0.706
			c-5.081,0.132-9.968-0.577-17.152-4.184c0,0-3.661,4.173-6.92,4.995L155.698,10.59z"/>
		<path clip-path="url(#SVGID_98_)" fill="#725D4D" d="M155.318,7.948c5.921,4.646,14.108-9.184,23.567-5.172l4.966,2.663
			l1.53,9.207l-10.024,2.481l-11.408-2.167l-8.849,1.177L155.318,7.948z"/>
	</g>
	<g>
		<path fill="none" stroke="#00B3D9" stroke-width="2" stroke-miterlimit="10" d="M259.931,14.124
			c5.237,5.236,8.477,12.47,8.477,20.462c0,15.979-12.957,28.938-28.937,28.938c-15.982,0-28.938-12.959-28.938-28.938
			c0-15.984,12.956-28.937,28.938-28.937C247.46,5.649,254.696,8.886,259.931,14.124z"/>
		<path fill="none" stroke="#F9C415" stroke-width="2" stroke-miterlimit="10" d="M261.763,12.291
			C267.47,17.995,271,25.878,271,34.586c0,17.413-14.116,31.53-31.529,31.53c-17.414,0-31.53-14.117-31.53-31.53
			c0-17.417,14.116-31.529,31.53-31.529C248.176,3.057,256.058,6.585,261.763,12.291z"/>
	</g>
	<g>
		<defs>
			<path id="SVGID_99_" d="M210.5,34.706c0,16.003,12.973,28.975,28.973,28.975s28.972-12.972,28.972-28.975
				c0-15.998-12.972-28.969-28.972-28.969S210.5,18.708,210.5,34.706"/>
		</defs>
		<clipPath id="SVGID_100_">
			<use xlink:href="#SVGID_99_"  overflow="visible"/>
		</clipPath>
		<path clip-path="url(#SVGID_100_)" fill="#FFFFFF" d="M268.445,34.707c0,16.002-12.973,28.974-28.972,28.974
			c-16.001,0-28.973-12.972-28.973-28.974c0-15.999,12.972-28.969,28.973-28.969C255.472,5.738,268.445,18.708,268.445,34.707"/>
		<path clip-path="url(#SVGID_100_)" fill="#558DB8" d="M259.415,80.744h-39.883V59.701c0-6.058,4.911-10.968,10.968-10.968h17.947
			c6.058,0,10.968,4.91,10.968,10.968V80.744z"/>
		<path clip-path="url(#SVGID_100_)" fill="#D7D6DE" d="M227.389,32.259c0.479,7.312-6.16,22.98,1.275,33.026
			c3.054,4.124,11.602,2.885,11.602,2.885s6.985,5.005-4.994-10.878c-4.775-6.327-2.998-16.04-2.998-16.04L227.389,32.259z"/>
	</g>
	<g>
		<circle fill="none" stroke="#00B3D9" stroke-width="2" stroke-miterlimit="10" cx="239.473" cy="34.707" r="28.972"/>
	</g>
	<g>
		<defs>
			<path id="SVGID_101_" d="M232.142,31.886v16.438c0,4.036,3.271,7.307,7.308,7.307c3.987,0,7.219-3.232,7.219-7.219V31.886
				H232.142z"/>
		</defs>
		<clipPath id="SVGID_102_">
			<use xlink:href="#SVGID_101_"  overflow="visible"/>
		</clipPath>
		<path clip-path="url(#SVGID_102_)" fill="#F3B09D" d="M246.668,48.413c0,3.986-3.231,7.218-7.22,7.218
			c-4.035,0-7.307-3.271-7.307-7.307V31.887h14.526V48.413z"/>
		<g opacity="0.4" clip-path="url(#SVGID_102_)">
			<g>
				<defs>
					<rect id="SVGID_103_" x="229.76" y="39.373" width="20.318" height="14.737"/>
				</defs>
				<clipPath id="SVGID_104_">
					<use xlink:href="#SVGID_103_"  overflow="visible"/>
				</clipPath>
				<path clip-path="url(#SVGID_104_)" fill="#E58871" d="M230.201,41.857c8.158,2.023,12.55,6.171,14.864,12.252l5.014-2.991
					l-0.13-11.657l-20.188-0.089L230.201,41.857z"/>
			</g>
		</g>
	</g>
	<g>
		<path fill="#F3B09D" d="M257.271,20.791c0,1.733-1.322,3.137-2.954,3.137s-2.954-1.404-2.954-3.137
			c0-1.731,1.322-3.134,2.954-3.134S257.271,19.06,257.271,20.791"/>
		<path fill="#F3B09D" d="M228.02,20.791c0,1.733-1.323,3.137-2.954,3.137s-2.952-1.404-2.952-3.137
			c0-1.731,1.321-3.134,2.952-3.134S228.02,19.06,228.02,20.791"/>
	</g>
	<g>
		<defs>
			<path id="SVGID_105_" d="M239.127,0.355c-3.917,0-7.673,1.576-10.42,4.372c-2.747,2.797-4.254,6.578-4.184,10.497l0.236,13.245
				c0.068,3.771,1.905,7.293,4.959,9.506l6.737,4.883c1.89,1.369,4.443,1.374,6.337,0.011l6.812-4.902
				c3.069-2.208,4.918-5.732,4.992-9.512l0.235-12.088c0.083-4.217-1.534-8.292-4.488-11.304c-2.953-3.011-6.995-4.708-11.215-4.708
				H239.127z"/>
		</defs>
		<clipPath id="SVGID_106_">
			<use xlink:href="#SVGID_105_"  overflow="visible"/>
		</clipPath>
		<path clip-path="url(#SVGID_106_)" fill="#F3B09D" d="M254.596,28.455c-0.073,3.78-1.923,7.304-4.991,9.512l-6.812,4.902
			c-1.894,1.362-4.447,1.358-6.337-0.011l-6.736-4.882c-3.055-2.214-4.892-5.736-4.96-9.507l-0.236-13.245
			c-0.069-3.918,1.438-7.701,4.185-10.497c2.746-2.796,6.501-4.372,10.42-4.372h0.002c4.219,0,8.261,1.697,11.214,4.709
			c2.953,3.011,4.571,7.085,4.488,11.303L254.596,28.455z"/>
		<g opacity="0.2" clip-path="url(#SVGID_106_)">
			<g>
				<defs>
					<rect id="SVGID_107_" x="230.548" y="9.024" width="18.262" height="9.13"/>
				</defs>
				<clipPath id="SVGID_108_">
					<use xlink:href="#SVGID_107_"  overflow="visible"/>
				</clipPath>
				<path clip-path="url(#SVGID_108_)" fill="#E58871" d="M230.548,18.155c0-5.041,4.088-9.13,9.132-9.13
					c5.041,0,9.13,4.089,9.13,9.13"/>
			</g>
		</g>
		<path clip-path="url(#SVGID_106_)" fill="#7A6353" d="M251.542,17.126c0,0-0.021-0.013-0.064-0.041
			c-0.044-0.024-0.106-0.068-0.188-0.109c-0.041-0.021-0.085-0.042-0.135-0.066c-0.048-0.023-0.102-0.049-0.164-0.07
			c-0.061-0.023-0.124-0.046-0.192-0.072c-0.067-0.021-0.14-0.039-0.218-0.063c-0.076-0.023-0.155-0.043-0.239-0.06
			s-0.169-0.042-0.261-0.055c-0.089-0.013-0.182-0.027-0.278-0.043c-0.095-0.014-0.192-0.022-0.29-0.031
			c-0.098-0.013-0.2-0.02-0.304-0.025c-0.104-0.007-0.207-0.016-0.312-0.016c-0.21-0.008-0.424-0.012-0.636-0.005
			c-0.213,0-0.428,0.014-0.639,0.024c-0.209,0.015-0.416,0.028-0.616,0.049c-0.199,0.021-0.392,0.037-0.574,0.062
			c-0.182,0.026-0.355,0.046-0.513,0.072c-0.32,0.049-0.581,0.09-0.767,0.125c-0.184,0.036-0.288,0.054-0.288,0.054l-0.007,0.001
			c-0.184,0.034-0.354-0.086-0.388-0.269c-0.034-0.18,0.088-0.354,0.268-0.387c0.007-0.002,0.018-0.003,0.024-0.003
			c0,0,0.11-0.011,0.301-0.033c0.19-0.021,0.464-0.046,0.791-0.072c0.164-0.013,0.344-0.021,0.531-0.031
			c0.188-0.012,0.387-0.015,0.595-0.021c0.204-0.005,0.417-0.004,0.633-0.004c0.218,0.008,0.437,0.008,0.656,0.025
			c0.221,0.01,0.438,0.03,0.653,0.052c0.11,0.008,0.215,0.029,0.32,0.041c0.104,0.014,0.211,0.028,0.314,0.05
			c0.099,0.02,0.2,0.036,0.296,0.057c0.098,0.022,0.191,0.043,0.284,0.065c0.095,0.021,0.182,0.051,0.267,0.076
			c0.088,0.025,0.169,0.052,0.248,0.081c0.077,0.031,0.152,0.055,0.224,0.084c0.068,0.034,0.133,0.064,0.196,0.093
			c0.062,0.027,0.117,0.057,0.168,0.089c0.052,0.028,0.102,0.056,0.144,0.082c0.083,0.052,0.139,0.098,0.182,0.127
			c0.041,0.029,0.063,0.047,0.063,0.047c0.034,0.022,0.04,0.069,0.016,0.103C251.623,17.14,251.578,17.148,251.542,17.126"/>
		<path clip-path="url(#SVGID_106_)" fill="#D7D6DE" d="M227.731,17.003c0,0,0.022-0.018,0.063-0.047
			c0.043-0.029,0.099-0.075,0.18-0.127c0.045-0.025,0.092-0.054,0.144-0.082c0.052-0.032,0.109-0.062,0.17-0.089
			c0.062-0.028,0.127-0.059,0.195-0.093c0.072-0.029,0.146-0.053,0.225-0.084c0.078-0.029,0.16-0.055,0.247-0.081
			c0.086-0.025,0.173-0.055,0.266-0.076c0.093-0.022,0.188-0.043,0.286-0.065c0.097-0.021,0.196-0.037,0.299-0.057
			c0.102-0.021,0.205-0.036,0.31-0.05c0.107-0.012,0.213-0.033,0.321-0.041c0.217-0.022,0.435-0.042,0.654-0.051
			c0.221-0.018,0.44-0.018,0.656-0.026c0.217,0,0.427-0.001,0.634,0.004c0.206,0.006,0.406,0.009,0.593,0.022
			c0.188,0.009,0.366,0.017,0.532,0.03c0.329,0.026,0.601,0.051,0.792,0.072c0.19,0.022,0.3,0.033,0.3,0.033
			c0.184,0.02,0.315,0.183,0.296,0.367c-0.019,0.184-0.183,0.316-0.367,0.296c-0.008,0-0.016-0.002-0.023-0.003l-0.007-0.001
			c0,0-0.104-0.019-0.291-0.055c-0.183-0.035-0.447-0.076-0.764-0.125c-0.16-0.026-0.332-0.046-0.514-0.071
			c-0.183-0.026-0.377-0.041-0.575-0.063c-0.201-0.02-0.407-0.034-0.616-0.049c-0.209-0.01-0.424-0.024-0.637-0.024
			c-0.214-0.007-0.427-0.003-0.638,0.005c-0.104,0-0.207,0.009-0.312,0.016c-0.102,0.005-0.204,0.012-0.302,0.025
			c-0.1,0.009-0.197,0.017-0.293,0.031c-0.094,0.016-0.187,0.03-0.277,0.043c-0.089,0.013-0.176,0.038-0.26,0.055
			c-0.083,0.017-0.164,0.037-0.239,0.06c-0.076,0.024-0.149,0.042-0.219,0.063c-0.067,0.026-0.133,0.049-0.191,0.072
			c-0.063,0.021-0.115,0.047-0.163,0.07c-0.05,0.024-0.094,0.045-0.137,0.065c-0.082,0.042-0.144,0.086-0.187,0.11
			c-0.045,0.028-0.067,0.041-0.067,0.041c-0.034,0.024-0.082,0.013-0.104-0.023C227.689,17.068,227.7,17.025,227.731,17.003"/>
		<g opacity="0.5" clip-path="url(#SVGID_106_)">
			<g>
				<defs>
					<rect id="SVGID_109_" x="225.246" y="18.104" width="28.867" height="4.56"/>
				</defs>
				<clipPath id="SVGID_110_">
					<use xlink:href="#SVGID_109_"  overflow="visible"/>
				</clipPath>
				<path clip-path="url(#SVGID_110_)" fill="#E58871" d="M254.113,22.664c0-2.518-2.273-4.56-5.079-4.56h-18.707
					c-2.805,0-5.081,2.042-5.081,4.56H254.113z"/>
			</g>
		</g>
		<g opacity="0.2" clip-path="url(#SVGID_106_)">
			<g>
				<defs>
					<rect id="SVGID_111_" x="235.928" y="12.742" width="33.304" height="38.812"/>
				</defs>
				<clipPath id="SVGID_112_">
					<use xlink:href="#SVGID_111_"  overflow="visible"/>
				</clipPath>
				<path clip-path="url(#SVGID_112_)" fill="#E58871" d="M235.928,44.378l9.048,7.176l11.952-4.575c0,0,12.551-22.445,12.3-22.766
					s-8.457-11.471-8.457-11.471l-9.569,4.492C249.61,37.226,235.928,44.378,235.928,44.378"/>
			</g>
		</g>
		<path clip-path="url(#SVGID_106_)" fill="#5A5B5D" d="M250.523,21.845c-0.024,0-0.05-0.006-0.072-0.018
			c-0.27-0.132-0.525-0.161-0.877-0.166h-0.107l-0.045-0.101c-0.378-0.916-1.265-1.506-2.257-1.506c-0.988,0-1.873,0.59-2.254,1.506
			c-0.036,0.084-0.133,0.126-0.22,0.09c-0.085-0.035-0.124-0.133-0.089-0.219c0.432-1.04,1.438-1.712,2.562-1.712
			c1.092,0,2.067,0.63,2.521,1.611c0.288,0.007,0.592,0.039,0.912,0.2c0.083,0.041,0.117,0.14,0.076,0.22
			C250.645,21.811,250.586,21.845,250.523,21.845"/>
	</g>
	<g>
		<defs>
			<path id="SVGID_113_" d="M244.602,21.433c-0.034,0.084,0.004,0.184,0.09,0.218c0.086,0.036,0.183-0.007,0.219-0.09
				c0.381-0.917,1.266-1.507,2.255-1.507c0.992,0,1.878,0.59,2.256,1.507l0.045,0.101h0.108c0.351,0.005,0.606,0.033,0.875,0.166
				c0.023,0.012,0.049,0.018,0.072,0.018c0.063,0,0.123-0.034,0.152-0.094c0.041-0.081,0.007-0.181-0.076-0.222
				c-0.32-0.159-0.624-0.191-0.912-0.198c-0.454-0.98-1.43-1.611-2.521-1.611C246.04,19.721,245.034,20.392,244.602,21.433"/>
		</defs>
		<clipPath id="SVGID_114_">
			<use xlink:href="#SVGID_113_"  overflow="visible"/>
		</clipPath>
		<path clip-path="url(#SVGID_114_)" fill="#5A5B5D" d="M249.577,21.662c-0.064,0-0.127-0.038-0.155-0.102
			c-0.378-0.916-1.265-1.506-2.257-1.506c-0.988,0-1.873,0.59-2.254,1.506c-0.036,0.084-0.133,0.126-0.22,0.09
			c-0.085-0.035-0.124-0.133-0.089-0.217c0.432-1.041,1.438-1.712,2.562-1.712c1.128,0,2.135,0.671,2.564,1.712
			c0.035,0.084-0.006,0.183-0.091,0.217C249.619,21.658,249.597,21.662,249.577,21.662"/>
	</g>
	<g>
		<defs>
			<path id="SVGID_115_" d="M239.127,0.355c-3.917,0-7.673,1.576-10.42,4.372c-2.747,2.797-4.254,6.578-4.184,10.497l0.236,13.245
				c0.068,3.771,1.905,7.293,4.959,9.506l6.737,4.883c1.89,1.369,4.443,1.374,6.337,0.011l6.812-4.902
				c3.069-2.208,4.918-5.732,4.992-9.512l0.235-12.088c0.083-4.217-1.534-8.292-4.488-11.304c-2.953-3.011-6.995-4.708-11.215-4.708
				H239.127z"/>
		</defs>
		<clipPath id="SVGID_116_">
			<use xlink:href="#SVGID_115_"  overflow="visible"/>
		</clipPath>
		<path clip-path="url(#SVGID_116_)" fill="#5A5B5D" d="M228.88,21.845c-0.061,0-0.119-0.034-0.147-0.094
			c-0.042-0.08-0.008-0.179,0.074-0.22c0.319-0.161,0.624-0.192,0.912-0.2c0.455-0.98,1.432-1.611,2.521-1.611
			c1.124,0,2.132,0.672,2.562,1.712c0.036,0.085-0.005,0.184-0.089,0.219c-0.087,0.036-0.184-0.006-0.219-0.09
			c-0.38-0.916-1.266-1.506-2.255-1.506c-0.993,0-1.879,0.59-2.258,1.506l-0.042,0.101h-0.11c-0.352,0.005-0.606,0.033-0.874,0.166
			C228.932,21.839,228.906,21.845,228.88,21.845"/>
	</g>
	<g>
		<defs>
			<path id="SVGID_117_" d="M229.718,21.332c-0.288,0.007-0.592,0.039-0.912,0.198c-0.081,0.041-0.115,0.141-0.072,0.222
				c0.027,0.06,0.086,0.094,0.146,0.094c0.025,0,0.052-0.006,0.076-0.018c0.267-0.133,0.522-0.161,0.874-0.166h0.11l0.041-0.101
				c0.38-0.917,1.266-1.507,2.26-1.507c0.988,0,1.874,0.59,2.255,1.507c0.034,0.083,0.131,0.126,0.219,0.09
				c0.083-0.035,0.124-0.134,0.088-0.218c-0.43-1.041-1.439-1.712-2.562-1.712C231.151,19.721,230.174,20.351,229.718,21.332"/>
		</defs>
		<clipPath id="SVGID_118_">
			<use xlink:href="#SVGID_117_"  overflow="visible"/>
		</clipPath>
		<path clip-path="url(#SVGID_118_)" fill="#5A5B5D" d="M234.649,21.662c-0.064,0-0.126-0.038-0.153-0.102
			c-0.38-0.916-1.266-1.506-2.255-1.506c-0.993,0-1.879,0.59-2.258,1.506c-0.036,0.084-0.132,0.126-0.216,0.09
			c-0.088-0.035-0.128-0.133-0.093-0.217c0.433-1.041,1.438-1.712,2.566-1.712c1.124,0,2.132,0.671,2.562,1.712
			c0.036,0.084-0.005,0.183-0.089,0.217C234.693,21.658,234.67,21.662,234.649,21.662"/>
	</g>
	<g>
		<defs>
			<path id="SVGID_119_" d="M239.127,0.355c-3.917,0-7.673,1.576-10.42,4.372c-2.747,2.797-4.254,6.578-4.184,10.497l0.236,13.245
				c0.068,3.771,1.905,7.293,4.959,9.506l6.737,4.883c1.89,1.369,4.443,1.374,6.337,0.011l6.812-4.902
				c3.069-2.208,4.918-5.732,4.992-9.512l0.235-12.088c0.083-4.217-1.534-8.292-4.488-11.304c-2.953-3.011-6.995-4.708-11.215-4.708
				H239.127z"/>
		</defs>
		<clipPath id="SVGID_120_">
			<use xlink:href="#SVGID_119_"  overflow="visible"/>
		</clipPath>
		<g opacity="0.2" clip-path="url(#SVGID_120_)">
			<g>
				<defs>
					<rect id="SVGID_121_" x="227.405" y="23.209" width="5.962" height="5.964"/>
				</defs>
				<clipPath id="SVGID_122_">
					<use xlink:href="#SVGID_121_"  overflow="visible"/>
				</clipPath>
				<path clip-path="url(#SVGID_122_)" fill="#E58871" d="M233.368,26.19c0,1.647-1.336,2.983-2.981,2.983
					c-1.646,0-2.981-1.336-2.981-2.983c0-1.648,1.335-2.982,2.981-2.982C232.032,23.208,233.368,24.542,233.368,26.19"/>
			</g>
		</g>
		<g opacity="0.2" clip-path="url(#SVGID_120_)">
			<g>
				<defs>
					<rect id="SVGID_123_" x="245.992" y="23.209" width="5.962" height="5.964"/>
				</defs>
				<clipPath id="SVGID_124_">
					<use xlink:href="#SVGID_123_"  overflow="visible"/>
				</clipPath>
				<path clip-path="url(#SVGID_124_)" fill="#E58871" d="M251.954,26.19c0,1.647-1.334,2.983-2.979,2.983
					c-1.648,0-2.982-1.336-2.982-2.983c0-1.648,1.334-2.982,2.982-2.982C250.62,23.208,251.954,24.542,251.954,26.19"/>
			</g>
		</g>
		<path clip-path="url(#SVGID_120_)" fill="#ED877B" d="M241.556,28.955c-1.036,1.036-2.716,1.036-3.752-0.001l-0.743-0.743
			c-0.092-0.092-0.12-0.23-0.069-0.35c0.05-0.121,0.168-0.199,0.298-0.199h4.784c0.13,0,0.247,0.078,0.296,0.199
			c0.052,0.12,0.022,0.258-0.068,0.35L241.556,28.955z"/>
		<g opacity="0.5" clip-path="url(#SVGID_120_)">
			<g>
				<defs>
					<rect id="SVGID_125_" x="238.593" y="26.46" width="2.467" height="1.233"/>
				</defs>
				<clipPath id="SVGID_126_">
					<use xlink:href="#SVGID_125_"  overflow="visible"/>
				</clipPath>
				<path clip-path="url(#SVGID_126_)" fill="#E58871" d="M238.593,27.693c0-0.682,0.553-1.233,1.234-1.233
					c0.681,0,1.232,0.551,1.232,1.233H238.593z"/>
			</g>
		</g>
		<g opacity="0.5" clip-path="url(#SVGID_120_)">
			<g>
				<defs>
					<rect id="SVGID_127_" x="239.936" y="21.515" width="2.353" height="6.562"/>
				</defs>
				<clipPath id="SVGID_128_">
					<use xlink:href="#SVGID_127_"  overflow="visible"/>
				</clipPath>
				<polygon clip-path="url(#SVGID_128_)" fill="#E58871" points="239.936,28.077 239.936,21.515 242.289,27.886 				"/>
			</g>
		</g>
	</g>
	<g>
		<defs>
			<path id="SVGID_129_" d="M236.233,32.836c-0.173,0-0.337,0.084-0.438,0.228c-0.101,0.142-0.126,0.325-0.068,0.489
				c0.454,1.279,2.093,2.228,4.044,2.228c1.952,0,3.59-0.948,4.043-2.228c0.059-0.164,0.033-0.347-0.067-0.489
				c-0.101-0.144-0.265-0.228-0.44-0.228H236.233z"/>
		</defs>
		<clipPath id="SVGID_130_">
			<use xlink:href="#SVGID_129_"  overflow="visible"/>
		</clipPath>
		<path clip-path="url(#SVGID_130_)" fill="#D46A6B" d="M243.306,32.835c0.174,0,0.338,0.084,0.439,0.228
			c0.101,0.143,0.126,0.325,0.067,0.49c-0.453,1.28-2.092,2.228-4.043,2.228s-3.59-0.948-4.043-2.228
			c-0.059-0.165-0.033-0.347,0.067-0.49c0.102-0.144,0.266-0.228,0.439-0.228H243.306z"/>
		<path clip-path="url(#SVGID_130_)" fill="#FFFFFF" d="M243.583,32.326c0,1.005-1.706,1.82-3.81,1.82
			c-2.104,0-3.81-0.815-3.81-1.82c0-1.006,1.705-1.823,3.81-1.823C241.877,30.503,243.583,31.32,243.583,32.326"/>
	</g>
	<g>
		<defs>
			<path id="SVGID_131_" d="M228.381,4.892c-4.185,2.865-5.057,8.14-3.934,15.095c2.845-2.848,4.433-5.926,5.558-11.589
				c5.661,6.244,13.443,10.626,24.461,14.454C258.123,7.926,248.391,0.001,239.197,0C235.061-0.001,231.035,1.602,228.381,4.892"/>
		</defs>
		<clipPath id="SVGID_132_">
			<use xlink:href="#SVGID_131_"  overflow="visible"/>
		</clipPath>
		<path clip-path="url(#SVGID_132_)" fill="#D7D6DE" d="M230.005,8.398c5.661,6.244,13.295,10.998,24.461,14.455
			c5.301-21.64-17.533-28.565-26.085-17.96c-4.185,2.864-5.057,8.085-3.934,15.039C227.292,17.082,228.88,14.061,230.005,8.398"/>
		<path clip-path="url(#SVGID_132_)" fill="#E3E2E8" d="M223.762,12.364c4.811-11.249,30.122,0.334,30.306-10.472l-13.246-7.105
			l-17.909,6.478L223.762,12.364z"/>
	</g>
</g>
</svg>
