<?xml version="1.0" encoding="utf-8"?>
<!-- Generator: Adobe Illustrator 15.1.0, SVG Export Plug-In . SVG Version: 6.00 Build 0)  -->
<!DOCTYPE svg PUBLIC "-//W3C//DTD SVG 1.1//EN" "http://www.w3.org/Graphics/SVG/1.1/DTD/svg11.dtd">
<svg version="1.1" id="Layer_1" xmlns="http://www.w3.org/2000/svg" xmlns:xlink="http://www.w3.org/1999/xlink" x="0px" y="0px"
	 width="84px" height="488.924px" viewBox="0 0 84 488.924" enable-background="new 0 0 84 488.924" xml:space="preserve">
<g>
	<g>
		<path fill="#716F70" d="M83.835,49.859c0,23.105-18.729,41.831-41.834,41.831c-23.106,0-41.836-18.726-41.836-41.831
			c0-23.105,18.73-41.835,41.836-41.835C65.106,8.023,83.835,26.754,83.835,49.859"/>
		<path fill="#585857" d="M0.863,57.467c4.203,22.721,26.028,37.73,48.748,33.53c22.721-4.207,37.728-26.032,33.526-48.75
			C52.263,55.409,29.714,59.648,0.863,57.467"/>
	</g>
	<g>
		<defs>
			<path id="SVGID_1_" d="M7.599,49.859c0,18.997,15.402,34.4,34.4,34.4c19,0,34.402-15.404,34.402-34.4
				c0-19.003-15.402-34.402-34.402-34.402C23.001,15.457,7.599,30.856,7.599,49.859"/>
		</defs>
		<clipPath id="SVGID_2_">
			<use xlink:href="#SVGID_1_"  overflow="visible"/>
		</clipPath>
		<path clip-path="url(#SVGID_2_)" fill="#C4BEBC" d="M76.401,49.859C76.401,68.856,60.999,84.26,42,84.26
			c-18.999,0-34.402-15.404-34.402-34.401c0-19.001,15.404-34.402,34.402-34.402C60.999,15.457,76.401,30.858,76.401,49.859"/>
		<path clip-path="url(#SVGID_2_)" fill="#CBECFC" d="M76.401,49.859C76.401,68.856,60.999,84.26,42,84.26
			c-18.999,0-34.402-15.404-34.402-34.401c0-19.001,15.404-34.402,34.402-34.402C60.999,15.457,76.401,30.858,76.401,49.859"/>
		<path clip-path="url(#SVGID_2_)" fill="#716F70" d="M68.858,85.866H15.143V74.573c0-5.468,4.434-9.902,9.902-9.902h33.911
			c5.47,0,9.902,4.434,9.902,9.902V85.866z"/>
	</g>
	<g>
		<defs>
			<path id="SVGID_3_" d="M29.389,41.191v26.563c0,7.03,5.699,12.729,12.732,12.729c6.944,0,12.575-5.63,12.575-12.577V41.191
				H29.389z"/>
		</defs>
		<clipPath id="SVGID_4_">
			<use xlink:href="#SVGID_3_"  overflow="visible"/>
		</clipPath>
		<path clip-path="url(#SVGID_4_)" fill="#F3B09D" d="M54.696,67.907c0,6.945-5.631,12.577-12.577,12.577
			c-7.031,0-12.73-5.7-12.73-12.73V41.189h25.307V67.907z"/>
		<g opacity="0.4" clip-path="url(#SVGID_4_)">
			<g>
				<defs>
					<rect id="SVGID_5_" x="28.589" y="54.178" width="28.341" height="24.447"/>
				</defs>
				<clipPath id="SVGID_6_">
					<use xlink:href="#SVGID_5_"  overflow="visible"/>
				</clipPath>
				<path clip-path="url(#SVGID_6_)" fill="#E58871" d="M29.203,63.197c11.381,2.819,17.506,6.944,20.734,15.428l6.993-4.17
					l-0.184-20.156l-28.159-0.121L29.203,63.197z"/>
			</g>
		</g>
	</g>
	<g>
		<defs>
			<path id="SVGID_7_" d="M38.245,0c-4.163,0-8.147,1.683-11.05,4.667c-2.901,2.985-4.474,7.013-4.36,11.174l0.946,33.989
				c0.075,2.751,1.491,5.291,3.79,6.804l9.763,6.421c2.812,1.85,6.456,1.848,9.267-0.004l9.795-6.456
				c2.271-1.497,3.684-4.012,3.781-6.732c0.263-7.081,0.778-21.58,1.088-34.059c0.104-4.155-1.471-8.176-4.371-11.152
				C53.994,1.677,50.011,0,45.856,0H38.245z"/>
		</defs>
		<clipPath id="SVGID_8_">
			<use xlink:href="#SVGID_7_"  overflow="visible"/>
		</clipPath>
		<path clip-path="url(#SVGID_8_)" fill="#F3B09D" d="M28.761,29.942c0,3.101-2.512,5.613-5.613,5.613
			c-3.1,0-5.613-2.512-5.613-5.613s2.513-5.613,5.613-5.613C26.249,24.33,28.761,26.841,28.761,29.942"/>
		<g opacity="0.2" clip-path="url(#SVGID_8_)">
			<g>
				<defs>
					<rect id="SVGID_9_" x="19.47" y="26.265" width="7.355" height="7.355"/>
				</defs>
				<clipPath id="SVGID_10_">
					<use xlink:href="#SVGID_9_"  overflow="visible"/>
				</clipPath>
				<path clip-path="url(#SVGID_10_)" fill="#E58871" d="M26.825,29.942c0,2.032-1.646,3.678-3.678,3.678
					c-2.03,0-3.677-1.646-3.677-3.678s1.647-3.678,3.677-3.678C25.179,26.265,26.825,27.911,26.825,29.942"/>
			</g>
		</g>
		<path clip-path="url(#SVGID_8_)" fill="#F3B09D" d="M66.466,29.942c0,3.101-2.514,5.613-5.615,5.613
			c-3.1,0-5.611-2.512-5.611-5.613s2.512-5.613,5.611-5.613C63.952,24.33,66.466,26.841,66.466,29.942"/>
		<g opacity="0.2" clip-path="url(#SVGID_8_)">
			<g>
				<defs>
					<rect id="SVGID_11_" x="57.175" y="26.265" width="7.355" height="7.355"/>
				</defs>
				<clipPath id="SVGID_12_">
					<use xlink:href="#SVGID_11_"  overflow="visible"/>
				</clipPath>
				<path clip-path="url(#SVGID_12_)" fill="#E58871" d="M64.53,29.942c0,2.032-1.647,3.678-3.68,3.678
					c-2.03,0-3.676-1.646-3.676-3.678s1.646-3.678,3.676-3.678C62.883,26.265,64.53,27.911,64.53,29.942"/>
			</g>
		</g>
		<path clip-path="url(#SVGID_8_)" fill="#F3B09D" d="M61.606,57.766c0,2.384-1.933,4.315-4.315,9.746H26.906
			c-2.444-5.431-4.426-7.411-4.426-9.857V15.393c0-8.514,6.902-15.415,15.414-15.415h8.298c8.514,0,15.415,6.9,15.415,15.415V57.766
			z"/>
		<g opacity="0.5" clip-path="url(#SVGID_8_)">
			<g>
				<defs>
					<rect id="SVGID_13_" x="22.646" y="20.62" width="38.794" height="6.827"/>
				</defs>
				<clipPath id="SVGID_14_">
					<use xlink:href="#SVGID_13_"  overflow="visible"/>
				</clipPath>
				<path clip-path="url(#SVGID_14_)" fill="#E58871" d="M61.44,27.447c0-3.77-3.057-6.826-6.826-6.826H29.472
					c-3.77,0-6.825,3.056-6.825,6.826H61.44z"/>
			</g>
		</g>
		<g opacity="0.2" clip-path="url(#SVGID_8_)">
			<g>
				<defs>
					<rect id="SVGID_15_" x="29.308" y="7.878" width="25.472" height="12.735"/>
				</defs>
				<clipPath id="SVGID_16_">
					<use xlink:href="#SVGID_15_"  overflow="visible"/>
				</clipPath>
				<path clip-path="url(#SVGID_16_)" fill="#E58871" d="M29.308,20.612c0-7.033,5.702-12.735,12.736-12.735
					s12.735,5.702,12.735,12.735"/>
			</g>
		</g>
		<g opacity="0.5" clip-path="url(#SVGID_8_)">
			<g>
				<defs>
					<rect id="SVGID_17_" x="42.044" y="22.756" width="5.37" height="11.183"/>
				</defs>
				<clipPath id="SVGID_18_">
					<use xlink:href="#SVGID_17_"  overflow="visible"/>
				</clipPath>
				<polygon clip-path="url(#SVGID_18_)" fill="#E58871" points="42.044,33.94 42.044,22.756 47.414,33.503 				"/>
			</g>
		</g>
		<path clip-path="url(#SVGID_8_)" fill="#ED877B" d="M45.792,35.686c-0.995,0.994-2.342,1.552-3.747,1.552
			c-1.407,0-2.755-0.558-3.749-1.552l-1.484-1.485c-0.183-0.184-0.238-0.461-0.139-0.701c0.1-0.239,0.334-0.396,0.593-0.396h9.556
			c0.26,0,0.494,0.157,0.593,0.396c0.1,0.24,0.045,0.517-0.139,0.701L45.792,35.686z"/>
		<g opacity="0.5" clip-path="url(#SVGID_8_)">
			<g>
				<defs>
					<rect id="SVGID_19_" x="40.323" y="31.375" width="3.441" height="1.72"/>
				</defs>
				<clipPath id="SVGID_20_">
					<use xlink:href="#SVGID_19_"  overflow="visible"/>
				</clipPath>
				<path clip-path="url(#SVGID_20_)" fill="#E58871" d="M40.323,33.094c0-0.95,0.77-1.72,1.722-1.72c0.949,0,1.72,0.77,1.72,1.72
					H40.323z"/>
			</g>
		</g>
		<g opacity="0.2" clip-path="url(#SVGID_8_)">
			<g>
				<defs>
					<rect id="SVGID_21_" x="17.846" y="30.214" width="48.62" height="39.043"/>
				</defs>
				<clipPath id="SVGID_22_">
					<use xlink:href="#SVGID_21_"  overflow="visible"/>
				</clipPath>
				<path clip-path="url(#SVGID_22_)" fill="#E58871" d="M66.466,62.961l-2.4-32.749L51.771,32.74
					c-0.326,0.068-0.61,0.265-0.787,0.548c-0.176,0.283-0.227,0.625-0.141,0.948l2.229,8.436c0.462,1.75,0.695,3.553,0.695,5.363
					v0.008c0,1.572-0.519,3.09-1.478,4.337c-2.328,3.021-5.981,4.968-10.091,4.968c-4.317,0-8.129-2.147-10.432-5.432
					c-0.795-1.136-1.226-2.489-1.226-3.875v-0.007c0-1.81,0.235-3.613,0.697-5.363l2.228-8.436c0.086-0.323,0.035-0.665-0.14-0.948
					c-0.176-0.283-0.461-0.48-0.786-0.548l-12.295-2.527l-2.401,32.749h9.96l-0.256,6.297c0,0,32.129-0.774,32.051-1.006
					c-0.004-0.019,0.089-5.059,0.027-5.291H66.466z"/>
			</g>
		</g>
		<path clip-path="url(#SVGID_8_)" fill="#D46A6B" d="M34.112,43.183c0,2.994,3.152,7.045,8.153,7.045
			c5.183,0,8.156-4.051,8.156-7.045H34.112z"/>
	</g>
	<g>
		<defs>
			<path id="SVGID_23_" d="M34.111,43.182c0,2.994,3.153,7.045,8.156,7.045c5.18,0,8.154-4.052,8.154-7.045H34.111z"/>
		</defs>
		<clipPath id="SVGID_24_">
			<use xlink:href="#SVGID_23_"  overflow="visible"/>
		</clipPath>
		<g opacity="0.3" clip-path="url(#SVGID_24_)">
			<g>
				<defs>
					<rect id="SVGID_25_" x="34.677" y="46.397" width="14.798" height="14.796"/>
				</defs>
				<clipPath id="SVGID_26_">
					<use xlink:href="#SVGID_25_"  overflow="visible"/>
				</clipPath>
				<path clip-path="url(#SVGID_26_)" fill="#95494A" d="M34.677,53.794c0-4.085,3.312-7.397,7.399-7.397
					c4.086,0,7.399,3.312,7.399,7.397c0,4.087-3.313,7.399-7.399,7.399C37.989,61.194,34.677,57.882,34.677,53.794"/>
			</g>
		</g>
		<path clip-path="url(#SVGID_24_)" fill="#FFFFFF" d="M49.807,41.855c0,1.658-3.293,3.002-7.354,3.002
			c-4.059,0-7.352-1.344-7.352-3.002c0-1.66,3.292-3.003,7.352-3.003C46.514,38.852,49.807,40.195,49.807,41.855"/>
	</g>
	<g>
		<defs>
			<path id="SVGID_27_" d="M38.245,0c-4.163,0-8.147,1.683-11.05,4.667c-2.901,2.985-4.474,7.013-4.36,11.174l0.946,33.989
				c0.075,2.751,1.491,5.291,3.79,6.804l9.763,6.421c2.812,1.85,6.456,1.848,9.267-0.004l9.795-6.456
				c2.271-1.497,3.684-4.012,3.781-6.732c0.263-7.081,0.778-21.58,1.088-34.059c0.104-4.155-1.471-8.176-4.371-11.152
				C53.994,1.677,50.011,0,45.856,0H38.245z"/>
		</defs>
		<clipPath id="SVGID_28_">
			<use xlink:href="#SVGID_27_"  overflow="visible"/>
		</clipPath>
		
			<path clip-path="url(#SVGID_28_)" fill="none" stroke="#5A5B5D" stroke-width="0.308" stroke-linecap="round" stroke-miterlimit="10" d="
			M48.045,24.956c2.168-1.371,5.398-0.813,6.468,0.635"/>
		
			<path clip-path="url(#SVGID_28_)" fill="none" stroke="#5A5B5D" stroke-width="0.308" stroke-linecap="round" stroke-miterlimit="10" d="
			M36.042,24.956c-2.167-1.371-5.399-0.813-6.468,0.635"/>
		
			<line clip-path="url(#SVGID_28_)" fill="none" stroke="#58473A" stroke-width="0.617" stroke-linecap="round" stroke-miterlimit="10" x1="26.382" y1="18.68" x2="35.73" y2="17.112"/>
		
			<line clip-path="url(#SVGID_28_)" fill="none" stroke="#58473A" stroke-width="0.617" stroke-linecap="round" stroke-miterlimit="10" x1="56.724" y1="18.238" x2="47.255" y2="17.824"/>
	</g>
	<g>
		<path fill="#716F70" d="M83.83,247.028c0,23.105-18.729,41.832-41.834,41.832S0.159,270.134,0.159,247.028
			c0-23.105,18.732-41.835,41.837-41.835S83.83,223.923,83.83,247.028"/>
		<path fill="#585857" d="M0.858,254.637c4.204,22.721,26.029,37.729,48.749,33.529c22.722-4.206,37.729-26.032,33.526-48.75
			C52.258,252.579,29.707,256.819,0.858,254.637"/>
		<path fill="#CBECFC" d="M76.397,247.028c0,18.997-15.403,34.4-34.403,34.4c-18.999,0-34.401-15.403-34.401-34.4
			c0-19.001,15.402-34.402,34.401-34.402C60.994,212.626,76.397,228.027,76.397,247.028"/>
	</g>
	<g>
		<defs>
			<path id="SVGID_29_" d="M7.593,247.028c0,18.997,15.404,34.4,34.403,34.4c18.998,0,34.402-15.403,34.402-34.4
				c0-19.001-15.404-34.401-34.402-34.401C22.997,212.627,7.593,228.027,7.593,247.028"/>
		</defs>
		<clipPath id="SVGID_30_">
			<use xlink:href="#SVGID_29_"  overflow="visible"/>
		</clipPath>
		<path clip-path="url(#SVGID_30_)" fill="#C4BEBC" d="M76.397,247.028c0,18.997-15.403,34.4-34.403,34.4
			c-18.999,0-34.401-15.403-34.401-34.4c0-19.001,15.402-34.402,34.401-34.402C60.994,212.626,76.397,228.027,76.397,247.028"/>
		<path clip-path="url(#SVGID_30_)" fill="#CBECFC" d="M76.397,247.028c0,18.997-15.403,34.4-34.403,34.4
			c-18.999,0-34.401-15.403-34.401-34.4c0-19.001,15.402-34.402,34.401-34.402C60.994,212.626,76.397,228.027,76.397,247.028"/>
		<path clip-path="url(#SVGID_30_)" fill="#716F70" d="M68.854,283.036H15.139v-11.294c0-5.468,4.434-9.902,9.902-9.902h33.91
			c5.47,0,9.902,4.435,9.902,9.902V283.036z"/>
	</g>
	<g>
		<defs>
			<path id="SVGID_31_" d="M29.385,238.358v26.564c0,7.029,5.702,12.729,12.729,12.729c6.946,0,12.578-5.63,12.578-12.576v-26.717
				H29.385z"/>
		</defs>
		<clipPath id="SVGID_32_">
			<use xlink:href="#SVGID_31_"  overflow="visible"/>
		</clipPath>
		<path clip-path="url(#SVGID_32_)" fill="#F3B09D" d="M54.692,265.075c0,6.946-5.632,12.576-12.576,12.576
			c-7.031,0-12.731-5.699-12.731-12.729v-26.564h25.308V265.075z"/>
		<g opacity="0.4" clip-path="url(#SVGID_32_)">
			<g>
				<defs>
					<rect id="SVGID_33_" x="28.584" y="252.664" width="28.343" height="23.13"/>
				</defs>
				<clipPath id="SVGID_34_">
					<use xlink:href="#SVGID_33_"  overflow="visible"/>
				</clipPath>
				<path clip-path="url(#SVGID_34_)" fill="#E58871" d="M29.197,260.366c11.381,2.819,17.508,6.945,20.735,15.428l6.994-4.171
					l-0.185-18.837l-28.158-0.122L29.197,260.366z"/>
			</g>
		</g>
	</g>
	<g>
		<path fill="#F3B09D" d="M28.756,227.112c0,3.101-2.512,5.613-5.615,5.613c-3.1,0-5.611-2.512-5.611-5.613s2.512-5.613,5.611-5.613
			C26.244,221.499,28.756,224.011,28.756,227.112"/>
		<g opacity="0.2">
			<g>
				<defs>
					<rect id="SVGID_35_" x="19.465" y="223.434" width="7.355" height="7.357"/>
				</defs>
				<clipPath id="SVGID_36_">
					<use xlink:href="#SVGID_35_"  overflow="visible"/>
				</clipPath>
				<path clip-path="url(#SVGID_36_)" fill="#E58871" d="M26.82,227.112c0,2.032-1.646,3.678-3.677,3.678
					c-2.03,0-3.678-1.646-3.678-3.678s1.647-3.677,3.678-3.677C25.174,223.435,26.82,225.08,26.82,227.112"/>
			</g>
		</g>
		<path fill="#F3B09D" d="M66.461,227.112c0,3.101-2.514,5.613-5.615,5.613c-3.099,0-5.61-2.512-5.61-5.613s2.512-5.613,5.61-5.613
			C63.947,221.499,66.461,224.011,66.461,227.112"/>
		<g opacity="0.2">
			<g>
				<defs>
					<rect id="SVGID_37_" x="57.171" y="223.434" width="7.354" height="7.357"/>
				</defs>
				<clipPath id="SVGID_38_">
					<use xlink:href="#SVGID_37_"  overflow="visible"/>
				</clipPath>
				<path clip-path="url(#SVGID_38_)" fill="#E58871" d="M64.525,227.112c0,2.032-1.647,3.678-3.68,3.678
					c-2.029,0-3.675-1.646-3.675-3.678s1.646-3.677,3.675-3.677C62.878,223.435,64.525,225.08,64.525,227.112"/>
			</g>
		</g>
	</g>
	<g>
		<defs>
			<path id="SVGID_39_" d="M38.255,197.149c-4.163,0-8.147,1.684-11.051,4.667c-2.902,2.983-4.475,7.014-4.357,11.174l0.943,33.988
				c0.076,2.752,1.492,5.293,3.792,6.805l9.76,6.423c2.812,1.851,6.456,1.849,9.268-0.005l9.795-6.457
				c2.271-1.496,3.683-4.013,3.783-6.73c0.262-7.083,0.776-21.58,1.087-34.059c0.103-4.156-1.471-8.175-4.371-11.151
				c-2.901-2.976-6.882-4.654-11.038-4.654H38.255z"/>
		</defs>
		<clipPath id="SVGID_40_">
			<use xlink:href="#SVGID_39_"  overflow="visible"/>
		</clipPath>
		<path clip-path="url(#SVGID_40_)" fill="#F3B09D" d="M61.602,254.935c0,2.385-1.933,4.315-4.314,9.745H26.902
			c-2.444-5.43-4.426-7.411-4.426-9.856v-42.262c0-8.513,6.902-15.414,15.414-15.414h8.298c8.512,0,15.414,6.901,15.414,15.414
			V254.935z"/>
		<g opacity="0.5" clip-path="url(#SVGID_40_)">
			<g>
				<defs>
					<rect id="SVGID_41_" x="22.642" y="217.923" width="38.794" height="6.826"/>
				</defs>
				<clipPath id="SVGID_42_">
					<use xlink:href="#SVGID_41_"  overflow="visible"/>
				</clipPath>
				<path clip-path="url(#SVGID_42_)" fill="#E58871" d="M61.436,224.749c0-3.77-3.057-6.826-6.825-6.826H29.467
					c-3.77,0-6.825,3.056-6.825,6.826H61.436z"/>
			</g>
		</g>
		<g opacity="0.2" clip-path="url(#SVGID_40_)">
			<g>
				<defs>
					<rect id="SVGID_43_" x="29.303" y="205.179" width="25.471" height="12.735"/>
				</defs>
				<clipPath id="SVGID_44_">
					<use xlink:href="#SVGID_43_"  overflow="visible"/>
				</clipPath>
				<path clip-path="url(#SVGID_44_)" fill="#E58871" d="M29.303,217.914c0-7.033,5.701-12.735,12.736-12.735
					c7.035,0,12.735,5.702,12.735,12.735"/>
			</g>
		</g>
		<g opacity="0.5" clip-path="url(#SVGID_40_)">
			<g>
				<defs>
					<rect id="SVGID_45_" x="42.04" y="221.298" width="5.37" height="6.986"/>
				</defs>
				<clipPath id="SVGID_46_">
					<use xlink:href="#SVGID_45_"  overflow="visible"/>
				</clipPath>
				<polygon clip-path="url(#SVGID_46_)" fill="#E58871" points="42.04,228.284 42.04,221.297 47.409,228.01 				"/>
			</g>
		</g>
		<path clip-path="url(#SVGID_40_)" fill="#ED877B" d="M45.787,230.03c-0.994,0.994-2.342,1.552-3.747,1.552
			c-1.407,0-2.755-0.558-3.749-1.552l-1.484-1.485c-0.183-0.184-0.238-0.461-0.139-0.701c0.099-0.239,0.334-0.396,0.593-0.396h9.555
			c0.261,0,0.494,0.157,0.595,0.396c0.099,0.24,0.044,0.517-0.14,0.701L45.787,230.03z"/>
		<g opacity="0.5" clip-path="url(#SVGID_40_)">
			<g>
				<defs>
					<rect id="SVGID_47_" x="40.319" y="225.72" width="3.442" height="1.719"/>
				</defs>
				<clipPath id="SVGID_48_">
					<use xlink:href="#SVGID_47_"  overflow="visible"/>
				</clipPath>
				<path clip-path="url(#SVGID_48_)" fill="#E58871" d="M40.319,227.438c0-0.95,0.769-1.72,1.722-1.72c0.95,0,1.72,0.77,1.72,1.72
					H40.319z"/>
			</g>
		</g>
		<g opacity="0.2" clip-path="url(#SVGID_40_)">
			<g>
				<defs>
					<rect id="SVGID_49_" x="17.841" y="227.382" width="48.62" height="39.044"/>
				</defs>
				<clipPath id="SVGID_50_">
					<use xlink:href="#SVGID_49_"  overflow="visible"/>
				</clipPath>
				<path clip-path="url(#SVGID_50_)" fill="#E58871" d="M66.461,260.131l-2.4-32.749l-12.294,2.528
					c-0.326,0.067-0.61,0.265-0.785,0.548c-0.176,0.283-0.227,0.625-0.143,0.947l2.229,8.437c0.463,1.75,0.697,3.552,0.697,5.363
					c0,1.567-0.517,3.091-1.471,4.332c-2.327,3.028-5.983,4.981-10.099,4.981c-4.329,0-8.15-2.16-10.451-5.462
					c-0.783-1.122-1.207-2.461-1.207-3.83v-0.021c0-1.811,0.235-3.613,0.697-5.363l2.228-8.437c0.086-0.322,0.035-0.664-0.14-0.947
					c-0.176-0.283-0.461-0.48-0.786-0.548l-12.295-2.528l-2.401,32.749h9.96l-0.256,6.296c0,0,32.129-0.773,32.051-1.006
					c-0.005-0.018,0.088-5.058,0.026-5.29H66.461z"/>
			</g>
		</g>
		
			<line clip-path="url(#SVGID_40_)" fill="none" stroke="#58473A" stroke-width="0.617" stroke-linecap="round" stroke-miterlimit="10" x1="26.168" y1="214.515" x2="35.44" y2="216.484"/>
		
			<line clip-path="url(#SVGID_40_)" fill="none" stroke="#58473A" stroke-width="0.617" stroke-linecap="round" stroke-miterlimit="10" x1="58.588" y1="214.27" x2="49.29" y2="216.104"/>
		<path clip-path="url(#SVGID_40_)" fill="#D4696B" d="M29.952,238.005c0,0,0.312-0.249,0.881-0.646
			c0.312-0.157,0.692-0.366,1.149-0.566c0.46-0.16,0.977-0.374,1.554-0.545c0.584-0.142,1.211-0.348,1.888-0.47
			c0.675-0.141,1.389-0.292,2.133-0.396c1.485-0.253,3.08-0.411,4.682-0.541c0.802-0.048,1.605-0.056,2.396-0.083
			c0.791,0.014,1.569,0.037,2.323,0.089c1.509,0.087,2.914,0.297,4.1,0.616c0.591,0.145,1.129,0.337,1.593,0.529
			c0.47,0.152,0.85,0.435,1.158,0.602c0.316,0.166,0.514,0.416,0.65,0.538c0.131,0.134,0.201,0.207,0.201,0.207
			s-0.097-0.036-0.277-0.104c-0.194-0.042-0.395-0.208-0.747-0.252c-0.349-0.049-0.723-0.172-1.205-0.21
			c-0.475-0.047-0.986-0.148-1.578-0.168c-0.575-0.073-1.207-0.095-1.875-0.143c-0.669-0.039-1.374-0.082-2.104-0.125
			c-1.463-0.054-3.027-0.107-4.597-0.113c-3.138-0.054-6.293,0.149-8.608,0.581c-0.582,0.095-1.099,0.236-1.571,0.333
			c-0.452,0.145-0.846,0.271-1.171,0.374C30.301,237.812,29.952,238.005,29.952,238.005"/>
		<path clip-path="url(#SVGID_40_)" d="M33.237,221.51c0,1.118-0.907,2.024-2.024,2.024c-1.117,0-2.023-0.906-2.023-2.024
			c0-1.118,0.907-2.024,2.023-2.024C32.331,219.485,33.237,220.392,33.237,221.51"/>
		
			<circle clip-path="url(#SVGID_40_)" fill="none" stroke="#FFFFFF" stroke-width="0.25" stroke-miterlimit="10" cx="31.213" cy="221.51" r="2.024"/>
		<path clip-path="url(#SVGID_40_)" d="M54.887,221.51c0,1.118-0.906,2.024-2.024,2.024c-1.117,0-2.024-0.906-2.024-2.024
			c0-1.118,0.907-2.024,2.024-2.024C53.98,219.485,54.887,220.392,54.887,221.51"/>
		
			<circle clip-path="url(#SVGID_40_)" fill="none" stroke="#FFFFFF" stroke-width="0.25" stroke-miterlimit="10" cx="52.862" cy="221.51" r="2.024"/>
	</g>
	<g>
		<path fill="#716F70" d="M83.739,346.968c0,23.105-18.729,41.832-41.835,41.832c-23.104,0-41.836-18.727-41.836-41.832
			c0-23.104,18.731-41.836,41.836-41.836C65.011,305.132,83.739,323.863,83.739,346.968"/>
		<path fill="#585857" d="M0.767,354.576c4.203,22.721,26.029,37.729,48.749,33.529c22.721-4.206,37.729-26.03,33.526-48.748
			C52.167,352.519,29.617,356.759,0.767,354.576"/>
	</g>
	<g>
		<defs>
			<path id="SVGID_51_" d="M7.503,346.968c0,18.998,15.4,34.4,34.4,34.4c19,0,34.402-15.402,34.402-34.4
				c0-19.001-15.401-34.402-34.402-34.402C22.903,312.565,7.503,327.967,7.503,346.968"/>
		</defs>
		<clipPath id="SVGID_52_">
			<use xlink:href="#SVGID_51_"  overflow="visible"/>
		</clipPath>
		<path clip-path="url(#SVGID_52_)" fill="#C4BEBC" d="M76.306,346.968c0,18.998-15.402,34.4-34.401,34.4
			c-19,0-34.402-15.402-34.402-34.4c0-19.001,15.402-34.401,34.402-34.401C60.903,312.566,76.306,327.967,76.306,346.968"/>
		<path clip-path="url(#SVGID_52_)" fill="#CBECFC" d="M76.306,346.968c0,18.998-15.402,34.4-34.401,34.4
			c-19,0-34.402-15.402-34.402-34.4c0-19.001,15.402-34.401,34.402-34.401C60.903,312.566,76.306,327.967,76.306,346.968"/>
		<path clip-path="url(#SVGID_52_)" fill="#716F70" d="M68.763,382.976H15.048v-11.294c0-5.469,4.433-9.902,9.902-9.902h33.91
			c5.47,0,9.902,4.434,9.902,9.902V382.976z"/>
	</g>
	<g>
		<defs>
			<path id="SVGID_53_" d="M29.294,338.3v26.562c0,7.031,5.699,12.73,12.729,12.73c6.946,0,12.578-5.631,12.578-12.577V338.3H29.294
				z"/>
		</defs>
		<clipPath id="SVGID_54_">
			<use xlink:href="#SVGID_53_"  overflow="visible"/>
		</clipPath>
		<path clip-path="url(#SVGID_54_)" fill="#F3B09D" d="M54.602,365.016c0,6.946-5.632,12.577-12.579,12.577
			c-7.03,0-12.729-5.699-12.729-12.73V338.3h25.308V365.016z"/>
		<g opacity="0.4" clip-path="url(#SVGID_54_)">
			<g>
				<defs>
					<rect id="SVGID_55_" x="28.493" y="351.929" width="28.342" height="23.805"/>
				</defs>
				<clipPath id="SVGID_56_">
					<use xlink:href="#SVGID_55_"  overflow="visible"/>
				</clipPath>
				<path clip-path="url(#SVGID_56_)" fill="#E58871" d="M29.107,360.306c11.381,2.819,17.506,6.945,20.735,15.428l6.993-4.171
					l-0.184-19.512l-28.159-0.122L29.107,360.306z"/>
			</g>
		</g>
	</g>
	<g>
		<path fill="#F3B09D" d="M28.664,327.052c0,3.101-2.512,5.612-5.613,5.612c-3.1,0-5.613-2.512-5.613-5.612s2.513-5.612,5.613-5.612
			C26.152,321.439,28.664,323.951,28.664,327.052"/>
		<g opacity="0.2">
			<g>
				<defs>
					<rect id="SVGID_57_" x="19.374" y="323.373" width="7.355" height="7.356"/>
				</defs>
				<clipPath id="SVGID_58_">
					<use xlink:href="#SVGID_57_"  overflow="visible"/>
				</clipPath>
				<path clip-path="url(#SVGID_58_)" fill="#E58871" d="M26.729,327.052c0,2.031-1.646,3.678-3.678,3.678
					c-2.03,0-3.678-1.646-3.678-3.678s1.648-3.679,3.678-3.679C25.083,323.373,26.729,325.021,26.729,327.052"/>
			</g>
		</g>
		<path fill="#F3B09D" d="M66.37,327.052c0,3.101-2.514,5.612-5.617,5.612c-3.097,0-5.609-2.512-5.609-5.612
			s2.513-5.612,5.609-5.612C63.856,321.439,66.37,323.951,66.37,327.052"/>
		<g opacity="0.2">
			<g>
				<defs>
					<rect id="SVGID_59_" x="57.079" y="323.373" width="7.355" height="7.356"/>
				</defs>
				<clipPath id="SVGID_60_">
					<use xlink:href="#SVGID_59_"  overflow="visible"/>
				</clipPath>
				<path clip-path="url(#SVGID_60_)" fill="#E58871" d="M64.435,327.052c0,2.031-1.647,3.678-3.68,3.678
					c-2.03,0-3.676-1.646-3.676-3.678s1.646-3.679,3.676-3.679C62.787,323.373,64.435,325.021,64.435,327.052"/>
			</g>
		</g>
	</g>
	<g>
		<defs>
			<path id="SVGID_61_" d="M38.082,297.127c-4.162,0-8.146,1.683-11.049,4.667c-2.902,2.983-4.474,7.017-4.359,11.176l0.944,33.988
				c0.077,2.748,1.491,5.291,3.792,6.804l9.76,6.421c2.812,1.852,6.457,1.85,9.268-0.003l9.794-6.458
				c2.273-1.497,3.684-4.011,3.784-6.73c0.262-7.083,0.776-21.581,1.087-34.06c0.103-4.155-1.471-8.175-4.371-11.151
				c-2.902-2.976-6.882-4.653-11.036-4.653H38.082z"/>
		</defs>
		<clipPath id="SVGID_62_">
			<use xlink:href="#SVGID_61_"  overflow="visible"/>
		</clipPath>
		<path clip-path="url(#SVGID_62_)" fill="#F3B09D" d="M61.511,354.875c0,2.384-1.933,4.314-4.315,9.745H26.811
			c-2.444-5.431-4.426-7.411-4.426-9.857v-42.261c0-8.514,6.902-15.415,15.414-15.415h8.297c8.513,0,15.415,6.901,15.415,15.415
			V354.875z"/>
		<g opacity="0.5" clip-path="url(#SVGID_62_)">
			<g>
				<defs>
					<rect id="SVGID_63_" x="22.55" y="317.862" width="38.794" height="6.826"/>
				</defs>
				<clipPath id="SVGID_64_">
					<use xlink:href="#SVGID_63_"  overflow="visible"/>
				</clipPath>
				<path clip-path="url(#SVGID_64_)" fill="#E58871" d="M61.345,324.688c0-3.77-3.057-6.826-6.826-6.826H29.376
					c-3.77,0-6.825,3.057-6.825,6.826H61.345z"/>
			</g>
		</g>
		<g opacity="0.2" clip-path="url(#SVGID_62_)">
			<g>
				<defs>
					<rect id="SVGID_65_" x="29.211" y="305.119" width="25.472" height="12.734"/>
				</defs>
				<clipPath id="SVGID_66_">
					<use xlink:href="#SVGID_65_"  overflow="visible"/>
				</clipPath>
				<path clip-path="url(#SVGID_66_)" fill="#E58871" d="M29.211,317.854c0-7.033,5.702-12.734,12.736-12.734
					c7.036,0,12.736,5.701,12.736,12.734"/>
			</g>
		</g>
		<g opacity="0.5" clip-path="url(#SVGID_62_)">
			<g>
				<defs>
					<rect id="SVGID_67_" x="41.948" y="319.998" width="5.371" height="11.184"/>
				</defs>
				<clipPath id="SVGID_68_">
					<use xlink:href="#SVGID_67_"  overflow="visible"/>
				</clipPath>
				<polygon clip-path="url(#SVGID_68_)" fill="#E58871" points="41.948,331.182 41.948,319.998 47.318,330.744 				"/>
			</g>
		</g>
		<path clip-path="url(#SVGID_62_)" fill="#ED877B" d="M45.696,332.927c-0.994,0.994-2.342,1.554-3.747,1.554
			c-1.407,0-2.754-0.56-3.749-1.554l-1.484-1.485c-0.183-0.182-0.238-0.459-0.139-0.698c0.1-0.241,0.334-0.397,0.594-0.397h9.555
			c0.26,0,0.494,0.156,0.594,0.397c0.099,0.239,0.044,0.515-0.14,0.698L45.696,332.927z"/>
		<g opacity="0.5" clip-path="url(#SVGID_62_)">
			<g>
				<defs>
					<rect id="SVGID_69_" x="40.227" y="328.616" width="3.442" height="1.72"/>
				</defs>
				<clipPath id="SVGID_70_">
					<use xlink:href="#SVGID_69_"  overflow="visible"/>
				</clipPath>
				<path clip-path="url(#SVGID_70_)" fill="#E58871" d="M40.227,330.336c0-0.95,0.769-1.72,1.722-1.72c0.949,0,1.72,0.77,1.72,1.72
					H40.227z"/>
			</g>
		</g>
		<g opacity="0.2" clip-path="url(#SVGID_62_)">
			<g>
				<defs>
					<rect id="SVGID_71_" x="17.75" y="327.322" width="48.62" height="39.045"/>
				</defs>
				<clipPath id="SVGID_72_">
					<use xlink:href="#SVGID_71_"  overflow="visible"/>
				</clipPath>
				<path clip-path="url(#SVGID_72_)" fill="#E58871" d="M66.37,360.07l-2.4-32.748l-12.294,2.528
					c-0.326,0.066-0.61,0.265-0.785,0.547c-0.178,0.284-0.227,0.627-0.143,0.948l2.228,8.437c0.464,1.75,0.697,3.552,0.697,5.362
					v0.007c0,1.572-0.519,3.092-1.479,4.338c-2.326,3.021-5.979,4.969-10.089,4.969c-4.317,0-8.129-2.148-10.432-5.433
					c-0.795-1.135-1.226-2.489-1.226-3.875v-0.006c0-1.811,0.233-3.613,0.696-5.364l2.229-8.435c0.086-0.321,0.035-0.664-0.14-0.948
					c-0.176-0.282-0.461-0.48-0.786-0.547l-12.295-2.528L17.75,360.07h9.959l-0.256,6.297c0,0,32.129-0.774,32.052-1.006
					c-0.006-0.019,0.088-5.059,0.026-5.291H66.37z"/>
			</g>
		</g>
		
			<line clip-path="url(#SVGID_62_)" fill="none" stroke="#58473A" stroke-width="0.617" stroke-linecap="round" stroke-miterlimit="10" x1="26.458" y1="314.917" x2="35.923" y2="314.436"/>
		
			<line clip-path="url(#SVGID_62_)" fill="none" stroke="#58473A" stroke-width="0.617" stroke-linecap="round" stroke-miterlimit="10" x1="58.393" y1="314.339" x2="48.921" y2="314.005"/>
		<path clip-path="url(#SVGID_62_)" fill="#D4696B" d="M54.673,338.632c0,0-0.291,0.287-0.819,0.759
			c-0.259,0.241-0.64,0.47-1.067,0.755c-0.433,0.296-0.944,0.512-1.502,0.814c-1.144,0.479-2.523,0.976-4.041,1.311
			c-1.515,0.377-3.157,0.615-4.815,0.791c-0.829,0.057-1.66,0.109-2.477,0.075c-0.818-0.009-1.623-0.084-2.395-0.181
			c-1.551-0.181-2.971-0.567-4.145-1.035c-0.58-0.27-1.114-0.471-1.557-0.767c-0.45-0.267-0.831-0.5-1.125-0.749
			c-0.592-0.48-0.884-0.807-0.884-0.807s0.458-0.049,1.18-0.041c0.354,0.021,0.805-0.02,1.286,0.007
			c0.482,0.012,1.026,0.026,1.62,0.04c0.573,0.073,1.223,0.036,1.875,0.114c0.664,0.035,1.358,0.113,2.077,0.171
			c1.443,0.111,2.982,0.23,4.521,0.35c1.544,0.122,3.107,0.188,4.561,0.099c1.462-0.053,2.808-0.25,3.954-0.488
			c0.558-0.138,1.115-0.221,1.549-0.378c0.438-0.163,0.856-0.247,1.182-0.396C54.294,338.782,54.673,338.632,54.673,338.632"/>
		<path clip-path="url(#SVGID_62_)" d="M31.123,323.285c-1.012,0-1.836-0.823-1.836-1.836c0-1.012,0.824-1.837,1.836-1.837
			s1.835,0.825,1.835,1.837C32.958,322.462,32.134,323.285,31.123,323.285"/>
		<path clip-path="url(#SVGID_62_)" fill="#FFFFFF" d="M31.123,319.803c0.908,0,1.647,0.738,1.647,1.646
			c0,0.909-0.739,1.649-1.647,1.649s-1.648-0.74-1.648-1.649C29.475,320.541,30.214,319.803,31.123,319.803 M31.123,319.426
			c-1.118,0-2.024,0.906-2.024,2.023c0,1.118,0.907,2.025,2.024,2.025s2.024-0.907,2.024-2.025
			C33.146,320.332,32.24,319.426,31.123,319.426"/>
		<path clip-path="url(#SVGID_62_)" d="M52.771,323.285c-1.012,0-1.835-0.823-1.835-1.836c0-1.012,0.823-1.837,1.835-1.837
			s1.836,0.825,1.836,1.837C54.607,322.462,53.783,323.285,52.771,323.285"/>
		<path clip-path="url(#SVGID_62_)" fill="#FFFFFF" d="M52.771,319.803c0.909,0,1.647,0.738,1.647,1.646
			c0,0.909-0.738,1.649-1.647,1.649c-0.91,0-1.647-0.74-1.647-1.649C51.124,320.541,51.861,319.803,52.771,319.803 M52.771,319.426
			c-1.118,0-2.023,0.906-2.023,2.023c0,1.118,0.905,2.025,2.023,2.025s2.023-0.907,2.023-2.025
			C54.795,320.332,53.89,319.426,52.771,319.426"/>
	</g>
	<g>
		<path fill="#716F70" d="M83.671,148.615c0,23.105-18.728,41.831-41.833,41.831C18.732,190.445,0,171.72,0,148.615
			s18.732-41.835,41.837-41.835C64.943,106.779,83.671,125.51,83.671,148.615"/>
		<path fill="#585857" d="M0.699,156.223c4.204,22.721,26.029,37.729,48.748,33.529c22.722-4.207,37.729-26.03,33.527-48.749
			C52.1,154.165,29.549,158.404,0.699,156.223"/>
	</g>
	<g>
		<defs>
			<path id="SVGID_73_" d="M7.435,148.615c0,18.997,15.401,34.402,34.402,34.402c18.999,0,34.4-15.405,34.4-34.402
				c0-19.002-15.401-34.402-34.4-34.402C22.836,114.213,7.435,129.612,7.435,148.615"/>
		</defs>
		<clipPath id="SVGID_74_">
			<use xlink:href="#SVGID_73_"  overflow="visible"/>
		</clipPath>
		<path clip-path="url(#SVGID_74_)" fill="#C4BEBC" d="M76.238,148.615c0,18.997-15.402,34.4-34.401,34.4
			c-19,0-34.402-15.403-34.402-34.4c0-19.002,15.402-34.402,34.402-34.402C60.836,114.213,76.238,129.613,76.238,148.615"/>
		<path clip-path="url(#SVGID_74_)" fill="#CBECFC" d="M76.238,148.615c0,18.997-15.402,34.4-34.401,34.4
			c-19,0-34.402-15.403-34.402-34.4c0-19.002,15.402-34.402,34.402-34.402C60.836,114.213,76.238,129.613,76.238,148.615"/>
		<path clip-path="url(#SVGID_74_)" fill="#716F70" d="M68.695,184.622H14.98v-11.294c0-5.468,4.434-9.901,9.902-9.901h33.911
			c5.47,0,9.902,4.434,9.902,9.901V184.622z"/>
	</g>
	<g>
		<defs>
			<path id="SVGID_75_" d="M29.227,139.946v26.563c0,7.03,5.699,12.73,12.73,12.73c6.945,0,12.576-5.631,12.576-12.577v-26.717
				H29.227z"/>
		</defs>
		<clipPath id="SVGID_76_">
			<use xlink:href="#SVGID_75_"  overflow="visible"/>
		</clipPath>
		<path clip-path="url(#SVGID_76_)" fill="#F3B09D" d="M54.533,166.663c0,6.945-5.631,12.577-12.577,12.577
			c-7.03,0-12.73-5.7-12.73-12.73v-26.562h25.307V166.663z"/>
		<g opacity="0.4" clip-path="url(#SVGID_76_)">
			<g>
				<defs>
					<rect id="SVGID_77_" x="28.425" y="154.72" width="28.342" height="22.659"/>
				</defs>
				<clipPath id="SVGID_78_">
					<use xlink:href="#SVGID_77_"  overflow="visible"/>
				</clipPath>
				<path clip-path="url(#SVGID_78_)" fill="#E58871" d="M29.039,161.953c11.381,2.819,17.507,6.944,20.736,15.428l6.993-4.172
					l-0.184-18.366l-28.159-0.122L29.039,161.953z"/>
			</g>
		</g>
	</g>
	<g>
		<path fill="#F3B09D" d="M28.597,128.698c0,3.101-2.512,5.613-5.614,5.613c-3.1,0-5.611-2.512-5.611-5.613s2.512-5.613,5.611-5.613
			C26.085,123.085,28.597,125.597,28.597,128.698"/>
		<g opacity="0.2">
			<g>
				<defs>
					<rect id="SVGID_79_" x="19.306" y="125.02" width="7.355" height="7.357"/>
				</defs>
				<clipPath id="SVGID_80_">
					<use xlink:href="#SVGID_79_"  overflow="visible"/>
				</clipPath>
				<path clip-path="url(#SVGID_80_)" fill="#E58871" d="M26.661,128.698c0,2.032-1.646,3.677-3.678,3.677
					c-2.03,0-3.677-1.646-3.677-3.677s1.647-3.678,3.677-3.678C25.015,125.021,26.661,126.667,26.661,128.698"/>
			</g>
		</g>
		<path fill="#F3B09D" d="M66.302,128.698c0,3.101-2.513,5.613-5.615,5.613c-3.099,0-5.61-2.512-5.61-5.613s2.512-5.613,5.61-5.613
			C63.789,123.085,66.302,125.597,66.302,128.698"/>
		<g opacity="0.2">
			<g>
				<defs>
					<rect id="SVGID_81_" x="57.012" y="125.02" width="7.354" height="7.357"/>
				</defs>
				<clipPath id="SVGID_82_">
					<use xlink:href="#SVGID_81_"  overflow="visible"/>
				</clipPath>
				<path clip-path="url(#SVGID_82_)" fill="#E58871" d="M64.366,128.698c0,2.032-1.646,3.677-3.68,3.677
					c-2.029,0-3.675-1.646-3.675-3.677s1.646-3.678,3.675-3.678C62.72,125.021,64.366,126.667,64.366,128.698"/>
			</g>
		</g>
	</g>
	<g>
		<defs>
			<path id="SVGID_83_" d="M37.935,98.74c-4.163,0-8.148,1.684-11.05,4.669c-2.9,2.983-4.473,7.013-4.358,11.173l0.944,33.989
				c0.077,2.751,1.492,5.292,3.792,6.806l9.762,6.42c2.811,1.85,6.454,1.85,9.267-0.005l9.795-6.454
				c2.271-1.499,3.683-4.014,3.782-6.732c0.264-7.082,0.776-21.582,1.087-34.06c0.102-4.154-1.472-8.176-4.371-11.151
				c-2.901-2.978-6.881-4.655-11.037-4.655H37.935z"/>
		</defs>
		<clipPath id="SVGID_84_">
			<use xlink:href="#SVGID_83_"  overflow="visible"/>
		</clipPath>
		<path clip-path="url(#SVGID_84_)" fill="#F3B09D" d="M61.443,156.521c0,2.384-1.933,4.315-4.315,9.746H26.743
			c-2.444-5.431-4.426-7.412-4.426-9.857v-42.262c0-8.514,6.902-15.415,15.414-15.415h8.298c8.513,0,15.415,6.9,15.415,15.415
			V156.521z"/>
		<g opacity="0.5" clip-path="url(#SVGID_84_)">
			<g>
				<defs>
					<rect id="SVGID_85_" x="22.483" y="119.51" width="38.793" height="6.825"/>
				</defs>
				<clipPath id="SVGID_86_">
					<use xlink:href="#SVGID_85_"  overflow="visible"/>
				</clipPath>
				<path clip-path="url(#SVGID_86_)" fill="#E58871" d="M61.276,126.334c0-3.769-3.056-6.825-6.825-6.825H29.309
					c-3.77,0-6.825,3.056-6.825,6.825H61.276z"/>
			</g>
		</g>
		<g opacity="0.2" clip-path="url(#SVGID_84_)">
			<g>
				<defs>
					<rect id="SVGID_87_" x="29.145" y="106.766" width="25.472" height="12.735"/>
				</defs>
				<clipPath id="SVGID_88_">
					<use xlink:href="#SVGID_87_"  overflow="visible"/>
				</clipPath>
				<path clip-path="url(#SVGID_88_)" fill="#E58871" d="M29.145,119.5c0-7.033,5.7-12.735,12.736-12.735
					c7.034,0,12.735,5.702,12.735,12.735"/>
			</g>
		</g>
		<g opacity="0.5" clip-path="url(#SVGID_84_)">
			<g>
				<defs>
					<rect id="SVGID_89_" x="41.881" y="121.646" width="5.369" height="11.182"/>
				</defs>
				<clipPath id="SVGID_90_">
					<use xlink:href="#SVGID_89_"  overflow="visible"/>
				</clipPath>
				<polygon clip-path="url(#SVGID_90_)" fill="#E58871" points="41.881,132.828 41.881,121.645 47.25,132.391 				"/>
			</g>
		</g>
		<path clip-path="url(#SVGID_84_)" fill="#ED877B" d="M45.628,134.574c-0.994,0.994-2.341,1.552-3.746,1.552
			c-1.407,0-2.755-0.558-3.749-1.552l-1.485-1.485c-0.182-0.184-0.238-0.461-0.139-0.701c0.1-0.239,0.334-0.396,0.593-0.396h9.556
			c0.26,0,0.494,0.157,0.594,0.396c0.099,0.24,0.044,0.517-0.14,0.701L45.628,134.574z"/>
		<g opacity="0.5" clip-path="url(#SVGID_84_)">
			<g>
				<defs>
					<rect id="SVGID_91_" x="40.16" y="130.263" width="3.441" height="1.719"/>
				</defs>
				<clipPath id="SVGID_92_">
					<use xlink:href="#SVGID_91_"  overflow="visible"/>
				</clipPath>
				<path clip-path="url(#SVGID_92_)" fill="#E58871" d="M40.16,131.982c0-0.95,0.768-1.72,1.722-1.72c0.949,0,1.72,0.77,1.72,1.72
					H40.16z"/>
			</g>
		</g>
		<g opacity="0.2" clip-path="url(#SVGID_84_)">
			<g>
				<defs>
					<rect id="SVGID_93_" x="17.683" y="128.969" width="48.619" height="39.045"/>
				</defs>
				<clipPath id="SVGID_94_">
					<use xlink:href="#SVGID_93_"  overflow="visible"/>
				</clipPath>
				<path clip-path="url(#SVGID_94_)" fill="#E58871" d="M66.302,161.717l-2.399-32.749l-12.294,2.527
					c-0.327,0.068-0.61,0.265-0.785,0.548c-0.179,0.283-0.227,0.625-0.143,0.948l2.228,8.436c0.464,1.75,0.697,3.553,0.697,5.363
					v0.008c0,1.574-0.52,3.09-1.479,4.337c-2.327,3.021-5.98,4.968-10.088,4.968c-4.318,0-8.129-2.147-10.433-5.432
					c-0.795-1.135-1.226-2.489-1.226-3.875v-0.006c0-1.81,0.235-3.613,0.697-5.363l2.228-8.436c0.086-0.323,0.035-0.665-0.14-0.948
					c-0.177-0.283-0.461-0.48-0.786-0.548l-12.295-2.527l-2.401,32.749h9.96l-0.256,6.297c0,0,32.129-0.774,32.051-1.006
					c-0.004-0.019,0.089-5.06,0.026-5.291H66.302z"/>
			</g>
		</g>
		
			<line clip-path="url(#SVGID_84_)" fill="none" stroke="#58473A" stroke-width="0.617" stroke-linecap="round" stroke-miterlimit="10" x1="58.633" y1="119.559" x2="49.171" y2="120.111"/>
		
			<line clip-path="url(#SVGID_84_)" fill="none" stroke="#58473A" stroke-width="0.617" stroke-linecap="round" stroke-miterlimit="10" x1="35.705" y1="118.007" x2="26.265" y2="117.156"/>
		<path clip-path="url(#SVGID_84_)" fill="#D4696B" d="M28.331,140.447c0,0,0.135-0.211,0.374-0.582
			c0.132-0.176,0.232-0.427,0.467-0.641c0.234-0.208,0.47-0.51,0.81-0.728c0.358-0.191,0.745-0.435,1.241-0.479
			c0.241-0.064,0.49-0.082,0.74-0.042c0.249,0.03,0.527,0.021,0.762,0.115c0.507,0.126,0.985,0.328,1.453,0.562
			c0.454,0.238,0.916,0.496,1.339,0.765c0.813,0.553,1.625,1.104,2.387,1.623c0.374,0.231,0.723,0.489,1.068,0.673
			c0.343,0.208,0.661,0.393,0.977,0.522c0.303,0.193,0.603,0.256,0.871,0.371c0.269,0.119,0.514,0.188,0.723,0.217
			c0.418,0.096,0.69,0.179,0.69,0.179s-0.227,0.115-0.677,0.262c-0.227,0.084-0.507,0.154-0.837,0.145
			c-0.332,0.022-0.718,0.028-1.113-0.063c-0.404-0.08-0.84-0.176-1.251-0.381c-0.441-0.16-0.843-0.407-1.268-0.657
			c-0.832-0.504-1.612-1.164-2.375-1.766c-0.375-0.325-0.75-0.61-1.128-0.887c-0.379-0.265-0.761-0.496-1.147-0.652
			c-0.189-0.115-0.384-0.118-0.576-0.175c-0.193-0.069-0.379-0.081-0.563-0.057c-0.379-0.035-0.713,0.121-1.039,0.229
			c-0.319,0.117-0.564,0.335-0.822,0.477c-0.251,0.151-0.423,0.375-0.595,0.507C28.517,140.278,28.331,140.447,28.331,140.447"/>
		<path clip-path="url(#SVGID_84_)" d="M33.079,123.096c0,0.616-0.276,1.167-0.709,1.538c-0.718-0.126-2.789-1.138-3.339-1.538
			c0-1.118,0.907-2.024,2.024-2.024C32.172,121.072,33.079,121.979,33.079,123.096"/>
		<path clip-path="url(#SVGID_84_)" fill="none" stroke="#FFFFFF" stroke-width="0.25" stroke-miterlimit="10" d="M33.079,123.096
			c0,0.616-0.276,1.167-0.709,1.538c-0.718-0.126-2.789-1.138-3.339-1.538c0-1.118,0.907-2.024,2.024-2.024
			C32.172,121.072,33.079,121.979,33.079,123.096z"/>
		<path clip-path="url(#SVGID_84_)" d="M54.16,122.162h-2.912c-0.348,0.233-0.567,0.548-0.567,0.896
			c0,0.292,0.175,0.544,0.423,0.761h3.2c0.249-0.217,0.424-0.47,0.424-0.761C54.728,122.709,54.507,122.395,54.16,122.162"/>
		<path clip-path="url(#SVGID_84_)" fill="none" stroke="#FFFFFF" stroke-width="0.25" stroke-miterlimit="10" d="M54.16,122.162
			h-2.912c-0.348,0.233-0.567,0.548-0.567,0.896c0,0.292,0.175,0.544,0.423,0.761h3.2c0.249-0.217,0.424-0.47,0.424-0.761
			C54.728,122.709,54.507,122.395,54.16,122.162z"/>
	</g>
	<g>
		<path fill="#716F70" d="M83.992,447.081c0,23.105-18.729,41.832-41.835,41.832c-23.105,0-41.835-18.727-41.835-41.832
			c0-23.104,18.73-41.836,41.835-41.836C65.264,405.245,83.992,423.977,83.992,447.081"/>
		<path fill="#585857" d="M1.021,454.689c4.204,22.721,26.029,37.729,48.748,33.529c22.721-4.206,37.729-26.031,33.526-48.75
			C52.42,452.632,29.87,456.872,1.021,454.689"/>
	</g>
	<g>
		<defs>
			<path id="SVGID_95_" d="M7.756,447.081c0,18.997,15.403,34.398,34.401,34.398c18.999,0,34.401-15.401,34.401-34.398
				c0-19.001-15.402-34.401-34.401-34.401C23.159,412.68,7.756,428.08,7.756,447.081"/>
		</defs>
		<clipPath id="SVGID_96_">
			<use xlink:href="#SVGID_95_"  overflow="visible"/>
		</clipPath>
		<path clip-path="url(#SVGID_96_)" fill="#C4BEBC" d="M76.559,447.081c0,18.997-15.404,34.4-34.401,34.4
			c-18.999,0-34.402-15.403-34.402-34.4c0-19.001,15.404-34.401,34.402-34.401C61.154,412.68,76.559,428.08,76.559,447.081"/>
		<path clip-path="url(#SVGID_96_)" fill="#CBECFC" d="M76.559,447.081c0,18.997-15.404,34.4-34.401,34.4
			c-18.999,0-34.402-15.403-34.402-34.4c0-19.001,15.404-34.401,34.402-34.401C61.154,412.68,76.559,428.08,76.559,447.081"/>
		<path clip-path="url(#SVGID_96_)" fill="#716F70" d="M69.016,483.089H15.301v-11.294c0-5.47,4.433-9.902,9.902-9.902h33.91
			c5.47,0,9.902,4.433,9.902,9.902V483.089z"/>
	</g>
	<g>
		<defs>
			<path id="SVGID_97_" d="M29.546,438.413v26.562c0,7.03,5.701,12.73,12.73,12.73c6.946,0,12.576-5.633,12.576-12.576v-26.717
				H29.546z"/>
		</defs>
		<clipPath id="SVGID_98_">
			<use xlink:href="#SVGID_97_"  overflow="visible"/>
		</clipPath>
		<path clip-path="url(#SVGID_98_)" fill="#F3B09D" d="M54.854,465.129c0,6.945-5.632,12.577-12.578,12.577
			c-7.031,0-12.729-5.699-12.729-12.73v-26.562h25.308V465.129z"/>
		<g opacity="0.4" clip-path="url(#SVGID_98_)">
			<g>
				<defs>
					<rect id="SVGID_99_" x="28.747" y="451.037" width="28.341" height="24.81"/>
				</defs>
				<clipPath id="SVGID_100_">
					<use xlink:href="#SVGID_99_"  overflow="visible"/>
				</clipPath>
				<path clip-path="url(#SVGID_100_)" fill="#E58871" d="M29.361,460.419c11.381,2.819,17.505,6.945,20.734,15.428l6.993-4.171
					l-0.184-20.517l-28.158-0.122L29.361,460.419z"/>
			</g>
		</g>
	</g>
	<g>
		<path fill="#F3B09D" d="M28.918,427.165c0,3.1-2.512,5.612-5.613,5.612c-3.1,0-5.613-2.513-5.613-5.612
			c0-3.101,2.514-5.612,5.613-5.612C26.406,421.553,28.918,424.064,28.918,427.165"/>
		<g opacity="0.2">
			<g>
				<defs>
					<rect id="SVGID_101_" x="19.627" y="423.486" width="7.355" height="7.356"/>
				</defs>
				<clipPath id="SVGID_102_">
					<use xlink:href="#SVGID_101_"  overflow="visible"/>
				</clipPath>
				<path clip-path="url(#SVGID_102_)" fill="#E58871" d="M26.982,427.165c0,2.031-1.646,3.678-3.677,3.678
					c-2.031,0-3.678-1.646-3.678-3.678s1.647-3.679,3.678-3.679C25.337,423.486,26.982,425.134,26.982,427.165"/>
			</g>
		</g>
		<path fill="#F3B09D" d="M66.623,427.165c0,3.1-2.514,5.612-5.615,5.612c-3.099,0-5.611-2.513-5.611-5.612
			c0-3.101,2.513-5.612,5.611-5.612C64.109,421.553,66.623,424.064,66.623,427.165"/>
		<g opacity="0.2">
			<g>
				<defs>
					<rect id="SVGID_103_" x="57.332" y="423.486" width="7.355" height="7.356"/>
				</defs>
				<clipPath id="SVGID_104_">
					<use xlink:href="#SVGID_103_"  overflow="visible"/>
				</clipPath>
				<path clip-path="url(#SVGID_104_)" fill="#E58871" d="M64.688,427.165c0,2.031-1.647,3.678-3.68,3.678
					c-2.03,0-3.676-1.646-3.676-3.678s1.646-3.679,3.676-3.679C63.04,423.486,64.688,425.134,64.688,427.165"/>
			</g>
		</g>
	</g>
	<g>
		<defs>
			<path id="SVGID_105_" d="M38.487,397.202c-4.162,0-8.147,1.684-11.05,4.666c-2.901,2.984-4.475,7.015-4.36,11.177l0.946,33.988
				c0.076,2.75,1.491,5.291,3.791,6.803l9.761,6.423c2.812,1.852,6.457,1.851,9.267-0.004l9.796-6.458
				c2.271-1.499,3.685-4.011,3.781-6.73c0.264-7.083,0.778-21.581,1.087-34.061c0.104-4.154-1.469-8.174-4.368-11.15
				c-2.901-2.976-6.884-4.653-11.039-4.653H38.487z"/>
		</defs>
		<clipPath id="SVGID_106_">
			<use xlink:href="#SVGID_105_"  overflow="visible"/>
		</clipPath>
		<path clip-path="url(#SVGID_106_)" fill="#F3B09D" d="M61.764,454.988c0,2.384-1.933,4.314-4.315,9.744H27.063
			c-2.444-5.43-4.426-7.41-4.426-9.856v-42.261c0-8.513,6.902-15.415,15.414-15.415h8.297c8.513,0,15.415,6.902,15.415,15.415
			V454.988z"/>
		<g opacity="0.5" clip-path="url(#SVGID_106_)">
			<g>
				<defs>
					<rect id="SVGID_107_" x="22.804" y="420.295" width="38.794" height="6.826"/>
				</defs>
				<clipPath id="SVGID_108_">
					<use xlink:href="#SVGID_107_"  overflow="visible"/>
				</clipPath>
				<path clip-path="url(#SVGID_108_)" fill="#E58871" d="M61.598,427.121c0-3.77-3.057-6.826-6.826-6.826H29.629
					c-3.77,0-6.825,3.057-6.825,6.826H61.598z"/>
			</g>
		</g>
		<g opacity="0.2" clip-path="url(#SVGID_106_)">
			<g>
				<defs>
					<rect id="SVGID_109_" x="29.465" y="407.552" width="25.472" height="12.734"/>
				</defs>
				<clipPath id="SVGID_110_">
					<use xlink:href="#SVGID_109_"  overflow="visible"/>
				</clipPath>
				<path clip-path="url(#SVGID_110_)" fill="#E58871" d="M29.465,420.286c0-7.033,5.702-12.734,12.736-12.734
					c7.035,0,12.735,5.701,12.735,12.734"/>
			</g>
		</g>
		<g opacity="0.5" clip-path="url(#SVGID_106_)">
			<g>
				<defs>
					<rect id="SVGID_111_" x="42.201" y="422.431" width="5.37" height="11.184"/>
				</defs>
				<clipPath id="SVGID_112_">
					<use xlink:href="#SVGID_111_"  overflow="visible"/>
				</clipPath>
				<polygon clip-path="url(#SVGID_112_)" fill="#E58871" points="42.201,433.614 42.201,422.431 47.571,433.177 				"/>
			</g>
		</g>
		<path clip-path="url(#SVGID_106_)" fill="#ED877B" d="M45.949,435.359c-0.994,0.994-2.342,1.554-3.748,1.554
			c-1.406,0-2.753-0.56-3.748-1.554l-1.483-1.485c-0.184-0.184-0.24-0.459-0.141-0.698c0.1-0.241,0.334-0.397,0.594-0.397h9.555
			c0.26,0,0.494,0.156,0.594,0.397c0.101,0.239,0.044,0.515-0.14,0.698L45.949,435.359z"/>
		<g opacity="0.5" clip-path="url(#SVGID_106_)">
			<g>
				<defs>
					<rect id="SVGID_113_" x="40.48" y="431.049" width="3.442" height="1.72"/>
				</defs>
				<clipPath id="SVGID_114_">
					<use xlink:href="#SVGID_113_"  overflow="visible"/>
				</clipPath>
				<path clip-path="url(#SVGID_114_)" fill="#E58871" d="M40.48,432.769c0-0.95,0.77-1.72,1.721-1.72c0.95,0,1.721,0.77,1.721,1.72
					H40.48z"/>
			</g>
		</g>
		<g opacity="0.2" clip-path="url(#SVGID_106_)">
			<g>
				<defs>
					<rect id="SVGID_115_" x="18.003" y="427.436" width="48.62" height="39.045"/>
				</defs>
				<clipPath id="SVGID_116_">
					<use xlink:href="#SVGID_115_"  overflow="visible"/>
				</clipPath>
				<path clip-path="url(#SVGID_116_)" fill="#E58871" d="M66.623,460.184l-2.4-32.748l-12.294,2.528
					c-0.326,0.066-0.61,0.265-0.785,0.547c-0.177,0.284-0.227,0.627-0.143,0.947l2.293,8.679c0.42,1.59,0.651,3.226,0.689,4.871
					l0.122,5.178c0,2.052-0.886,4.005-2.431,5.355c-1.545,1.352-3.775-0.371-5.812-0.642c-1.203-0.16-2.403-0.328-3.506-0.328
					c-2.375,0-7.331-2.087-10.143-5.293c-0.976-1.11-1.515-2.541-1.515-4.021c0-1.811,0.234-3.613,0.696-5.364l2.229-8.435
					c0.086-0.321,0.034-0.664-0.14-0.948c-0.176-0.282-0.461-0.48-0.786-0.547l-12.295-2.528l-2.401,32.748h9.959l-0.256,6.297
					c0,0,32.129-0.774,32.052-1.007c-0.005-0.018,0.088-5.058,0.026-5.29H66.623z"/>
			</g>
		</g>
		<path clip-path="url(#SVGID_106_)" fill="#D46A6B" d="M50.576,447.45c0-2.994-3.152-7.045-8.154-7.045
			c-5.18,0-8.155,4.051-8.155,7.045H50.576z"/>
	</g>
	<g>
		<defs>
			<path id="SVGID_117_" d="M34.268,447.45h16.309c0-2.994-3.152-7.043-8.155-7.043C37.242,440.407,34.268,444.456,34.268,447.45"/>
		</defs>
		<clipPath id="SVGID_118_">
			<use xlink:href="#SVGID_117_"  overflow="visible"/>
		</clipPath>
		<g opacity="0.3" clip-path="url(#SVGID_118_)">
			<g>
				<defs>
					<rect id="SVGID_119_" x="34.834" y="443.619" width="14.798" height="14.797"/>
				</defs>
				<clipPath id="SVGID_120_">
					<use xlink:href="#SVGID_119_"  overflow="visible"/>
				</clipPath>
				<path clip-path="url(#SVGID_120_)" fill="#95494A" d="M34.834,451.017c0-4.085,3.312-7.397,7.399-7.397
					c4.086,0,7.399,3.312,7.399,7.397c0,4.088-3.313,7.399-7.399,7.399C38.146,458.416,34.834,455.104,34.834,451.017"/>
			</g>
		</g>
		<path clip-path="url(#SVGID_118_)" fill="#FFFFFF" d="M49.964,439.078c0,1.657-3.293,3.001-7.354,3.001s-7.352-1.344-7.352-3.001
			c0-1.659,3.291-3.004,7.352-3.004S49.964,437.419,49.964,439.078"/>
	</g>
	<g>
		<defs>
			<path id="SVGID_121_" d="M38.487,397.202c-4.162,0-8.147,1.684-11.05,4.666c-2.901,2.984-4.475,7.015-4.36,11.177l0.946,33.988
				c0.076,2.75,1.491,5.291,3.791,6.803l9.761,6.423c2.812,1.852,6.457,1.851,9.267-0.004l9.796-6.458
				c2.271-1.499,3.685-4.011,3.781-6.73c0.264-7.083,0.778-21.581,1.087-34.061c0.104-4.154-1.469-8.174-4.368-11.15
				c-2.901-2.976-6.884-4.653-11.039-4.653H38.487z"/>
		</defs>
		<clipPath id="SVGID_122_">
			<use xlink:href="#SVGID_121_"  overflow="visible"/>
		</clipPath>
		
			<line clip-path="url(#SVGID_122_)" fill="none" stroke="#5A5B5D" stroke-width="0.308" stroke-linecap="round" stroke-miterlimit="10" x1="48.446" y1="425.183" x2="54.847" y2="424.046"/>
		
			<line clip-path="url(#SVGID_122_)" fill="none" stroke="#5A5B5D" stroke-width="0.308" stroke-linecap="round" stroke-miterlimit="10" x1="35.956" y1="425.183" x2="29.556" y2="424.046"/>
		
			<line clip-path="url(#SVGID_122_)" fill="none" stroke="#5A5B5D" stroke-width="0.103" stroke-linecap="round" stroke-miterlimit="10" x1="50.045" y1="425.695" x2="54.003" y2="425.572"/>
		
			<line clip-path="url(#SVGID_122_)" fill="none" stroke="#5A5B5D" stroke-width="0.103" stroke-linecap="round" stroke-miterlimit="10" x1="50.495" y1="423.441" x2="53.858" y2="421.82"/>
		
			<line clip-path="url(#SVGID_122_)" fill="none" stroke="#5A5B5D" stroke-width="0.103" stroke-linecap="round" stroke-miterlimit="10" x1="33.786" y1="425.903" x2="29.005" y2="426.034"/>
		
			<line clip-path="url(#SVGID_122_)" fill="none" stroke="#5A5B5D" stroke-width="0.103" stroke-linecap="round" stroke-miterlimit="10" x1="35.835" y1="423.85" x2="33.417" y2="422.376"/>
	</g>
	<g>
		
			<line fill="none" stroke="#58473A" stroke-width="0.617" stroke-linecap="round" stroke-miterlimit="10" x1="27.667" y1="418.586" x2="36.767" y2="421.233"/>
		
			<line fill="none" stroke="#58473A" stroke-width="0.617" stroke-linecap="round" stroke-miterlimit="10" x1="56" y1="417.864" x2="47.182" y2="421.335"/>
	</g>
</g>
</svg>
